<svg xmlns="http://www.w3.org/2000/svg" viewBox="0 0 322.448 295.685"><defs><style>.a,.g,.h,.i{isolation:isolate;}.b,.u{fill:#df003e;}.b{opacity:0.201;}.c,.e{fill:#6700bd;}.c{opacity:0.198;}.d{fill:#fff;}.f,.h{opacity:0.6;}.g,.i,.j,.k,.l,.m,.n,.o,.p,.q,.r,.s,.t{fill:none;stroke-linejoin:round;}.g{stroke:#000;stroke-width:0.5px;stroke-dasharray:0.5 0.825;opacity:0.3;}.i{stroke:#fff;stroke-width:2px;}.j{stroke:#e23c4e;}.j,.k,.l,.m,.n,.o,.p,.q,.r,.s,.t{stroke-width:5px;}.j,.k,.l,.m,.n,.o,.p,.q,.r,.s{opacity:0.5;mix-blend-mode:screen;}.k{stroke:#00a1ca;}.l{stroke:#1d5f82;}.m{stroke:#f8813d;}.n{stroke:#54af71;}.o,.t{stroke:#456558;}.p{stroke:#ffca18;}.q{stroke:#525394;}.r{stroke:#ad427f;}.s{stroke:#5a686d;}</style></defs><title>change-cleaned</title><g class="a"><rect class="b" y="147.684" width="304.364" height="148.001"/><rect class="c" width="304.364" height="148.001"/><path class="d" d="M8.212,64.746H5.475v-.528a8.536,8.536,0,0,0,2.833-.912h.624V78.667h-.72Z"/><path class="d" d="M13.1,76.988a3.33,3.33,0,0,0,2.64,1.3c2.52,0,4.728-2.04,4.753-7.946a5.327,5.327,0,0,1-3.985,2.185c-2.688,0-4.224-1.68-4.224-4.752,0-2.736,1.872-4.753,4.08-4.753,3.073,0,4.9,2.641,4.9,7.2,0,6.529-2.641,8.737-5.569,8.737a3.889,3.889,0,0,1-3.072-1.44Zm7.368-7.562c-.168-3.336-1.44-5.736-4.152-5.736-1.872,0-3.264,1.824-3.264,4.081,0,2.3,1.008,4.08,3.5,4.08A5.2,5.2,0,0,0,20.466,69.426Z"/><path class="d" d="M26.861,70.315v-.1a4.288,4.288,0,0,1-2.208-3.5,3.714,3.714,0,0,1,3.889-3.7A3.8,3.8,0,0,1,32.622,67a5.762,5.762,0,0,1-2.208,3.985v.095c1.3.817,2.688,1.825,2.688,3.889,0,2.208-1.824,3.984-4.56,3.984-2.785,0-4.8-1.824-4.8-4.224C23.741,72.619,25.421,71.082,26.861,70.315Zm1.681,7.969c2.3,0,3.792-1.489,3.792-3.313,0-2.5-2.448-3.36-4.9-4.32-1.681.96-2.929,2.3-2.929,4.08A3.735,3.735,0,0,0,28.542,78.284ZM31.854,67a3.173,3.173,0,0,0-3.312-3.312,2.977,2.977,0,0,0-3.121,3.024c0,2.305,2.208,3.217,4.273,4.032A4.84,4.84,0,0,0,31.854,67Z"/><path class="d" d="M35.47,70.939c0-5.089,1.68-7.921,4.7-7.921s4.7,2.832,4.7,7.921-1.68,8.016-4.7,8.016S35.47,76.027,35.47,70.939Zm8.641,0c0-4.753-1.536-7.249-3.937-7.249s-3.936,2.5-3.936,7.249,1.536,7.345,3.936,7.345S44.111,75.691,44.111,70.939Z"/><path class="e" d="M5.728,4.83h.828v5.2h6.338V4.83h.828V16.7h-.828V10.754H6.556V16.7H5.728Z"/><path class="e" d="M20.084,7.837c2.088,0,3.889,1.656,3.889,4.555,0,2.863-1.8,4.519-3.889,4.519-2.071,0-3.871-1.656-3.871-4.519C16.213,9.493,18.013,7.837,20.084,7.837Zm0,8.372c1.746,0,3.061-1.548,3.061-3.817,0-2.287-1.315-3.853-3.061-3.853s-3.043,1.566-3.043,3.853C17.041,14.661,18.337,16.209,20.084,16.209Z"/><path class="e" d="M25.12,8.053h.864l1.549,5.6c.216.792.414,1.531.594,2.305H28.2c.2-.774.414-1.513.63-2.305l1.567-5.6h.954l1.567,5.6c.215.792.432,1.531.648,2.305h.072c.2-.774.414-1.513.612-2.305l1.53-5.6h.81L34.1,16.7H33.061L31.548,11.33c-.252-.829-.414-1.621-.666-2.467H30.81c-.2.846-.414,1.674-.684,2.5l-1.5,5.329h-.954Z"/><path class="e" d="M41.032,8.053H41.9l1.548,5.6c.216.792.414,1.531.594,2.305h.072c.2-.774.414-1.513.63-2.305l1.567-5.6h.954l1.567,5.6c.216.792.432,1.531.648,2.305h.072c.2-.774.414-1.513.612-2.305l1.53-5.6H52.5L50.017,16.7H48.973L47.46,11.33c-.252-.829-.414-1.621-.666-2.467h-.072c-.2.846-.414,1.674-.684,2.5L44.544,16.7h-.955Z"/><path class="e" d="M57.529,7.837c2.089,0,3.89,1.656,3.89,4.555,0,2.863-1.8,4.519-3.89,4.519-2.07,0-3.871-1.656-3.871-4.519C53.658,9.493,55.459,7.837,57.529,7.837Zm0,8.372c1.746,0,3.061-1.548,3.061-3.817,0-2.287-1.315-3.853-3.061-3.853s-3.043,1.566-3.043,3.853C54.486,14.661,55.783,16.209,57.529,16.209Z"/><path class="e" d="M63.843,8.053h.684L64.6,9.385h.054a3.959,3.959,0,0,1,2.719-1.548A2.246,2.246,0,0,1,69.766,9.6,4.337,4.337,0,0,1,72.7,7.837c1.729,0,2.593,1.08,2.593,3.312V16.7h-.81V11.258c0-1.837-.612-2.7-1.927-2.7a3.77,3.77,0,0,0-2.593,1.621V16.7h-.792V11.258c0-1.837-.612-2.7-1.944-2.7a3.837,3.837,0,0,0-2.593,1.621V16.7h-.792Z"/><path class="e" d="M81.4,7.837c2.052,0,3.313,1.458,3.313,4a3.913,3.913,0,0,1-.036.648h-6.23c.036,2.179,1.314,3.745,3.259,3.745a3.825,3.825,0,0,0,2.322-.774l.325.612a4.82,4.82,0,0,1-2.719.846c-2.215,0-4-1.692-4-4.519S79.47,7.837,81.4,7.837Zm2.557,4.033c0-2.215-.991-3.35-2.539-3.35-1.476,0-2.791,1.279-2.971,3.35Z"/><path class="e" d="M86.948,8.053h.685l.072,1.332h.054A4.218,4.218,0,0,1,90.73,7.837c1.782,0,2.61,1.08,2.61,3.312V16.7h-.792V11.258c0-1.837-.576-2.7-1.981-2.7-1.026,0-1.764.54-2.826,1.621V16.7h-.793Z"/><path class="e" d="M103.258,7.837c2.088,0,3.889,1.656,3.889,4.555,0,2.863-1.8,4.519-3.889,4.519-2.071,0-3.871-1.656-3.871-4.519C99.387,9.493,101.187,7.837,103.258,7.837Zm0,8.372c1.746,0,3.06-1.548,3.06-3.817,0-2.287-1.314-3.853-3.06-3.853s-3.043,1.566-3.043,3.853C100.215,14.661,101.511,16.209,103.258,16.209Z"/><path class="e" d="M108.076,8.053h.865l1.944,5.42c.27.828.595,1.692.865,2.484h.071c.288-.792.595-1.656.883-2.484l1.945-5.42h.81l-3.2,8.642h-.937Z"/><path class="e" d="M120.143,7.837c2.053,0,3.313,1.458,3.313,4a3.913,3.913,0,0,1-.036.648h-6.229c.036,2.179,1.314,3.745,3.258,3.745a3.828,3.828,0,0,0,2.323-.774l.324.612a4.817,4.817,0,0,1-2.718.846c-2.215,0-4-1.692-4-4.519S118.217,7.837,120.143,7.837ZM122.7,11.87c0-2.215-.99-3.35-2.539-3.35-1.476,0-2.79,1.279-2.97,3.35Z"/><path class="e" d="M125.7,8.053h.684l.072,1.6h.054a2.967,2.967,0,0,1,2.449-1.818,1.778,1.778,0,0,1,.864.18l-.18.72a1.883,1.883,0,0,0-.792-.144c-.774,0-1.693.594-2.359,2.215V16.7H125.7Z"/><path class="e" d="M132.279,8.737h-1.35V8.125l1.368-.072.108-2.5h.685v2.5h2.5v.684h-2.5v5.636c0,1.1.27,1.836,1.458,1.836a2.894,2.894,0,0,0,1.08-.27l.216.648a4.824,4.824,0,0,1-1.4.324c-1.674,0-2.161-1.062-2.161-2.61Z"/><path class="e" d="M140.519,7.837c2.088,0,3.889,1.656,3.889,4.555,0,2.863-1.8,4.519-3.889,4.519-2.071,0-3.871-1.656-3.871-4.519C136.648,9.493,138.448,7.837,140.519,7.837Zm0,8.372c1.746,0,3.06-1.548,3.06-3.817,0-2.287-1.314-3.853-3.06-3.853s-3.043,1.566-3.043,3.853C137.476,14.661,138.772,16.209,140.519,16.209Z"/><path class="e" d="M150.111,7.837c2.088,0,3.889,1.656,3.889,4.555,0,2.863-1.8,4.519-3.889,4.519-2.071,0-3.872-1.656-3.872-4.519C146.239,9.493,148.04,7.837,150.111,7.837Zm0,8.372c1.746,0,3.06-1.548,3.06-3.817,0-2.287-1.314-3.853-3.06-3.853s-3.043,1.566-3.043,3.853C147.068,14.661,148.364,16.209,150.111,16.209Z"/><path class="e" d="M156.423,3.749h.792v9.543h.037l4.267-5.239h.918l-2.809,3.421,3.278,5.221h-.883l-2.862-4.627-1.946,2.269V16.7h-.792Z"/><path class="e" d="M168.357,8.053h.685l.072,1.332h.054a3.957,3.957,0,0,1,2.718-1.548,2.246,2.246,0,0,1,2.4,1.764,4.333,4.333,0,0,1,2.934-1.764c1.729,0,2.594,1.08,2.594,3.312V16.7H179V11.258c0-1.837-.613-2.7-1.927-2.7a3.766,3.766,0,0,0-2.593,1.621V16.7h-.792V11.258c0-1.837-.612-2.7-1.944-2.7a3.841,3.841,0,0,0-2.594,1.621V16.7h-.792Z"/><path class="e" d="M185.912,7.837c2.052,0,3.313,1.458,3.313,4a3.913,3.913,0,0,1-.036.648h-6.23c.036,2.179,1.314,3.745,3.259,3.745a3.832,3.832,0,0,0,2.323-.774l.324.612a4.82,4.82,0,0,1-2.719.846c-2.215,0-4-1.692-4-4.519S183.985,7.837,185.912,7.837Zm2.556,4.033c0-2.215-.99-3.35-2.538-3.35-1.476,0-2.791,1.279-2.971,3.35Z"/><path class="e" d="M191.463,8.053h.685l.072,1.332h.054a4.218,4.218,0,0,1,2.971-1.548c1.782,0,2.611,1.08,2.611,3.312V16.7h-.793V11.258c0-1.837-.576-2.7-1.98-2.7-1.027,0-1.765.54-2.827,1.621V16.7h-.793Z"/><path class="e" d="M204.316,5.262a.72.72,0,1,1,.72.7A.689.689,0,0,1,204.316,5.262Zm.306,2.791h.793V16.7h-.793Z"/><path class="e" d="M208.383,8.053h.685l.072,1.332h.054a4.218,4.218,0,0,1,2.971-1.548c1.782,0,2.611,1.08,2.611,3.312V16.7h-.793V11.258c0-1.837-.576-2.7-1.98-2.7-1.027,0-1.765.54-2.827,1.621V16.7h-.793Z"/><path class="e" d="M221.542,3.749h.793V7.494L222.3,9.187a4.935,4.935,0,0,1,2.989-1.35c2.3,0,3.457,1.728,3.457,4.411,0,2.935-1.782,4.663-3.818,4.663a4.458,4.458,0,0,1-2.591-1.026H222.3l-.09.81h-.666Zm3.349,12.46c1.746,0,3.007-1.62,3.007-3.961,0-2.125-.757-3.709-2.737-3.709a4.527,4.527,0,0,0-2.826,1.422v5.132A4.153,4.153,0,0,0,224.891,16.209Z"/><path class="e" d="M234.377,7.837c2.052,0,3.313,1.458,3.313,4a3.913,3.913,0,0,1-.036.648h-6.231c.037,2.179,1.315,3.745,3.26,3.745a3.827,3.827,0,0,0,2.322-.774l.325.612a4.82,4.82,0,0,1-2.719.846c-2.215,0-4-1.692-4-4.519S232.45,7.837,234.377,7.837Zm2.556,4.033c0-2.215-.99-3.35-2.538-3.35-1.476,0-2.791,1.279-2.972,3.35Z"/><path class="e" d="M243.338,7.837A3.544,3.544,0,0,1,245.877,8.9l-.468.558a2.944,2.944,0,0,0-2.053-.918c-1.765,0-3.133,1.566-3.133,3.853,0,2.269,1.242,3.817,3.133,3.817a3.477,3.477,0,0,0,2.305-.99l.414.54a4.084,4.084,0,0,1-2.755,1.152c-2.233,0-3.925-1.656-3.925-4.519C239.4,9.493,241.231,7.837,243.338,7.837Z"/><path class="e" d="M251.093,7.837c2.089,0,3.889,1.656,3.889,4.555,0,2.863-1.8,4.519-3.889,4.519-2.071,0-3.871-1.656-3.871-4.519C247.222,9.493,249.022,7.837,251.093,7.837Zm0,8.372c1.746,0,3.061-1.548,3.061-3.817,0-2.287-1.315-3.853-3.061-3.853s-3.043,1.566-3.043,3.853C248.05,14.661,249.346,16.209,251.093,16.209Z"/><path class="e" d="M257.406,8.053h.684l.073,1.332h.053a3.961,3.961,0,0,1,2.719-1.548A2.246,2.246,0,0,1,263.33,9.6a4.333,4.333,0,0,1,2.934-1.764c1.729,0,2.594,1.08,2.594,3.312V16.7h-.811V11.258c0-1.837-.612-2.7-1.926-2.7a3.766,3.766,0,0,0-2.593,1.621V16.7h-.792V11.258c0-1.837-.612-2.7-1.944-2.7a3.841,3.841,0,0,0-2.594,1.621V16.7h-.792Z"/><path class="e" d="M271.458,5.262a.72.72,0,1,1,1.44,0,.72.72,0,0,1-1.44,0Zm.3,2.791h.792V16.7h-.792Z"/><path class="e" d="M275.525,8.053h.685l.072,1.332h.054a4.216,4.216,0,0,1,2.97-1.548c1.782,0,2.612,1.08,2.612,3.312V16.7h-.793V11.258c0-1.837-.577-2.7-1.981-2.7-1.026,0-1.765.54-2.827,1.621V16.7h-.792Z"/><path class="e" d="M285.361,16.371V16.3a1.539,1.539,0,0,1-.757-1.386,2.036,2.036,0,0,1,.937-1.585v-.072a3.226,3.226,0,0,1-1.08-2.376A2.972,2.972,0,0,1,287.5,7.837a3.066,3.066,0,0,1,1.134.216h2.936v.666h-2.017a2.874,2.874,0,0,1,.954,2.178A2.953,2.953,0,0,1,287.5,13.94a3,3,0,0,1-1.44-.36,1.558,1.558,0,0,0-.7,1.243c0,.63.36,1.134,1.656,1.134h1.855c1.944,0,2.844.612,2.844,1.98,0,1.5-1.6,2.917-4.087,2.917-2.178,0-3.546-.936-3.546-2.394A2.727,2.727,0,0,1,285.361,16.371Zm2.358,3.835c1.945,0,3.188-1.1,3.188-2.179,0-.954-.7-1.314-2-1.314h-1.855a5.285,5.285,0,0,1-1.08-.144,2.258,2.258,0,0,0-1.135,1.819C284.838,19.468,285.883,20.206,287.719,20.206Zm2.017-9.326a2.246,2.246,0,1,0-4.483,0,2.249,2.249,0,1,0,4.483,0Z"/><path class="e" d="M8.734,25.837c2.053,0,3.313,1.458,3.313,4a4.023,4.023,0,0,1-.035.648H5.782c.036,2.179,1.314,3.745,3.259,3.745a3.827,3.827,0,0,0,2.322-.774l.325.612a4.823,4.823,0,0,1-2.719.846c-2.215,0-4-1.692-4-4.519S6.808,25.837,8.734,25.837Zm2.558,4.033c0-2.215-.991-3.35-2.539-3.35-1.477,0-2.791,1.279-2.971,3.35Z"/><path class="e" d="M14.286,21.749h.793v11.9c0,.378.162.558.378.558a1.393,1.393,0,0,0,.324-.036l.144.648a1.679,1.679,0,0,1-.576.09c-.7,0-1.063-.432-1.063-1.368Z"/><path class="e" d="M17.878,23.262a.72.72,0,1,1,.72.7A.689.689,0,0,1,17.878,23.262Zm.306,2.791h.792V34.7h-.792Z"/><path class="e" d="M22.522,34.371V34.3a1.539,1.539,0,0,1-.757-1.386,2.035,2.035,0,0,1,.936-1.585v-.072a3.226,3.226,0,0,1-1.08-2.376,2.973,2.973,0,0,1,3.043-3.043,3.07,3.07,0,0,1,1.134.216h2.935v.666H26.717a2.874,2.874,0,0,1,.954,2.178,2.953,2.953,0,0,1-3.007,3.043,3,3,0,0,1-1.44-.36,1.555,1.555,0,0,0-.7,1.243c0,.63.359,1.134,1.656,1.134h1.854c1.945,0,2.845.612,2.845,1.98,0,1.5-1.6,2.917-4.087,2.917-2.179,0-3.547-.936-3.547-2.394A2.726,2.726,0,0,1,22.522,34.371Zm2.358,3.835c1.945,0,3.187-1.1,3.187-2.179,0-.954-.7-1.314-2-1.314H24.214a5.293,5.293,0,0,1-1.081-.144A2.259,2.259,0,0,0,22,36.388C22,37.468,23.044,38.206,24.88,38.206ZM26.9,28.88a2.247,2.247,0,1,0-4.484,0,2.249,2.249,0,1,0,4.484,0Z"/><path class="e" d="M30.321,23.262a.72.72,0,1,1,.72.7A.689.689,0,0,1,30.321,23.262Zm.306,2.791h.792V34.7h-.792Z"/><path class="e" d="M34.389,21.749h.792v3.745l-.036,1.693a4.935,4.935,0,0,1,2.989-1.35c2.3,0,3.457,1.728,3.457,4.411,0,2.935-1.783,4.663-3.817,4.663a4.463,4.463,0,0,1-2.593-1.026h-.036l-.09.81h-.666Zm3.348,12.46c1.747,0,3.007-1.62,3.007-3.961,0-2.125-.756-3.709-2.737-3.709a4.532,4.532,0,0,0-2.826,1.422v5.132A4.155,4.155,0,0,0,37.737,34.209Z"/><path class="e" d="M44.04,21.749h.792v11.9c0,.378.162.558.378.558a1.393,1.393,0,0,0,.324-.036l.144.648a1.679,1.679,0,0,1-.576.09c-.7,0-1.062-.432-1.062-1.368Z"/><path class="e" d="M51.05,25.837c2.053,0,3.313,1.458,3.313,4a3.913,3.913,0,0,1-.036.648H48.1c.036,2.179,1.315,3.745,3.259,3.745a3.828,3.828,0,0,0,2.323-.774l.324.612a4.818,4.818,0,0,1-2.719.846c-2.215,0-4-1.692-4-4.519S49.124,25.837,51.05,25.837Zm2.557,4.033c0-2.215-.991-3.35-2.539-3.35-1.476,0-2.791,1.279-2.971,3.35Z"/><path class="e" d="M63.6,22.47a2.333,2.333,0,0,0-1.044-.252c-.919,0-1.351.719-1.351,1.963v1.872h2v.684h-2V34.7h-.792V26.737H59.221v-.612l1.188-.072V24.126c0-1.71.774-2.593,2.143-2.593a3.222,3.222,0,0,1,1.26.288Z"/><path class="e" d="M67.9,25.837c2.088,0,3.889,1.656,3.889,4.555,0,2.863-1.8,4.519-3.889,4.519-2.071,0-3.872-1.656-3.872-4.519C64.03,27.493,65.831,25.837,67.9,25.837Zm0,8.372c1.747,0,3.06-1.548,3.06-3.817,0-2.287-1.313-3.853-3.06-3.853s-3.043,1.566-3.043,3.853C64.859,32.661,66.155,34.209,67.9,34.209Z"/><path class="e" d="M74.215,26.053H74.9l.072,1.6h.054a2.965,2.965,0,0,1,2.449-1.818,1.778,1.778,0,0,1,.864.18l-.18.72a1.883,1.883,0,0,0-.792-.144c-.775,0-1.693.594-2.359,2.215V34.7h-.792Z"/><path class="e" d="M83.5,21.749H84.3V27.4a4.245,4.245,0,0,1,2.988-1.566c1.783,0,2.611,1.08,2.611,3.312V34.7H89.1V29.258c0-1.837-.576-2.7-1.981-2.7-1.026,0-1.764.54-2.826,1.621V34.7H83.5Z"/><path class="e" d="M92.45,23.262a.721.721,0,0,1,1.441,0,.721.721,0,0,1-1.441,0Zm.306,2.791h.792V34.7h-.792Z"/><path class="e" d="M97.094,34.371V34.3a1.54,1.54,0,0,1-.756-1.386,2.035,2.035,0,0,1,.936-1.585v-.072a3.226,3.226,0,0,1-1.08-2.376,2.972,2.972,0,0,1,3.043-3.043,3.07,3.07,0,0,1,1.134.216h2.935v.666h-2.017a2.872,2.872,0,0,1,.955,2.178,2.954,2.954,0,0,1-3.007,3.043,3,3,0,0,1-1.441-.36,1.558,1.558,0,0,0-.7,1.243c0,.63.36,1.134,1.657,1.134h1.854c1.945,0,2.845.612,2.845,1.98,0,1.5-1.6,2.917-4.087,2.917-2.179,0-3.547-.936-3.547-2.394A2.727,2.727,0,0,1,97.094,34.371Zm2.359,3.835c1.945,0,3.187-1.1,3.187-2.179,0-.954-.7-1.314-2-1.314H98.787a5.285,5.285,0,0,1-1.081-.144,2.259,2.259,0,0,0-1.134,1.819C96.572,37.468,97.616,38.206,99.453,38.206Zm2.016-9.326a2.246,2.246,0,1,0-4.483,0,2.249,2.249,0,1,0,4.483,0Z"/><path class="e" d="M105.2,21.749h.792V27.4a4.249,4.249,0,0,1,2.989-1.566c1.783,0,2.611,1.08,2.611,3.312V34.7H110.8V29.258c0-1.837-.576-2.7-1.981-2.7-1.026,0-1.764.54-2.827,1.621V34.7H105.2Z"/><path class="e" d="M117.652,25.837c2.053,0,3.313,1.458,3.313,4a4.023,4.023,0,0,1-.035.648H114.7c.036,2.179,1.314,3.745,3.259,3.745a3.827,3.827,0,0,0,2.322-.774l.325.612a4.823,4.823,0,0,1-2.719.846c-2.215,0-4-1.692-4-4.519S115.726,25.837,117.652,25.837Zm2.558,4.033c0-2.215-.991-3.35-2.54-3.35-1.476,0-2.79,1.279-2.97,3.35Z"/><path class="e" d="M123.208,26.053h.684l.072,1.6h.054a2.966,2.966,0,0,1,2.449-1.818,1.778,1.778,0,0,1,.864.18l-.18.72a1.883,1.883,0,0,0-.792-.144c-.774,0-1.693.594-2.359,2.215V34.7h-.792Z"/><path class="e" d="M135.538,25.837c2.053,0,3.313,1.458,3.313,4a4.023,4.023,0,0,1-.035.648h-6.23c.036,2.179,1.314,3.745,3.258,3.745a3.828,3.828,0,0,0,2.323-.774l.324.612a4.817,4.817,0,0,1-2.718.846c-2.215,0-4-1.692-4-4.519S133.612,25.837,135.538,25.837ZM138.1,29.87c0-2.215-.99-3.35-2.539-3.35-1.476,0-2.79,1.279-2.97,3.35Z"/><path class="e" d="M144.393,25.837A3.987,3.987,0,0,1,147,26.9l-.036-1.585V21.749h.793V34.7h-.685L147,33.579h-.054a4.045,4.045,0,0,1-2.808,1.332c-2.179,0-3.583-1.6-3.583-4.519C140.558,27.6,142.34,25.837,144.393,25.837Zm-.144,8.372a3.9,3.9,0,0,0,2.718-1.422V27.655a3.655,3.655,0,0,0-2.521-1.116c-1.728,0-3.042,1.675-3.042,3.853C141.4,32.679,142.412,34.209,144.249,34.209Z"/><path class="e" d="M150.666,26.053h.792V31.49c0,1.837.576,2.7,1.962,2.7,1.027,0,1.783-.54,2.792-1.764V26.053H157V34.7h-.666l-.089-1.44h-.036a3.863,3.863,0,0,1-2.935,1.656c-1.783,0-2.611-1.08-2.611-3.312Z"/><path class="e" d="M163.372,25.837A3.541,3.541,0,0,1,165.91,26.9l-.468.558a2.944,2.944,0,0,0-2.053-.918c-1.764,0-3.133,1.566-3.133,3.853,0,2.269,1.243,3.817,3.133,3.817a3.477,3.477,0,0,0,2.3-.99l.414.54a4.084,4.084,0,0,1-2.755,1.152c-2.232,0-3.925-1.656-3.925-4.519C159.428,27.493,161.264,25.837,163.372,25.837Z"/><path class="e" d="M173.326,29.275c.036-1.314-.342-2.736-2.034-2.736a4.767,4.767,0,0,0-2.755,1.008l-.361-.594a5.766,5.766,0,0,1,3.205-1.116c2.053,0,2.737,1.476,2.737,3.331V34.7h-.666l-.09-1.116h-.036a5.13,5.13,0,0,1-3.061,1.332,2.276,2.276,0,0,1-2.521-2.377C167.744,30.626,169.491,29.708,173.326,29.275Zm-2.935,4.952a4.532,4.532,0,0,0,2.935-1.4V29.888c-3.547.414-4.753,1.242-4.753,2.611A1.621,1.621,0,0,0,170.391,34.227Z"/><path class="e" d="M177.1,26.737h-1.35v-.612l1.369-.072.107-2.5h.685v2.5h2.5v.684h-2.5v5.636c0,1.1.269,1.836,1.458,1.836a2.894,2.894,0,0,0,1.08-.27l.217.648a4.836,4.836,0,0,1-1.405.324c-1.675,0-2.161-1.062-2.161-2.61Z"/><path class="e" d="M182.174,23.262a.721.721,0,1,1,.72.7A.69.69,0,0,1,182.174,23.262Zm.306,2.791h.792V34.7h-.792Z"/><path class="e" d="M189.5,25.837c2.089,0,3.888,1.656,3.888,4.555,0,2.863-1.8,4.519-3.888,4.519-2.072,0-3.871-1.656-3.871-4.519C185.625,27.493,187.424,25.837,189.5,25.837Zm0,8.372c1.746,0,3.06-1.548,3.06-3.817,0-2.287-1.314-3.853-3.06-3.853s-3.043,1.566-3.043,3.853C186.453,32.661,187.749,34.209,189.5,34.209Z"/><path class="e" d="M195.809,26.053h.685l.072,1.332h.054a4.218,4.218,0,0,1,2.97-1.548c1.783,0,2.612,1.08,2.612,3.312V34.7h-.793V29.258c0-1.837-.576-2.7-1.981-2.7-1.026,0-1.764.54-2.826,1.621V34.7h-.793Z"/><g class="f"><path d="M4.818,42.979H6.3c1.818,0,2.791,1.053,2.791,2.926s-.973,2.979-2.755,2.979H4.818Zm1.423,5.293c1.387,0,2.071-.873,2.071-2.367S7.628,43.59,6.241,43.59H5.575v4.682Z"/><path d="M10.215,43.131a.515.515,0,0,1,1.027,0,.515.515,0,0,1-1.027,0Zm.136,1.378h.738v4.375h-.738Z"/><path d="M17.144,43.078a1.28,1.28,0,0,0-.495-.109c-.414,0-.621.288-.621.847v.693h.927v.6h-.927v3.772H15.29V45.112H13.471v3.772h-.738V45.112h-.594v-.558l.594-.045v-.576c0-.909.45-1.477,1.359-1.477a2,2,0,0,1,.8.163l-.153.557a1.421,1.421,0,0,0-.586-.117c-.432,0-.684.315-.684.892v.558H15.29v-.693c0-.892.405-1.449,1.278-1.449a1.982,1.982,0,0,1,.729.143Z"/><path d="M19.488,44.4c1.117,0,1.747.8,1.747,2.053a2.617,2.617,0,0,1-.027.405H18.255A1.456,1.456,0,0,0,19.713,48.4a1.977,1.977,0,0,0,1.09-.342l.261.486a2.6,2.6,0,0,1-1.44.451,2.315,2.315,0,0,1-.136-4.592Zm1.1,1.971c0-.891-.4-1.386-1.081-1.386a1.366,1.366,0,0,0-1.26,1.386Z"/><path d="M22.418,44.509h.612l.063.792h.027a1.5,1.5,0,0,1,1.242-.9,1.086,1.086,0,0,1,.468.09l-.144.648a1.224,1.224,0,0,0-.423-.072c-.369,0-.81.27-1.107,1.009v2.808h-.738Z"/><path d="M27.245,44.4c1.116,0,1.746.8,1.746,2.053a2.617,2.617,0,0,1-.027.405H26.012A1.456,1.456,0,0,0,27.47,48.4a1.977,1.977,0,0,0,1.089-.342l.261.486a2.6,2.6,0,0,1-1.44.451,2.314,2.314,0,0,1-.135-4.592Zm1.1,1.971c0-.891-.4-1.386-1.08-1.386A1.366,1.366,0,0,0,26,46.372Z"/><path d="M30.174,44.509h.612l.063.63h.027a2.062,2.062,0,0,1,1.467-.738c.919,0,1.333.594,1.333,1.711v2.772h-.738V46.21c0-.819-.252-1.17-.829-1.17-.45,0-.756.234-1.2.675v3.169h-.738Z"/><path d="M36.961,44.4a1.8,1.8,0,0,1,1.278.522l-.369.477a1.322,1.322,0,0,0-.882-.387c-.793,0-1.369.685-1.369,1.692s.55,1.675,1.351,1.675A1.56,1.56,0,0,0,38,47.939l.333.486a2.167,2.167,0,0,1-1.422.568,2.056,2.056,0,0,1-2.053-2.288A2.119,2.119,0,0,1,36.961,44.4Z"/><path d="M40.9,44.4c1.116,0,1.746.8,1.746,2.053a2.617,2.617,0,0,1-.027.405H39.664A1.456,1.456,0,0,0,41.122,48.4a1.977,1.977,0,0,0,1.09-.342l.261.486a2.6,2.6,0,0,1-1.441.451A2.315,2.315,0,0,1,40.9,44.4ZM42,46.372c0-.891-.4-1.386-1.081-1.386a1.366,1.366,0,0,0-1.26,1.386Z"/><path d="M45.405,43.131a.515.515,0,0,1,1.027,0,.515.515,0,0,1-1.027,0Zm.136,1.378h.738v4.375h-.738Z"/><path d="M47.754,44.509h.613l.063.63h.027a2.062,2.062,0,0,1,1.467-.738c.918,0,1.332.594,1.332,1.711v2.772h-.738V46.21c0-.819-.252-1.17-.828-1.17-.45,0-.756.234-1.2.675v3.169h-.739Z"/><path d="M55.233,49.253V50.73H54.5V44.509h.612l.063.5H55.2a2.266,2.266,0,0,1,1.4-.612c1.125,0,1.728.873,1.728,2.232,0,1.486-.891,2.36-1.89,2.36a2.032,2.032,0,0,1-1.216-.505Zm1.072-.882c.72,0,1.251-.657,1.251-1.738,0-.963-.324-1.611-1.152-1.611a1.844,1.844,0,0,0-1.171.595v2.3A1.733,1.733,0,0,0,56.305,48.371Z"/><path d="M61.251,44.4c1.117,0,1.747.8,1.747,2.053a2.617,2.617,0,0,1-.027.405H60.018A1.456,1.456,0,0,0,61.476,48.4a1.977,1.977,0,0,0,1.09-.342l.261.486a2.6,2.6,0,0,1-1.441.451,2.315,2.315,0,0,1-.135-4.592Zm1.1,1.971c0-.891-.4-1.386-1.081-1.386a1.366,1.366,0,0,0-1.26,1.386Z"/><path d="M64.18,44.509h.613l.063.792h.026a1.5,1.5,0,0,1,1.243-.9,1.086,1.086,0,0,1,.468.09l-.144.648a1.224,1.224,0,0,0-.423-.072c-.369,0-.811.27-1.107,1.009v2.808H64.18Z"/><path d="M69.151,44.4a1.8,1.8,0,0,1,1.279.522l-.369.477a1.322,1.322,0,0,0-.882-.387c-.793,0-1.369.685-1.369,1.692s.549,1.675,1.351,1.675a1.56,1.56,0,0,0,1.026-.441l.333.486a2.167,2.167,0,0,1-1.422.568,2.056,2.056,0,0,1-2.053-2.288A2.118,2.118,0,0,1,69.151,44.4Z"/><path d="M73.088,44.4c1.117,0,1.747.8,1.747,2.053a2.617,2.617,0,0,1-.027.405H71.855A1.456,1.456,0,0,0,73.313,48.4a1.971,1.971,0,0,0,1.089-.342l.262.486a2.6,2.6,0,0,1-1.441.451,2.315,2.315,0,0,1-.135-4.592Zm1.1,1.971c0-.891-.4-1.386-1.081-1.386a1.366,1.366,0,0,0-1.26,1.386Z"/><path d="M76.017,44.509h.612l.063.63h.027a2.064,2.064,0,0,1,1.468-.738c.918,0,1.332.594,1.332,1.711v2.772h-.738V46.21c0-.819-.252-1.17-.828-1.17-.45,0-.757.234-1.2.675v3.169h-.738Z"/><path d="M81.085,45.112h-.648v-.558l.684-.045.09-1.224h.621v1.224h1.179v.6H81.832v2.43c0,.541.171.847.675.847A1.589,1.589,0,0,0,83,48.272l.144.558a2.671,2.671,0,0,1-.81.163c-.937,0-1.251-.595-1.251-1.459Z"/><path d="M86.585,46.112c0-.559-.189-1.1-.9-1.1a2.353,2.353,0,0,0-1.3.468l-.3-.513A3.246,3.246,0,0,1,85.8,44.4c1.072,0,1.522.711,1.522,1.8v2.682h-.612l-.063-.522h-.019a2.376,2.376,0,0,1-1.449.631,1.194,1.194,0,0,1-1.287-1.244C83.893,46.8,84.721,46.319,86.585,46.112Zm-1.2,2.286a1.792,1.792,0,0,0,1.2-.585V46.6c-1.468.181-1.963.541-1.963,1.1A.67.67,0,0,0,85.387,48.4Z"/><path d="M89.043,48.731V48.7a.806.806,0,0,1-.388-.711,1.028,1.028,0,0,1,.477-.811v-.035A1.545,1.545,0,0,1,90.213,44.4a1.746,1.746,0,0,1,.621.108h1.522v.567h-.9a1.269,1.269,0,0,1,.361.9,1.5,1.5,0,0,1-1.6,1.521,1.524,1.524,0,0,1-.657-.152.659.659,0,0,0-.28.522c0,.279.181.477.775.477H90.9c1.017,0,1.53.316,1.53,1.044,0,.811-.855,1.513-2.214,1.513-1.071,0-1.81-.423-1.81-1.18A1.264,1.264,0,0,1,89.043,48.731Zm1.278,1.657c.837,0,1.386-.433,1.386-.892,0-.405-.315-.54-.882-.54h-.756a2.13,2.13,0,0,1-.567-.072.924.924,0,0,0-.451.738C89.051,50.09,89.528,50.388,90.321,50.388Zm.819-4.43a.931.931,0,1,0-1.854,0,.934.934,0,1,0,1.854,0Z"/><path d="M94.926,44.4c1.116,0,1.746.8,1.746,2.053a2.617,2.617,0,0,1-.027.405H93.692A1.456,1.456,0,0,0,95.15,48.4a1.977,1.977,0,0,0,1.09-.342l.261.486a2.6,2.6,0,0,1-1.44.451,2.314,2.314,0,0,1-.135-4.592Zm1.1,1.971c0-.891-.4-1.386-1.081-1.386a1.367,1.367,0,0,0-1.26,1.386Z"/><path d="M100.307,49.253V50.73h-.738V44.509h.612l.063.5h.027a2.264,2.264,0,0,1,1.4-.612c1.125,0,1.728.873,1.728,2.232,0,1.486-.891,2.36-1.891,2.36a2.03,2.03,0,0,1-1.215-.505Zm1.071-.882c.721,0,1.252-.657,1.252-1.738,0-.963-.324-1.611-1.152-1.611a1.84,1.84,0,0,0-1.171.595v2.3A1.731,1.731,0,0,0,101.378,48.371Z"/><path d="M106.388,44.4a2.314,2.314,0,1,1-2.026,2.3A2.09,2.09,0,0,1,106.388,44.4Zm0,3.979c.756,0,1.26-.676,1.26-1.675s-.5-1.692-1.26-1.692-1.261.685-1.261,1.692S105.64,48.38,106.388,48.38Z"/><path d="M109.469,43.131a.515.515,0,0,1,1.027,0,.515.515,0,0,1-1.027,0Zm.136,1.378h.738v4.375h-.738Z"/><path d="M111.818,44.509h.613l.063.63h.027a2.062,2.062,0,0,1,1.467-.738c.918,0,1.332.594,1.332,1.711v2.772h-.738V46.21c0-.819-.252-1.17-.828-1.17-.45,0-.756.234-1.2.675v3.169h-.739Z"/><path d="M116.886,45.112h-.648v-.558l.684-.045.09-1.224h.621v1.224h1.18v.6h-1.18v2.43c0,.541.172.847.676.847a1.589,1.589,0,0,0,.5-.117l.144.558a2.671,2.671,0,0,1-.81.163c-.937,0-1.252-.595-1.252-1.459Z"/><path d="M119.973,47.894a1.97,1.97,0,0,0,1.288.522c.576,0,.864-.306.864-.684,0-.45-.522-.649-1-.828-.622-.226-1.306-.523-1.306-1.261,0-.7.558-1.242,1.5-1.242a2.183,2.183,0,0,1,1.359.495l-.351.468a1.624,1.624,0,0,0-1-.387c-.549,0-.8.3-.8.63,0,.405.478.567.973.757.63.233,1.332.5,1.332,1.323,0,.711-.567,1.306-1.6,1.306a2.634,2.634,0,0,1-1.629-.6Z"/></g><path class="d" d="M258.067,78.187c5.185-5.328,7.681-8.208,7.681-10.944a3.238,3.238,0,0,0-3.5-3.553,4.9,4.9,0,0,0-3.7,2.064l-.528-.48a5.61,5.61,0,0,1,4.273-2.256,3.909,3.909,0,0,1,4.224,4.225c0,3.12-2.832,6.072-7.345,10.848.865-.048,1.728-.095,2.592-.095h5.521v.671h-9.217Z"/><path class="d" d="M269.237,70.939c0-5.089,1.681-7.921,4.7-7.921s4.7,2.832,4.7,7.921-1.68,8.016-4.7,8.016S269.237,76.027,269.237,70.939Zm8.641,0c0-4.753-1.536-7.249-3.936-7.249s-3.937,2.5-3.937,7.249,1.537,7.345,3.937,7.345S277.878,75.691,277.878,70.939Z"/><path class="d" d="M283.282,64.746h-2.737v-.528a8.52,8.52,0,0,0,2.833-.912H284V78.667h-.72Z"/><path class="d" d="M295.868,64.986a3.33,3.33,0,0,0-2.641-1.3c-2.52,0-4.728,2.04-4.752,7.945a5.327,5.327,0,0,1,3.984-2.184c2.688,0,4.224,1.679,4.224,4.752,0,2.736-1.872,4.752-4.08,4.752-3.072,0-4.9-2.64-4.9-7.2,0-6.529,2.64-8.737,5.568-8.737a3.922,3.922,0,0,1,3.072,1.44Zm.048,9.217c0-2.3-1.009-4.081-3.5-4.081a5.2,5.2,0,0,0-3.912,2.425c.168,3.336,1.44,5.737,4.152,5.737C294.523,78.284,295.916,76.459,295.916,74.2Z"/><path class="g" d="M0,274.081l304.364.317"/><g class="h"><path d="M308.909,277.6c1.527-1.527,2.375-2.447,2.375-3.27a.887.887,0,0,0-.951-1,1.489,1.489,0,0,0-1.088.615l-.384-.376a2.007,2.007,0,0,1,1.552-.775,1.4,1.4,0,0,1,1.51,1.5c0,.96-.863,1.911-2.046,3.175.271-.025.591-.048.855-.048h1.415v.567h-3.238Z"/><path d="M312.976,275.427c0-1.688.648-2.631,1.711-2.631s1.711.951,1.711,2.631-.647,2.662-1.711,2.662S312.976,277.105,312.976,275.427Zm2.759,0c0-1.472-.416-2.079-1.048-2.079s-1.047.607-1.047,2.079.415,2.119,1.047,2.119S315.735,276.9,315.735,275.427Z"/></g><path class="g" d="M0,242.4l304.364.316"/><g class="h"><path d="M311.3,242.013h-.935v-.424a3.026,3.026,0,0,0,1.088-.376h.5v5.1H311.3Z"/><path d="M313.383,245.283a1.74,1.74,0,0,0,1.288.584,1.1,1.1,0,0,0,1.12-1.168,1.025,1.025,0,0,0-1.088-1.119,1.425,1.425,0,0,0-.871.312l-.352-.224.168-2.455h2.55v.568h-1.975l-.136,1.511a1.57,1.57,0,0,1,.784-.208,1.469,1.469,0,0,1,1.583,1.6,1.667,1.667,0,0,1-1.719,1.726,2.24,2.24,0,0,1-1.671-.695Z"/></g><path class="g" d="M0,210.724l304.364.317"/><g class="h"><path d="M310.983,210.335h-.936v-.424a3.013,3.013,0,0,0,1.087-.376h.5v5.1h-.655Z"/><path d="M312.976,212.07c0-1.687.648-2.631,1.711-2.631s1.711.952,1.711,2.631-.647,2.662-1.711,2.662S312.976,213.749,312.976,212.07Zm2.758,0c0-1.471-.415-2.079-1.047-2.079s-1.048.608-1.048,2.079.416,2.119,1.048,2.119S315.734,213.541,315.734,212.07Z"/></g><path class="g" d="M0,179.046l304.364.317"/><g class="h"><path d="M313.384,181.927a1.739,1.739,0,0,0,1.287.584,1.1,1.1,0,0,0,1.12-1.168,1.025,1.025,0,0,0-1.087-1.119,1.435,1.435,0,0,0-.872.311l-.352-.224.168-2.455H316.2v.569h-1.975l-.137,1.51a1.582,1.582,0,0,1,.785-.208,1.47,1.47,0,0,1,1.583,1.6,1.668,1.668,0,0,1-1.719,1.727,2.239,2.239,0,0,1-1.672-.7Z"/></g><path class="i" d="M0,147.368l304.364.316"/><g class="h"><path d="M312.977,148.713c0-1.687.648-2.631,1.711-2.631s1.711.952,1.711,2.631-.647,2.662-1.711,2.662S312.977,150.392,312.977,148.713Zm2.758,0c0-1.471-.416-2.079-1.047-2.079s-1.048.608-1.048,2.079.416,2.119,1.048,2.119S315.735,150.184,315.735,148.713Z"/></g><path class="g" d="M0,115.689l304.364.317"/><g class="h"><path d="M313.384,118.57a1.736,1.736,0,0,0,1.287.584,1.1,1.1,0,0,0,1.12-1.168,1.025,1.025,0,0,0-1.087-1.119,1.43,1.43,0,0,0-.872.312l-.352-.224.168-2.455H316.2v.568h-1.975l-.137,1.511a1.571,1.571,0,0,1,.785-.208,1.469,1.469,0,0,1,1.583,1.6,1.668,1.668,0,0,1-1.719,1.726,2.243,2.243,0,0,1-1.672-.7Z"/></g><path class="g" d="M0,84.011l304.364.317"/><g class="h"><path d="M310.983,83.621h-.936V83.2a3.026,3.026,0,0,0,1.088-.376h.5v5.1h-.655Z"/><path d="M312.976,85.356c0-1.687.648-2.631,1.711-2.631s1.711.952,1.711,2.631-.647,2.662-1.711,2.662S312.976,87.035,312.976,85.356Zm2.759,0c0-1.471-.416-2.079-1.048-2.079s-1.047.608-1.047,2.079.415,2.119,1.047,2.119S315.735,86.827,315.735,85.356Z"/></g><path class="j" d="M0,133.112c111.182,0,196.972,75.4,304.364,75.4"/><path class="k" d="M0,121.708c111.182,0,196.972,93.134,304.364,93.134"/><path class="l" d="M0,121.708c111.182,0,196.972,91.234,304.364,91.234"/><path class="m" d="M0,110.937c111.182,0,196.783,99.47,304.364,99.47"/><path class="n" d="M0,136.914c111.182,0,196.783,84.264,304.364,84.264"/><path class="o" d="M0,107.136c111.182.557,196.972,67.158,304.364,67.158"/><path class="p" d="M0,135.013c111.182,0,196.676,53.853,304.364,53.853"/><path class="q" d="M0,126.777c111.182.633,196.523,93.767,304.364,93.767"/><path class="r" d="M0,104.6c111.182,0,196.972,106.439,304.364,106.439"/><path class="s" d="M0,145.784c111.182,0,196.972,104.538,304.364,104.538"/><path class="j" d="M0,119.174c111.182,0,196.972,67.158,304.364,67.158"/><path class="k" d="M0,114.105c111.182,0,196.972,72.227,304.364,72.227"/><path class="l" d="M0,128.677c111.182,0,196.972,68.426,304.364,68.426"/><path class="m" d="M0,127.41c111.182,0,196.783,54.487,304.364,54.487"/><path class="n" d="M0,107.136c111.182,0,196.972,134.316,304.364,134.316"/><path class="o" d="M0,180.63c111.182,0,196.972,53.853,304.364,53.853"/><path class="p" d="M0,124.242c111.182,0,196.972,69.059,304.364,69.059"/><path class="q" d="M0,102.068c111.182,0,197.043,91.867,304.364,91.867"/><path class="r" d="M0,132.479c111.182,0,196.783,64.624,304.364,64.624"/><path class="s" d="M0,122.975c111.182,0,196.972,96.936,304.364,96.936"/><path class="j" d="M0,88.129c111.182-.206,196.972,146.354,304.364,146.354"/><path class="k" d="M0,145.784c111.148,0,196.972,69.692,304.364,69.692"/><path class="l" d="M0,126.777c111.182,0,196.972,108.973,304.364,108.973"/><path class="m" d="M0,136.914c111.182,0,196.972,106.439,304.364,106.439"/><path class="n" d="M0,169.226c111.182,0,196.972,53.853,304.364,53.853"/><path class="t" d="M0,118.54C111.54,119.273,196.972,285.8,304.364,285.8"/><path class="e" d="M254.527,133.465h.7l1.519,4.258.571,1.606h.044l.561-1.606,1.507-4.258h.716v7.25h-.5v-4.763c0-.595.033-1.353.065-1.959h-.044l-.56,1.595-1.563,4.335h-.44l-1.562-4.335-.572-1.595h-.044c.022.606.055,1.364.055,1.959v4.763h-.462Z"/><path class="e" d="M264.119,135.3a2.807,2.807,0,1,1-2.366,2.783A2.486,2.486,0,0,1,264.119,135.3Zm0,5.115c1.067,0,1.87-.946,1.87-2.332s-.8-2.355-1.87-2.355-1.86.958-1.86,2.355S263.051,140.418,264.119,140.418Z"/><path class="e" d="M268.049,135.434h.419l.044.979h.033a1.812,1.812,0,0,1,1.5-1.11,1.085,1.085,0,0,1,.527.11l-.109.439a1.174,1.174,0,0,0-.485-.087c-.473,0-1.034.362-1.441,1.353v3.6h-.485Z"/><path class="e" d="M273.33,135.3c1.255,0,2.024.891,2.024,2.442a2.5,2.5,0,0,1-.021.4h-3.807a2.073,2.073,0,0,0,1.991,2.288,2.337,2.337,0,0,0,1.419-.473l.2.374a2.944,2.944,0,0,1-1.661.517,2.807,2.807,0,0,1-.143-5.544Zm1.562,2.464c0-1.354-.605-2.046-1.551-2.046a1.992,1.992,0,0,0-1.815,2.046Z"/><path class="e" d="M278.972,135.434h.419l.044.814h.032a2.419,2.419,0,0,1,1.661-.945,1.372,1.372,0,0,1,1.464,1.078,2.652,2.652,0,0,1,1.793-1.078c1.057,0,1.584.66,1.584,2.024v3.388h-.5v-3.322c0-1.123-.374-1.65-1.177-1.65a2.3,2.3,0,0,0-1.584.99v3.982h-.484v-3.322c0-1.123-.374-1.65-1.188-1.65a2.346,2.346,0,0,0-1.584.99v3.982h-.485Z"/><path class="e" d="M289.772,135.3c1.255,0,2.024.891,2.024,2.442a2.5,2.5,0,0,1-.021.4h-3.807a2.074,2.074,0,0,0,1.992,2.288,2.334,2.334,0,0,0,1.418-.473l.2.374a2.946,2.946,0,0,1-1.661.517,2.807,2.807,0,0,1-.144-5.544Zm1.563,2.464c0-1.354-.606-2.046-1.551-2.046a1.993,1.993,0,0,0-1.816,2.046Z"/><path class="e" d="M293.235,135.434h.419l.044.814h.032a2.578,2.578,0,0,1,1.815-.945c1.09,0,1.6.66,1.6,2.024v3.388h-.484v-3.322c0-1.123-.352-1.65-1.21-1.65-.627,0-1.078.33-1.728.99v3.982h-.484Z"/><path class="u" d="M241.189,155.422h.7l1.519,4.258.571,1.606h.044l.561-1.606,1.507-4.258h.716v7.25h-.5v-4.763c0-.595.033-1.353.065-1.959h-.044l-.56,1.595-1.563,4.335h-.44l-1.562-4.335-.572-1.595H241.6c.022.606.055,1.364.055,1.959v4.763h-.462Z"/><path class="u" d="M250.781,157.26a2.807,2.807,0,1,1-2.365,2.783A2.486,2.486,0,0,1,250.781,157.26Zm0,5.115c1.067,0,1.87-.946,1.87-2.332s-.8-2.355-1.87-2.355-1.86.958-1.86,2.355S249.713,162.375,250.781,162.375Z"/><path class="u" d="M254.712,157.392h.418l.044.979h.033a1.812,1.812,0,0,1,1.5-1.111,1.085,1.085,0,0,1,.527.11l-.109.439a1.174,1.174,0,0,0-.485-.087c-.473,0-1.034.362-1.441,1.353v3.6h-.484Z"/><path class="u" d="M259.992,157.26c1.255,0,2.024.891,2.024,2.442a2.5,2.5,0,0,1-.021.4h-3.807a2.073,2.073,0,0,0,1.991,2.288,2.334,2.334,0,0,0,1.419-.473l.2.374a2.944,2.944,0,0,1-1.661.517,2.807,2.807,0,0,1-.143-5.544Zm1.562,2.464c0-1.353-.6-2.046-1.551-2.046a1.992,1.992,0,0,0-1.815,2.046Z"/><path class="u" d="M264.886,157.392h.529l.946,3.421c.132.484.253.935.363,1.408h.044c.121-.473.253-.924.385-1.408l.957-3.421h.583l.957,3.421c.133.484.265.935.4,1.408h.044c.122-.473.253-.924.374-1.408l.936-3.421h.5l-1.518,5.28h-.638l-.925-3.278c-.154-.506-.253-.99-.407-1.507h-.044c-.121.517-.253,1.023-.418,1.529l-.913,3.256h-.583Z"/><path class="u" d="M275.042,157.26a2.807,2.807,0,1,1-2.366,2.783A2.486,2.486,0,0,1,275.042,157.26Zm0,5.115c1.067,0,1.87-.946,1.87-2.332s-.8-2.355-1.87-2.355-1.86.958-1.86,2.355S273.974,162.375,275.042,162.375Z"/><path class="u" d="M278.971,157.392h.419l.044.813h.032a2.42,2.42,0,0,1,1.662-.945,1.372,1.372,0,0,1,1.463,1.078,2.652,2.652,0,0,1,1.793-1.078c1.057,0,1.584.66,1.584,2.024v3.388h-.5V159.35c0-1.123-.374-1.65-1.177-1.65a2.3,2.3,0,0,0-1.584.99v3.982h-.484V159.35c0-1.123-.374-1.65-1.188-1.65a2.346,2.346,0,0,0-1.584.99v3.982h-.485Z"/><path class="u" d="M289.772,157.26c1.255,0,2.024.891,2.024,2.442a2.5,2.5,0,0,1-.021.4h-3.807a2.074,2.074,0,0,0,1.992,2.288,2.334,2.334,0,0,0,1.418-.473l.2.374a2.946,2.946,0,0,1-1.661.517,2.807,2.807,0,0,1-.144-5.544Zm1.563,2.464c0-1.353-.606-2.046-1.551-2.046a1.993,1.993,0,0,0-1.816,2.046Z"/><path class="u" d="M293.234,157.392h.419l.044.813h.032a2.579,2.579,0,0,1,1.816-.945c1.089,0,1.595.66,1.595,2.024v3.388h-.484V159.35c0-1.123-.352-1.65-1.21-1.65-.627,0-1.078.33-1.728.99v3.982h-.484Z"/></g></svg>