<svg xmlns="http://www.w3.org/2000/svg" viewBox="0 0 645 445"><defs><style>.a{isolation:isolate;}.b{fill:#009fe3;}.b,.c,.d,.e{mix-blend-mode:multiply;}.c{fill:#1d1d1b;}.d{fill:#ffed00;}.e{fill:#e6007e;}.f{fill:#a4a3b4;}.g{fill:#c9b1c4;}.h{fill:#c3a3bc;}.i{fill:#cea4bd;}.j{fill:#d7a5c1;}.k{fill:#c5a5bf;}.l{fill:#cfb1c5;}.m{fill:#ccaec2;}.n{fill:#a1a2b8;}.o{fill:#7993ac;}.p{fill:#86a6bb;}.q{fill:#93a1b3;}.r{fill:#7c98ac;}.s{fill:#718695;}.t{fill:#a89da9;}.u{fill:#7a97a7;}.v{fill:#237073;}.w{fill:#005751;}.x{fill:#8a8f8c;}.y{fill:#cca7b9;}.z{fill:#dab3c8;}.aa{fill:#e0abc1;}.ab{fill:#b69eb7;}.ac{fill:#9b9ab5;}.ad{fill:#8096b4;}.ae{fill:#6b94a3;}.af{fill:#729baf;}.ag{fill:#9ea5bd;}.ah{fill:#98929d;}.ai{fill:#557380;}.aj{fill:#6b8496;}.ak{fill:#747a86;}.al{fill:#7b7a79;}.am{fill:#778381;}.an{fill:#77776f;}.ao{fill:#676d68;}.ap{fill:#576e6e;}.aq{fill:#65776d;}.ar{fill:#435039;}.as{fill:#002316;}.at{fill:#5f675d;}.au{fill:#74654f;}.av{fill:#574e3a;}.aw{fill:#003227;}.ax{fill:#466c6d;}.ay{fill:#afa6b4;}.az{fill:#6b8fa4;}.ba{fill:#587d8d;}.bb{fill:#72808a;}.bc{fill:#9f92a5;}.bd{fill:#9590a1;}.be{fill:#396f7d;}.bf{fill:#005c68;}.bg{fill:#005b62;}.bh{fill:#006267;}.bi{fill:#84a1ab;}.bj{fill:#8f8596;}.bk{fill:#607e91;}.bl{fill:#306c7e;}.bm{fill:#4f7988;}.bn{fill:#538591;}.bo{fill:#065567;}.bp{fill:#636476;}.bq{fill:#6a707a;}.br{fill:#a0899f;}.bs{fill:#938ba3;}.bt{fill:#878194;}.bu{fill:#9f84a3;}.bv{fill:#6d7d96;}.bw{fill:#6b7285;}.bx{fill:#78878d;}.by{fill:#6c798e;}.bz{fill:#728191;}.ca{fill:#507684;}.cb{fill:#006373;}.cc{fill:#465e77;}.cd{fill:#6e5670;}.ce{fill:#987790;}.cf{fill:#8d8db2;}.cg{fill:#808fa4;}.ch{fill:#567790;}.ci{fill:#6b8ca9;}.cj{fill:#57759a;}.ck{fill:#68576f;}.cl{fill:#8d647f;}.cm{fill:#7f708b;}.cn{fill:#77728b;}.co{fill:#606079;}.cp{fill:#675c74;}.cq{fill:#9a7d91;}.cr{fill:#a5708b;}.cs{fill:#bf7e98;}.ct{fill:#6b6b83;}.cu{fill:#73718e;}.cv{fill:#8f80a3;}.cw{fill:#96a7c8;}.cx{fill:#bebcce;}.cy{fill:#b7a4c0;}.cz{fill:#d29fbb;}.da{fill:#cb9cb6;}.db{fill:#bb86a8;}.dc{fill:#b189a9;}.dd{fill:#ad90ad;}.de{fill:#a38cac;}.df{fill:#9691a5;}.dg{fill:#ad93a6;}.dh{fill:#948ba8;}.di{fill:#987f9a;}.dj{fill:#9f84a2;}.dk{fill:#a883a1;}.dl{fill:#b78faa;}.dm{fill:#d78ba8;}.dn{fill:#de92ae;}.do{fill:#b889a7;}.dp{fill:#c17a9f;}.dq{fill:#86789a;}.dr{fill:#826f90;}.ds{fill:#7f6687;}.dt{fill:#9a5d7e;}.du{fill:#c7698d;}.dv{fill:#a77a98;}.dw{fill:#cf779a;}.dx{fill:#be7b9d;}.dy{fill:#a47094;}.dz{fill:#a0658f;}.ea{fill:#c585aa;}.eb{fill:#cd8db1;}.ec{fill:#9a84aa;}.ed{fill:#9a769f;}.ee{fill:#9197b9;}.ef{fill:#8879a1;}.eg{fill:#956995;}.eh{fill:#b196b9;}.ei{fill:#c178a0;}.ej{fill:#986c98;}.ek{fill:#a56f96;}.el{fill:#c58bae;}.em{fill:#cb84a6;}.en{fill:#947fa0;}.eo{fill:#a16b90;}.ep{fill:#b17c9d;}.eq{fill:#ab7ca3;}.er{fill:#b784ab;}.es{fill:#908baa;}.et{fill:#7b5f86;}.eu{fill:#995180;}.ev{fill:#ae4f80;}.ew{fill:#a65780;}.ex{fill:#af5986;}.ey{fill:#83557f;}.ez{fill:#893f76;}.fa{fill:#aa648d;}.fb{fill:#a87c9c;}.fc{fill:#b57da1;}.fd{fill:#ba7fa2;}.fe{fill:#bf8fb1;}.ff{fill:#9c91b2;}.fg{fill:#938aa9;}.fh{fill:#9d7fa3;}.fi{fill:#b098b8;}.fj{fill:#c88fad;}.fk{fill:#c892b1;}.fl{fill:#cca2bc;}.fm{fill:#baa2bf;}.fn{fill:#c39cb9;}.fo{fill:#ae91b9;}.fp{fill:#914f82;}.fq{fill:#a84d7c;}.fr{fill:#c37c9e;}.fs{fill:#9c4d7d;}.ft{fill:#995b88;}.fu{fill:#a185a2;}.fv{fill:#9e7196;}.fw{fill:#bc81a1;}.fx{fill:#ba7699;}.fy{fill:#b36c92;}.fz{fill:#c88aac;}.ga{fill:#a49ab6;}.gb{fill:#a981a6;}.gc{fill:#705f8b;}.gd{fill:#733c68;}.ge{fill:#8a466d;}.gf{fill:#ba92ae;}.gg{fill:#a2a2bc;}.gh{fill:#a89bb8;}.gi{fill:#917b9e;}.gj{fill:#906a93;}.gk{fill:#85739f;}.gl{fill:#b27da1;}.gm{fill:#c887a7;}.gn{fill:#ba87a8;}.go{fill:#936f99;}.gp{fill:#b48ead;}.gq{fill:#bb98b3;}.gr{fill:#af89a9;}.gs{fill:#d599b2;}.gt{fill:#daaabd;}.gu{fill:#c495b0;}.gv{fill:#c991aa;}.gw{fill:#a67a9a;}.gx{fill:#b084a2;}.gy{fill:#b196b1;}.gz{fill:#c89ab4;}.ha{fill:#cd94ad;}.hb{fill:#bd87a4;}.hc{fill:#8c547f;}.hd{fill:#813c6d;}.he{fill:#844c7a;}.hf{fill:#7f2867;}.hg{fill:#a96b92;}.hh{fill:none;stroke:#000;stroke-linecap:round;stroke-linejoin:round;}</style></defs><title>Preview2</title><g class="a"><path d="M24,33.143l-.918-3.09H19.261l-.918,3.09H15.61l4.268-13.05h2.828l4.1,13.05ZM21.732,25.26l-.524-2.3c-.075.3-.393,1.647-.618,2.508-.243.936-.412,1.555-.693,2.415h2.546C22.35,27.6,21.938,26.159,21.732,25.26Z"/><path d="M29.41,22.471a1.546,1.546,0,0,1-1.535-1.554,1.566,1.566,0,0,1,1.572-1.554,1.53,1.53,0,0,1,1.516,1.554A1.55,1.55,0,0,1,29.41,22.471ZM28.155,33.143V23.725l2.509-.393v9.811Z"/><path d="M38.247,25.747a1.414,1.414,0,0,0-.73-.187,2,2,0,0,0-1.535.8v6.778H33.473v-6.4a8.686,8.686,0,0,0-.356-2.808l2.247-.6a3.071,3.071,0,0,1,.393,1.367A2.94,2.94,0,0,1,38,23.332a1.94,1.94,0,0,1,.936.206Z"/><path d="M55.716,35.352a2.623,2.623,0,0,1-1.16.225,4.56,4.56,0,0,1-2.4-.918,11.163,11.163,0,0,0-2.64-1.31,4.773,4.773,0,0,1-4.212-1.835,7.7,7.7,0,0,1-1.5-4.831c0-2.808,1.067-5.074,2.939-6.084a5.788,5.788,0,0,1,2.7-.637c3.464,0,5.6,2.527,5.6,6.609,0,2.827-1.011,4.943-2.564,5.972a7.821,7.821,0,0,1,1.16.656,3.252,3.252,0,0,0,1.61.543,8.359,8.359,0,0,0,1.161-.094ZM51.691,23.631a2.353,2.353,0,0,0-2.284-1.647,2.267,2.267,0,0,0-2.022,1.142,7.58,7.58,0,0,0-.656,3.557c0,2.247.375,3.651,1.161,4.213a2.592,2.592,0,0,0,1.554.449c1.816,0,2.584-1.385,2.584-4.7A10.42,10.42,0,0,0,51.691,23.631Z"/><path d="M63.506,33.405a2.2,2.2,0,0,1-.749-.936,3.582,3.582,0,0,1-2.528.917A2.887,2.887,0,0,1,57.4,31.832a5.727,5.727,0,0,1-.206-1.91V23.781l2.471-.468v6.16a3.779,3.779,0,0,0,.207,1.573,1,1,0,0,0,.879.449,1.858,1.858,0,0,0,1.555-.917V23.837l2.4-.5v7.32a2.786,2.786,0,0,0,.581,1.742Z"/><path d="M74.01,33.629a2.681,2.681,0,0,1-1.348-1.16,4.67,4.67,0,0,1-.58.5,3.313,3.313,0,0,1-1.929.525c-2.134,0-3.3-1.086-3.3-3,0-2.247,1.554-3.3,4.606-3.3.187,0,.356,0,.562.018v-.393c0-1.067-.206-1.423-1.124-1.423A5.281,5.281,0,0,0,68.131,26.5l-1.067-1.8a9.129,9.129,0,0,1,1.554-.786,6.473,6.473,0,0,1,2.621-.562c1.611,0,2.715.6,3.09,1.666a4.454,4.454,0,0,1,.168,1.722l-.056,3.221a2.053,2.053,0,0,0,.9,2.134Zm-2.134-4.68c-1.741,0-2.34.318-2.34,1.46a1.138,1.138,0,0,0,1.1,1.255,1.82,1.82,0,0,0,1.311-.656l.037-2.059Z"/><path d="M79.591,33.367a2.249,2.249,0,0,1-2.228-1.31,5.179,5.179,0,0,1-.225-2.153V22.751a24.614,24.614,0,0,0-.131-2.883l2.565-.58a14.224,14.224,0,0,1,.131,2.49v7.47c0,1.648.019,1.873.169,2.135a.574.574,0,0,0,.5.262.816.816,0,0,0,.281-.038l.43,1.5A4.19,4.19,0,0,1,79.591,33.367Z"/><path d="M83.841,22.471a1.547,1.547,0,0,1-1.535-1.554,1.567,1.567,0,0,1,1.573-1.554A1.531,1.531,0,0,1,85.4,20.917,1.55,1.55,0,0,1,83.841,22.471ZM82.587,33.143V23.725l2.509-.393v9.811Z"/><path d="M90.656,33.367a2.589,2.589,0,0,1-2.583-1.4,3.51,3.51,0,0,1-.169-1.479V25.279h-.955V23.557H87.9A16.537,16.537,0,0,1,88,21.291l2.546-.636a28.812,28.812,0,0,0-.149,2.9h2.246L92,25.279H90.4v4.812c0,1.217.224,1.535,1.085,1.535a3.281,3.281,0,0,0,.9-.187l.318,1.5A5.269,5.269,0,0,1,90.656,33.367Z"/><path d="M99.083,33.292c-.656,1.854-1.143,2.659-1.835,3.165a5.065,5.065,0,0,1-2.322.879l-.861-1.647a5.623,5.623,0,0,0,1.554-.637,2.89,2.89,0,0,0,.712-.786,5.779,5.779,0,0,0,.543-1.123h-.637l-3.164-9.436,2.565-.3,1.666,5.6.506,1.984c0-.056.187-1.067.3-1.535.075-.318.225-.88.374-1.329l1.442-4.568h2.64Z"/><path d="M114.492,33.629a2.681,2.681,0,0,1-1.348-1.16,4.67,4.67,0,0,1-.58.5,3.313,3.313,0,0,1-1.929.525c-2.134,0-3.3-1.086-3.3-3,0-2.247,1.554-3.3,4.606-3.3.187,0,.356,0,.562.018v-.393c0-1.067-.206-1.423-1.124-1.423a5.281,5.281,0,0,0-2.771,1.086l-1.067-1.8a9.129,9.129,0,0,1,1.554-.786,6.473,6.473,0,0,1,2.621-.562c1.611,0,2.715.6,3.09,1.666a4.454,4.454,0,0,1,.168,1.722l-.056,3.221a2.053,2.053,0,0,0,.9,2.134Zm-2.134-4.68c-1.741,0-2.34.318-2.34,1.46a1.137,1.137,0,0,0,1.1,1.255,1.82,1.82,0,0,0,1.311-.656l.037-2.059Z"/><path d="M120.522,33.367a2.592,2.592,0,0,1-2.584-1.4,3.531,3.531,0,0,1-.168-1.479V25.279h-.955V23.557h.955a16.714,16.714,0,0,1,.093-2.266l2.547-.636a28.513,28.513,0,0,0-.15,2.9h2.247l-.637,1.722h-1.61v4.812c0,1.217.225,1.535,1.086,1.535a3.288,3.288,0,0,0,.9-.187l.318,1.5A5.273,5.273,0,0,1,120.522,33.367Z"/><path d="M135.557,33.143h-8.125V31.308l4.793-7.92a13.739,13.739,0,0,1,.805-1.18,8.727,8.727,0,0,1-1.33.094h-4.006l.58-2.172h7.788v1.891l-4.83,8.145a7.714,7.714,0,0,1-.674.917c.15-.019.824-.075,1.292-.075h4.381Z"/><path d="M144.321,33.405a2.19,2.19,0,0,1-.749-.936,3.582,3.582,0,0,1-2.528.917,2.887,2.887,0,0,1-2.827-1.554,5.727,5.727,0,0,1-.206-1.91V23.781l2.471-.468v6.16a3.8,3.8,0,0,0,.206,1.573,1.007,1.007,0,0,0,.88.449,1.858,1.858,0,0,0,1.555-.917V23.837l2.4-.5v7.32a2.786,2.786,0,0,0,.581,1.742ZM139.734,22.7a1.45,1.45,0,0,1-1.423-1.441,1.471,1.471,0,0,1,1.46-1.442,1.434,1.434,0,0,1,1.4,1.442A1.454,1.454,0,0,1,139.734,22.7Zm4.044,0a1.45,1.45,0,0,1-1.423-1.441,1.471,1.471,0,0,1,1.46-1.442,1.434,1.434,0,0,1,1.4,1.442A1.454,1.454,0,0,1,143.778,22.7Z"/><path d="M152.915,25.747a1.414,1.414,0,0,0-.73-.187,2,2,0,0,0-1.535.8v6.778h-2.509v-6.4a8.686,8.686,0,0,0-.356-2.808l2.247-.6a3.071,3.071,0,0,1,.393,1.367,2.94,2.94,0,0,1,2.247-1.367,1.94,1.94,0,0,1,.936.206Z"/><path d="M155.931,22.471a1.546,1.546,0,0,1-1.535-1.554,1.566,1.566,0,0,1,1.572-1.554,1.53,1.53,0,0,1,1.516,1.554A1.55,1.55,0,0,1,155.931,22.471Zm-1.255,10.672V23.725l2.509-.393v9.811Z"/><path d="M165.947,32.768a4.485,4.485,0,0,1-2.34.6c-2.64,0-4.175-1.835-4.175-4.943a5.1,5.1,0,0,1,1.966-4.437,4.543,4.543,0,0,1,2.377-.711,4.09,4.09,0,0,1,1.854.431,4.254,4.254,0,0,1,.936.673l-1.217,1.648a2.414,2.414,0,0,0-1.516-.749c-1.124,0-1.629.974-1.629,3.221a4.1,4.1,0,0,0,.486,2.415,1.453,1.453,0,0,0,1.124.543,2.566,2.566,0,0,0,1.723-.787l.149-.131,1.142,1.517A3.96,3.96,0,0,1,165.947,32.768Z"/><path d="M174.112,33.143V26.7c0-.955-.262-1.31-.974-1.31a3.323,3.323,0,0,0-1.984.879v6.872h-2.547V22.059a10.165,10.165,0,0,0-.187-2.191l2.565-.6a12.842,12.842,0,0,1,.169,2.34v1.91c0,.3-.038.693-.038.805a4.2,4.2,0,0,1,2.715-1.03,2.481,2.481,0,0,1,2.49,1.367,4.5,4.5,0,0,1,.243,1.779v6.7Z"/><path d="M186.9,33.423a9.3,9.3,0,0,1-4.437-1.179l.974-2.041a7.375,7.375,0,0,0,3.576,1.048c1.5,0,2.284-.617,2.284-1.778,0-.843-.543-1.367-1.7-1.685l-1.441-.393a3.941,3.941,0,0,1-2.565-1.648,3.753,3.753,0,0,1-.543-1.984c0-2.378,1.91-4.026,4.662-4.026a7.633,7.633,0,0,1,4.343,1.311l-1.236,1.872a5.6,5.6,0,0,0-3.032-.992c-1.068,0-1.817.617-1.817,1.5,0,.674.356,1.011,1.442,1.31l1.573.431c2.134.58,3.295,1.947,3.295,3.875C192.274,31.682,190.14,33.423,186.9,33.423Z"/><path d="M197.087,33.367a2.592,2.592,0,0,1-2.584-1.4,3.531,3.531,0,0,1-.168-1.479V25.279h-.955V23.557h.955a16.537,16.537,0,0,1,.094-2.266l2.546-.636a28.513,28.513,0,0,0-.15,2.9h2.247l-.637,1.722h-1.61v4.812c0,1.217.225,1.535,1.086,1.535a3.288,3.288,0,0,0,.9-.187l.318,1.5A5.277,5.277,0,0,1,197.087,33.367Z"/><path d="M207.142,33.629a2.681,2.681,0,0,1-1.348-1.16,4.67,4.67,0,0,1-.58.5,3.313,3.313,0,0,1-1.929.525c-2.134,0-3.295-1.086-3.295-3,0-2.247,1.554-3.3,4.606-3.3.187,0,.356,0,.562.018v-.393c0-1.067-.206-1.423-1.124-1.423a5.281,5.281,0,0,0-2.771,1.086L200.2,24.7a9.129,9.129,0,0,1,1.554-.786,6.473,6.473,0,0,1,2.621-.562c1.61,0,2.715.6,3.089,1.666a4.448,4.448,0,0,1,.169,1.722l-.056,3.221a2.053,2.053,0,0,0,.9,2.134Zm-2.134-4.68c-1.741,0-2.341.318-2.341,1.46a1.138,1.138,0,0,0,1.1,1.255,1.82,1.82,0,0,0,1.311-.656l.037-2.059Z"/><path d="M220.211,33.143V26.814c0-1.142-.131-1.366-.786-1.366a2.854,2.854,0,0,0-1.666.8v6.89h-2.378V26.908c0-1.2-.169-1.479-.861-1.479a2.656,2.656,0,0,0-1.648.73v6.984h-2.453V26.458a4.942,4.942,0,0,0-.356-2.452l2.266-.618a2.433,2.433,0,0,1,.337.974,3.3,3.3,0,0,1,2.34-.974,2.6,2.6,0,0,1,1.948.786,3.235,3.235,0,0,1,.374.469,3.518,3.518,0,0,1,2.714-1.255,2.97,2.97,0,0,1,1.892.6c.543.468.711,1.03.711,2.341v6.815Z"/><path d="M232.4,32.263a3.415,3.415,0,0,1-2.565,1.086,4.022,4.022,0,0,1-2-.506,5.213,5.213,0,0,1,.037.786v3l-2.415.637V26.178a12.1,12.1,0,0,0-.15-2.415l2.228-.393a4.179,4.179,0,0,1,.169.9,3.21,3.21,0,0,1,2.359-.9,3.467,3.467,0,0,1,1.891.58c1.029.693,1.778,1.928,1.778,4.137C233.73,30.147,233.394,31.2,232.4,32.263Zm-1.648-6.048a1.154,1.154,0,0,0-1.2-.8,2.316,2.316,0,0,0-1.666.73V30.8a2.361,2.361,0,0,0,1.385.562c1.236,0,1.723-.843,1.723-3.033A6.783,6.783,0,0,0,230.753,26.215Z"/><path d="M240.491,21.422a2.107,2.107,0,0,0-1.03-.318.985.985,0,0,0-1.049,1.086v1.367h2.434l-.637,1.722h-1.778v7.864h-2.452V25.279h-.862V23.557h.918a9.838,9.838,0,0,1-.094-1.311,2.761,2.761,0,0,1,3.089-2.977,4.332,4.332,0,0,1,2.265.6Z"/><path d="M243.842,29.136v.075c0,1.479.731,2.321,2.022,2.321a3.746,3.746,0,0,0,2.434-.954l.974,1.5a5.5,5.5,0,0,1-3.613,1.33c-2.753,0-4.532-1.947-4.532-4.962a5.241,5.241,0,0,1,1.2-3.8,3.768,3.768,0,0,1,3.014-1.292,3.92,3.92,0,0,1,2.771,1.011c.88.9,1.273,2.19,1.273,4.194v.58Zm2.94-1.947a2.471,2.471,0,0,0-.3-1.442,1.214,1.214,0,0,0-1.1-.561c-.955,0-1.5.749-1.5,2.078V27.3h2.9Z"/><path d="M256.443,33.143V26.908c0-1.086-.187-1.4-.842-1.4a2.927,2.927,0,0,0-1.741.861v6.778h-2.509V26.2a6.9,6.9,0,0,0-.337-2.246l2.228-.637a2.455,2.455,0,0,1,.356,1.2,11.256,11.256,0,0,1,1.1-.712,3.956,3.956,0,0,1,1.723-.412,2.386,2.386,0,0,1,2.3,1.385,3.874,3.874,0,0,1,.187,1.367v7Z"/><path d="M268.034,32.581a3.172,3.172,0,0,1-2.1.749,2.653,2.653,0,0,1-2.135-.88,1.636,1.636,0,0,1-.262.693h-2.247a4.4,4.4,0,0,0,.244-2.041V22.228a10.211,10.211,0,0,0-.169-2.36l2.565-.6a12.977,12.977,0,0,1,.093,1.7v2.265a5.049,5.049,0,0,1-.056.843,2.63,2.63,0,0,1,2.041-.768c2.341,0,3.8,1.873,3.8,4.868A5.346,5.346,0,0,1,268.034,32.581Zm-1.18-5.973a1.372,1.372,0,0,0-1.366-1.216,1.923,1.923,0,0,0-1.423.767v4.419a1.977,1.977,0,0,0,1.4.617,1.172,1.172,0,0,0,1.217-.749,5.227,5.227,0,0,0,.281-2.209A6.857,6.857,0,0,0,266.854,26.608Z"/><path d="M278.464,33.629a2.672,2.672,0,0,1-1.348-1.16,4.67,4.67,0,0,1-.58.5,3.316,3.316,0,0,1-1.929.525c-2.134,0-3.3-1.086-3.3-3,0-2.247,1.554-3.3,4.6-3.3.188,0,.356,0,.562.018v-.393c0-1.067-.206-1.423-1.123-1.423a5.281,5.281,0,0,0-2.771,1.086l-1.067-1.8a9.092,9.092,0,0,1,1.554-.786,6.473,6.473,0,0,1,2.621-.562c1.61,0,2.715.6,3.089,1.666a4.448,4.448,0,0,1,.169,1.722L278.9,29.96a2.053,2.053,0,0,0,.9,2.134Zm-2.134-4.68c-1.742,0-2.341.318-2.341,1.46a1.138,1.138,0,0,0,1.105,1.255,1.816,1.816,0,0,0,1.31-.656l.038-2.059Z"/><path d="M287.7,32.768a4.486,4.486,0,0,1-2.341.6c-2.639,0-4.175-1.835-4.175-4.943a5.1,5.1,0,0,1,1.967-4.437,4.543,4.543,0,0,1,2.377-.711,4.083,4.083,0,0,1,1.853.431,4.231,4.231,0,0,1,.936.673L287.1,26.028a2.419,2.419,0,0,0-1.517-.749c-1.123,0-1.629.974-1.629,3.221a4.1,4.1,0,0,0,.487,2.415,1.452,1.452,0,0,0,1.124.543,2.564,2.564,0,0,0,1.722-.787l.15-.131,1.142,1.517A3.983,3.983,0,0,1,287.7,32.768Z"/><path d="M295.859,33.143V26.7c0-.955-.262-1.31-.974-1.31a3.323,3.323,0,0,0-1.984.879v6.872h-2.547V22.059a10.165,10.165,0,0,0-.187-2.191l2.565-.6a12.842,12.842,0,0,1,.169,2.34v1.91c0,.3-.038.693-.038.805a4.2,4.2,0,0,1,2.715-1.03,2.48,2.48,0,0,1,2.49,1.367,4.5,4.5,0,0,1,.244,1.779v6.7Z"/><path d="M304,33.442a8.511,8.511,0,0,1-3.875-1.1l.9-1.834a7,7,0,0,0,3.182,1.085,1.173,1.173,0,0,0,1.274-1.085c0-.655-.468-.993-1.48-1.18l-1.123-.206a3.374,3.374,0,0,1-1.759-.973,2.9,2.9,0,0,1-.543-1.723c0-1.872,1.479-3.127,3.707-3.127a7.207,7.207,0,0,1,3.426.9l-.824,1.685a5.078,5.078,0,0,0-2.359-.692c-.73,0-1.217.374-1.217.936,0,.486.318.749,1.2.973l1.161.3a2.985,2.985,0,0,1,1.91,1.085,2.538,2.538,0,0,1,.524,1.629C308.105,32.094,306.457,33.442,304,33.442Z"/><path d="M312.824,33.367a2.589,2.589,0,0,1-2.583-1.4,3.51,3.51,0,0,1-.169-1.479V25.279h-.955V23.557h.955a16.537,16.537,0,0,1,.094-2.266l2.546-.636a28.8,28.8,0,0,0-.15,2.9h2.247l-.637,1.722h-1.61v4.812c0,1.217.225,1.535,1.086,1.535a3.281,3.281,0,0,0,.9-.187l.318,1.5A5.273,5.273,0,0,1,312.824,33.367Z"/><path d="M321.231,25.747a1.414,1.414,0,0,0-.73-.187,2,2,0,0,0-1.535.8v6.778h-2.509v-6.4a8.686,8.686,0,0,0-.356-2.808l2.247-.6a3.071,3.071,0,0,1,.393,1.367,2.94,2.94,0,0,1,2.247-1.367,1.94,1.94,0,0,1,.936.206Z"/><path d="M329.451,33.629a2.681,2.681,0,0,1-1.348-1.16,4.67,4.67,0,0,1-.58.5,3.313,3.313,0,0,1-1.929.525c-2.134,0-3.3-1.086-3.3-3,0-2.247,1.554-3.3,4.606-3.3.187,0,.356,0,.562.018v-.393c0-1.067-.206-1.423-1.124-1.423a5.281,5.281,0,0,0-2.771,1.086l-1.067-1.8a9.129,9.129,0,0,1,1.554-.786,6.473,6.473,0,0,1,2.621-.562c1.611,0,2.715.6,3.09,1.666a4.454,4.454,0,0,1,.168,1.722l-.056,3.221a2.053,2.053,0,0,0,.9,2.134Zm-2.134-4.68c-1.741,0-2.34.318-2.34,1.46a1.137,1.137,0,0,0,1.1,1.255,1.82,1.82,0,0,0,1.311-.656l.037-2.059Z"/><path d="M335.574,33.442a8.511,8.511,0,0,1-3.875-1.1l.9-1.834a7,7,0,0,0,3.182,1.085,1.173,1.173,0,0,0,1.274-1.085c0-.655-.469-.993-1.48-1.18l-1.123-.206a3.377,3.377,0,0,1-1.76-.973,2.906,2.906,0,0,1-.543-1.723c0-1.872,1.479-3.127,3.707-3.127a7.211,7.211,0,0,1,3.427.9l-.824,1.685a5.078,5.078,0,0,0-2.359-.692c-.73,0-1.217.374-1.217.936,0,.486.318.749,1.2.973l1.161.3a2.985,2.985,0,0,1,1.909,1.085,2.539,2.539,0,0,1,.525,1.629C339.675,32.094,338.027,33.442,335.574,33.442Z"/><path d="M344.581,33.442a8.511,8.511,0,0,1-3.875-1.1l.9-1.834a7,7,0,0,0,3.183,1.085,1.173,1.173,0,0,0,1.274-1.085c0-.655-.469-.993-1.48-1.18l-1.123-.206a3.377,3.377,0,0,1-1.76-.973,2.906,2.906,0,0,1-.543-1.723c0-1.872,1.479-3.127,3.707-3.127a7.214,7.214,0,0,1,3.427.9l-.825,1.685a5.071,5.071,0,0,0-2.359-.692c-.73,0-1.216.374-1.216.936,0,.486.318.749,1.2.973l1.161.3a2.985,2.985,0,0,1,1.909,1.085,2.539,2.539,0,0,1,.525,1.629C348.682,32.094,347.034,33.442,344.581,33.442Z"/><path d="M352.9,29.136v.075c0,1.479.73,2.321,2.022,2.321a3.75,3.75,0,0,0,2.434-.954l.974,1.5a5.5,5.5,0,0,1-3.614,1.33c-2.752,0-4.531-1.947-4.531-4.962a5.245,5.245,0,0,1,1.2-3.8,3.771,3.771,0,0,1,3.015-1.292,3.92,3.92,0,0,1,2.771,1.011c.88.9,1.273,2.19,1.273,4.194v.58Zm2.939-1.947a2.471,2.471,0,0,0-.3-1.442,1.214,1.214,0,0,0-1.1-.561c-.955,0-1.5.749-1.5,2.078V27.3h2.9Z"/><circle class="b" cx="106.5" cy="90.5" r="18.5"/><circle class="c" cx="106.5" cy="126.5" r="18.5"/><circle class="d" cx="123.5" cy="107.5" r="18.5"/><circle class="e" cx="86.5" cy="107.5" r="18.5"/><path d="M73.721,155.815a4.327,4.327,0,0,1-2.085.345H70.481V160h-2.1V149.575h2.745a5.11,5.11,0,0,1,2.895.51,2.93,2.93,0,0,1,1.5,2.7A3.2,3.2,0,0,1,73.721,155.815Zm-1.905-4.544H70.481v3.179h1.095c.855,0,1.11-.1,1.4-.54a1.858,1.858,0,0,0,.255-1.08A1.368,1.368,0,0,0,71.816,151.271Z"/><path d="M82.016,160.39a2.141,2.141,0,0,1-1.079-.93,3.816,3.816,0,0,1-.466.405,2.654,2.654,0,0,1-1.545.42c-1.71,0-2.639-.87-2.639-2.4,0-1.8,1.244-2.64,3.69-2.64.149,0,.284,0,.449.015v-.315c0-.855-.165-1.14-.9-1.14a4.226,4.226,0,0,0-2.219.87l-.855-1.44a7.34,7.34,0,0,1,1.244-.63,5.215,5.215,0,0,1,2.1-.45,2.359,2.359,0,0,1,2.475,1.335,3.554,3.554,0,0,1,.135,1.38l-.045,2.58a1.645,1.645,0,0,0,.72,1.71Zm-1.71-3.75c-1.394,0-1.874.255-1.874,1.17a.911.911,0,0,0,.884,1,1.456,1.456,0,0,0,1.05-.525l.03-1.65Z"/><path d="M88.466,154.075a1.134,1.134,0,0,0-.585-.15,1.6,1.6,0,0,0-1.23.645V160h-2.01v-5.13a6.961,6.961,0,0,0-.285-2.25l1.8-.48a2.468,2.468,0,0,1,.315,1.1,2.354,2.354,0,0,1,1.8-1.1,1.55,1.55,0,0,1,.75.165Z"/><path d="M92.426,160.18a2.076,2.076,0,0,1-2.07-1.125,2.817,2.817,0,0,1-.135-1.185V153.7h-.765v-1.38h.765a13.3,13.3,0,0,1,.075-1.815l2.04-.509a22.92,22.92,0,0,0-.12,2.324h1.8l-.51,1.38h-1.29v3.855c0,.975.18,1.23.87,1.23a2.631,2.631,0,0,0,.72-.15l.255,1.2A4.216,4.216,0,0,1,92.426,160.18Z"/><path d="M96.491,151.45a1.238,1.238,0,0,1-1.23-1.244,1.256,1.256,0,0,1,1.26-1.246,1.227,1.227,0,0,1,1.215,1.246A1.241,1.241,0,0,1,96.491,151.45Zm-1,8.55v-7.545l2.01-.315V160Z"/><path d="M104.516,159.7a3.592,3.592,0,0,1-1.875.48c-2.115,0-3.345-1.47-3.345-3.96a4.082,4.082,0,0,1,1.575-3.554,3.63,3.63,0,0,1,1.905-.571,3.278,3.278,0,0,1,1.485.345,3.405,3.405,0,0,1,.75.54l-.975,1.32a1.936,1.936,0,0,0-1.215-.6c-.9,0-1.3.78-1.3,2.58a3.285,3.285,0,0,0,.39,1.935,1.16,1.16,0,0,0,.9.435,2.054,2.054,0,0,0,1.38-.63l.12-.105.915,1.215A3.172,3.172,0,0,1,104.516,159.7Z"/><path d="M111.626,160.21a1.76,1.76,0,0,1-.6-.75A2.868,2.868,0,0,1,109,160.2a2.313,2.313,0,0,1-2.265-1.245,4.592,4.592,0,0,1-.165-1.53V152.5l1.98-.375v4.935a3.03,3.03,0,0,0,.165,1.26.806.806,0,0,0,.705.36,1.488,1.488,0,0,0,1.245-.735v-5.4l1.92-.405v5.865a2.226,2.226,0,0,0,.465,1.4Z"/><path d="M116.726,160.18a1.8,1.8,0,0,1-1.785-1.05,4.163,4.163,0,0,1-.18-1.725v-5.73a19.789,19.789,0,0,0-.1-2.31l2.055-.465a11.435,11.435,0,0,1,.105,2v5.984c0,1.32.015,1.5.135,1.71a.46.46,0,0,0,.405.21.663.663,0,0,0,.225-.03l.345,1.2A3.354,3.354,0,0,1,116.726,160.18Z"/><path d="M124.3,160.39a2.145,2.145,0,0,1-1.079-.93,3.816,3.816,0,0,1-.466.405,2.654,2.654,0,0,1-1.545.42c-1.71,0-2.639-.87-2.639-2.4,0-1.8,1.244-2.64,3.69-2.64.15,0,.284,0,.449.015v-.315c0-.855-.165-1.14-.9-1.14a4.231,4.231,0,0,0-2.22.87l-.855-1.44a7.378,7.378,0,0,1,1.244-.63,5.216,5.216,0,0,1,2.1-.45,2.359,2.359,0,0,1,2.475,1.335,3.54,3.54,0,0,1,.134,1.38l-.044,2.58a1.643,1.643,0,0,0,.719,1.71Zm-1.71-3.75c-1.394,0-1.874.255-1.874,1.17a.911.911,0,0,0,.885,1,1.452,1.452,0,0,0,1.049-.525l.031-1.65Z"/><path d="M129.131,160.18a2.076,2.076,0,0,1-2.07-1.125,2.817,2.817,0,0,1-.135-1.185V153.7h-.765v-1.38h.765a13.3,13.3,0,0,1,.075-1.815l2.04-.509a22.92,22.92,0,0,0-.12,2.324h1.8l-.511,1.38h-1.289v3.855c0,.975.18,1.23.87,1.23a2.638,2.638,0,0,0,.72-.15l.255,1.2A4.216,4.216,0,0,1,129.131,160.18Z"/><path d="M133.721,156.79v.06c0,1.185.585,1.86,1.62,1.86a3,3,0,0,0,1.95-.765l.78,1.2a4.407,4.407,0,0,1-2.9,1.065c-2.2,0-3.63-1.56-3.63-3.975a4.2,4.2,0,0,1,.96-3.045,3.02,3.02,0,0,1,2.415-1.035,3.142,3.142,0,0,1,2.22.81,4.51,4.51,0,0,1,1.02,3.36v.465Zm2.355-1.56a1.979,1.979,0,0,0-.24-1.155.973.973,0,0,0-.885-.45c-.765,0-1.2.6-1.2,1.665v.03h2.325Z"/><path d="M142.09,160.24a6.823,6.823,0,0,1-3.1-.885l.72-1.47a5.61,5.61,0,0,0,2.549.87.94.94,0,0,0,1.02-.87c0-.525-.375-.795-1.185-.945l-.9-.165a2.711,2.711,0,0,1-1.409-.78,2.327,2.327,0,0,1-.435-1.38c0-1.5,1.185-2.5,2.969-2.5a5.776,5.776,0,0,1,2.746.72l-.661,1.35a4.058,4.058,0,0,0-1.89-.555c-.585,0-.974.3-.974.75,0,.39.255.6.96.78l.929.24a2.392,2.392,0,0,1,1.531.87,2.038,2.038,0,0,1,.419,1.305C145.375,159.16,144.056,160.24,142.09,160.24Z"/><path d="M153.856,113.37a7.466,7.466,0,0,1-3.555-.945l.781-1.635a5.906,5.906,0,0,0,2.864.839c1.2,0,1.83-.494,1.83-1.424,0-.675-.435-1.095-1.365-1.351l-1.155-.314a3.158,3.158,0,0,1-2.055-1.32,3.02,3.02,0,0,1-.435-1.59c0-1.905,1.53-3.225,3.735-3.225a6.117,6.117,0,0,1,3.48,1.05l-.99,1.5a4.494,4.494,0,0,0-2.43-.8c-.855,0-1.455.5-1.455,1.2,0,.54.285.81,1.155,1.05l1.26.345a3.135,3.135,0,0,1,2.64,3.105C158.161,111.975,156.451,113.37,153.856,113.37Z"/><path d="M164.716,113.354a1.76,1.76,0,0,1-.6-.75,2.868,2.868,0,0,1-2.025.735,2.312,2.312,0,0,1-2.265-1.244,4.6,4.6,0,0,1-.165-1.531v-4.919l1.98-.375v4.935a3.033,3.033,0,0,0,.165,1.26.806.806,0,0,0,.7.36,1.488,1.488,0,0,0,1.245-.735v-5.4l1.92-.405v5.864a2.228,2.228,0,0,0,.465,1.395Z"/><path d="M169.816,113.325a1.8,1.8,0,0,1-1.784-1.051,4.136,4.136,0,0,1-.18-1.724v-5.73a20.013,20.013,0,0,0-.1-2.31l2.054-.465a11.429,11.429,0,0,1,.105,2v5.984c0,1.321.015,1.5.136,1.71a.455.455,0,0,0,.4.21.685.685,0,0,0,.225-.029l.346,1.2A3.364,3.364,0,0,1,169.816,113.325Z"/><path d="M177.781,112.439a2.733,2.733,0,0,1-2.055.871,3.213,3.213,0,0,1-1.6-.406,4.139,4.139,0,0,1,.03.631v2.4l-1.935.509v-8.879a9.7,9.7,0,0,0-.12-1.935l1.785-.315a3.351,3.351,0,0,1,.135.72,2.573,2.573,0,0,1,1.89-.72,2.778,2.778,0,0,1,1.515.465,3.656,3.656,0,0,1,1.425,3.315A4.252,4.252,0,0,1,177.781,112.439Zm-1.32-4.844a.925.925,0,0,0-.96-.645,1.855,1.855,0,0,0-1.335.585v3.735a1.892,1.892,0,0,0,1.11.45c.99,0,1.38-.676,1.38-2.43A5.446,5.446,0,0,0,176.461,107.6Z"/><path d="M184.981,113.145v-5.16c0-.765-.21-1.05-.78-1.05a2.662,2.662,0,0,0-1.59.7v5.5h-2.04v-8.88a8.117,8.117,0,0,0-.15-1.755l2.055-.48a10.345,10.345,0,0,1,.135,1.875v1.53c0,.24-.03.555-.03.645a3.363,3.363,0,0,1,2.175-.825,1.987,1.987,0,0,1,2,1.095,3.6,3.6,0,0,1,.195,1.425v5.37Z"/><path d="M194.176,113.354a1.76,1.76,0,0,1-.6-.75,2.868,2.868,0,0,1-2.025.735,2.312,2.312,0,0,1-2.265-1.244,4.6,4.6,0,0,1-.165-1.531v-4.919l1.98-.375v4.935a3.033,3.033,0,0,0,.165,1.26.806.806,0,0,0,.705.36,1.488,1.488,0,0,0,1.245-.735v-5.4l1.92-.405v5.864a2.228,2.228,0,0,0,.465,1.395Z"/><path d="M201.061,107.22a1.134,1.134,0,0,0-.585-.15,1.6,1.6,0,0,0-1.23.645v5.43h-2.01v-5.13a6.961,6.961,0,0,0-.285-2.25l1.8-.48a2.468,2.468,0,0,1,.315,1.095,2.354,2.354,0,0,1,1.8-1.095,1.55,1.55,0,0,1,.75.165Z"/><path d="M212.536,111.584a3.568,3.568,0,0,1-2.536,1.5c-.389.031-.884.061-1.5.061h-2.534V102.72h2.1c.6,0,1.394.03,1.815.06a3.536,3.536,0,0,1,2.28,1.035,5.5,5.5,0,0,1,1.424,4.155A5.963,5.963,0,0,1,212.536,111.584Zm-1.83-6.344a1.725,1.725,0,0,0-1.65-.87h-.96v7.065h1.125c1.38,0,2.009-1.065,2.009-3.27A5.853,5.853,0,0,0,210.706,105.24Z"/><path d="M216.391,104.6a1.239,1.239,0,0,1-1.23-1.245,1.254,1.254,0,0,1,1.26-1.245,1.226,1.226,0,0,1,1.215,1.245A1.242,1.242,0,0,1,216.391,104.6Zm-1,8.55V105.6l2.01-.315v7.86Z"/><path d="M225.106,112.245a3.14,3.14,0,0,1-2.535,1.065c-2.085,0-3.45-1.56-3.45-3.976s1.38-4.019,3.45-4.019a3.219,3.219,0,0,1,2.61,1.155,3.99,3.99,0,0,1,.885,2.805A4.168,4.168,0,0,1,225.106,112.245Zm-1.635-5.04a1.1,1.1,0,0,0-1.905.375,7.275,7.275,0,0,0,.045,3.645,1.111,1.111,0,0,0,1.02.629c.87,0,1.245-.779,1.245-2.594A3.57,3.57,0,0,0,223.471,107.205Z"/><path d="M231.616,113.145l-.81-1.411c-.136-.239-.54-1.034-.6-1.139a10.026,10.026,0,0,1-.766,1.485l-.645,1.065h-2.579l2.835-4.095-2.13-3.225,2.085-.585a18.241,18.241,0,0,1,1.035,1.875l.24.51c.045-.12.27-.66.675-1.5a6.989,6.989,0,0,1,.359-.66h2.371l-2.281,3.54,2.761,4.14Z"/><path d="M236,104.6a1.239,1.239,0,0,1-1.23-1.245,1.254,1.254,0,0,1,1.259-1.245,1.226,1.226,0,0,1,1.216,1.245A1.242,1.242,0,0,1,236,104.6Zm-1,8.55V105.6l2.009-.315v7.86Z"/><path d="M243.871,113.145a1.387,1.387,0,0,1-.12-.451,2.577,2.577,0,0,1-1.77.645c-1.95,0-3.18-1.514-3.18-3.9s1.335-4.049,3.285-4.049a2.07,2.07,0,0,1,1.365.435,9.341,9.341,0,0,1-.06-1.14v-2.64l2,.315v7.98a7.5,7.5,0,0,0,.285,2.8Zm-.45-5.655a1.676,1.676,0,0,0-1.095-.495c-.9,0-1.29.75-1.29,2.46,0,1.649.345,2.19,1.4,2.19a1.434,1.434,0,0,0,.99-.5Z"/><path d="M249.361,109.935V110c0,1.185.585,1.859,1.619,1.859a3.005,3.005,0,0,0,1.951-.764l.779,1.2a4.4,4.4,0,0,1-2.9,1.064c-2.2,0-3.629-1.56-3.629-3.974a4.2,4.2,0,0,1,.96-3.045,3.02,3.02,0,0,1,2.415-1.035,3.14,3.14,0,0,1,2.219.81,4.51,4.51,0,0,1,1.02,3.36v.465Zm2.354-1.56a1.98,1.98,0,0,0-.239-1.155.973.973,0,0,0-.885-.45c-.765,0-1.2.6-1.2,1.665v.03h2.324Z"/><path d="M22.623,113.2a3.974,3.974,0,0,1-2.085.48,3.836,3.836,0,0,1-3.39-1.47,6.175,6.175,0,0,1-1.2-3.87c0-2.25.855-4.05,2.355-4.875a4.648,4.648,0,0,1,2.16-.51c2.775,0,4.485,2.025,4.485,5.3C24.948,110.608,24.138,112.378,22.623,113.2Zm-.36-7.305a1.886,1.886,0,0,0-1.83-1.319,1.816,1.816,0,0,0-1.62.914,6.069,6.069,0,0,0-.525,2.85c0,1.8.3,2.925.93,3.375a2.072,2.072,0,0,0,1.245.36c1.455,0,2.07-1.11,2.07-3.765A8.358,8.358,0,0,0,22.263,105.9Z"/><path d="M31.8,113.518H26.148v-1.245l3.615-5.024H26.448v-1.411h5.7v1.38l-3.39,4.905h3.525Z"/><path d="M39.243,112.618a3.137,3.137,0,0,1-2.535,1.065c-2.085,0-3.45-1.56-3.45-3.975s1.38-4.02,3.45-4.02a3.219,3.219,0,0,1,2.61,1.155,3.99,3.99,0,0,1,.885,2.8A4.168,4.168,0,0,1,39.243,112.618Zm-1.635-5.04a1.1,1.1,0,0,0-1.9.375,7.275,7.275,0,0,0,.045,3.645,1.111,1.111,0,0,0,1.02.63c.87,0,1.245-.78,1.245-2.595A3.57,3.57,0,0,0,37.608,107.578Z"/><path d="M46.008,113.518v-5c0-.87-.15-1.125-.675-1.125a2.344,2.344,0,0,0-1.395.69v5.43h-2.01v-5.565a5.542,5.542,0,0,0-.27-1.8l1.785-.509a1.964,1.964,0,0,1,.285.96,8.923,8.923,0,0,1,.885-.571,3.165,3.165,0,0,1,1.38-.329,1.91,1.91,0,0,1,1.845,1.109,3.1,3.1,0,0,1,.15,1.095v5.61Z"/><path d="M51.963,110.308v.06c0,1.185.585,1.86,1.62,1.86a3.006,3.006,0,0,0,1.95-.765l.779,1.2a4.4,4.4,0,0,1-2.895,1.065c-2.2,0-3.629-1.56-3.629-3.975a4.2,4.2,0,0,1,.96-3.045,3.02,3.02,0,0,1,2.415-1.035,3.14,3.14,0,0,1,2.219.81,4.51,4.51,0,0,1,1.02,3.36v.465Zm2.354-1.56a1.98,1.98,0,0,0-.239-1.155.973.973,0,0,0-.886-.449c-.764,0-1.2.6-1.2,1.664v.03h2.324Z"/><path d="M58.061,64.37l-1.785-3.99c-.585-1.3-1.215-2.775-1.41-3.42.075.855.09,2.085.1,2.955l.06,4.455H53.006V53.945h2.325l1.995,4.17a20.152,20.152,0,0,1,1.14,2.955c-.075-.81-.15-2.145-.165-2.865l-.045-4.26h1.995V64.37Z"/><path d="M63.506,55.82a1.239,1.239,0,0,1-1.23-1.245,1.255,1.255,0,0,1,1.26-1.245,1.226,1.226,0,0,1,1.215,1.245A1.242,1.242,0,0,1,63.506,55.82ZM62.5,64.37V56.825l2.01-.315v7.86Z"/><path d="M68.966,64.55a2.076,2.076,0,0,1-2.07-1.125,2.817,2.817,0,0,1-.135-1.185V58.07H66V56.69h.765a13.3,13.3,0,0,1,.075-1.815l2.04-.51a22.94,22.94,0,0,0-.12,2.325h1.8l-.51,1.38h-1.29v3.855c0,.975.18,1.23.87,1.23a2.631,2.631,0,0,0,.72-.15l.255,1.2A4.216,4.216,0,0,1,68.966,64.55Z"/><path d="M75.7,58.445a1.134,1.134,0,0,0-.585-.15,1.6,1.6,0,0,0-1.23.645v5.43h-2.01V59.24a6.961,6.961,0,0,0-.285-2.25l1.8-.48a2.494,2.494,0,0,1,.315,1.095,2.351,2.351,0,0,1,1.8-1.095,1.55,1.55,0,0,1,.75.165Z"/><path d="M82.436,63.47A3.137,3.137,0,0,1,79.9,64.535c-2.085,0-3.45-1.56-3.45-3.975s1.38-4.02,3.45-4.02a3.219,3.219,0,0,1,2.61,1.155A3.99,3.99,0,0,1,83.4,60.5,4.168,4.168,0,0,1,82.436,63.47ZM80.8,58.43a1.1,1.1,0,0,0-1.905.375,7.275,7.275,0,0,0,.045,3.645,1.111,1.111,0,0,0,1.02.63c.87,0,1.245-.78,1.245-2.595A3.57,3.57,0,0,0,80.8,58.43Z"/><path d="M91.316,58.1a4.292,4.292,0,0,1-.525-.045,1.854,1.854,0,0,1,.45,1.26c0,1.32-1.2,2.28-2.835,2.28a2.454,2.454,0,0,1-.3-.015c-.51.24-.795.42-.795.63,0,.1.12.18.33.18l1.08.015a3.127,3.127,0,0,1,2.325.69,2.093,2.093,0,0,1,.66,1.634,2.18,2.18,0,0,1-.615,1.59,4.136,4.136,0,0,1-3.03.991,4.3,4.3,0,0,1-2.91-.826,1.8,1.8,0,0,1-.63-1.364,1.539,1.539,0,0,1,.18-.78h1.86a1.078,1.078,0,0,0-.09.494c0,.616.51.946,1.44.946a2.412,2.412,0,0,0,1.26-.256.931.931,0,0,0,.495-.779c0-.69-.615-.9-1.41-.915l-.855-.016a5.444,5.444,0,0,1-1.845-.239.977.977,0,0,1-.585-1.005c0-.495.15-.96,1.41-1.29a1.99,1.99,0,0,1-1.65-2.13c0-1.575,1.275-2.595,3.24-2.595a5.531,5.531,0,0,1,1.38.2,4.02,4.02,0,0,0,.945.165,2.415,2.415,0,0,0,1.59-.66l.84,1.275A1.912,1.912,0,0,1,91.316,58.1Zm-3.36-.075a1.067,1.067,0,0,0-1.2,1.14c0,.78.48,1.095,1.185,1.095.8,0,1.23-.39,1.23-1.095A1.079,1.079,0,0,0,87.956,58.025Z"/><path d="M95.141,61.16v.06c0,1.185.585,1.86,1.62,1.86a3,3,0,0,0,1.95-.765l.78,1.2A4.407,4.407,0,0,1,96.6,64.58c-2.2,0-3.63-1.56-3.63-3.975a4.2,4.2,0,0,1,.96-3.045,3.02,3.02,0,0,1,2.415-1.035,3.142,3.142,0,0,1,2.22.81,4.51,4.51,0,0,1,1.02,3.36v.465ZM97.5,59.6a1.979,1.979,0,0,0-.24-1.155.973.973,0,0,0-.885-.45c-.765,0-1.2.6-1.2,1.665v.03H97.5Z"/><path d="M105.235,64.37v-5c0-.87-.15-1.125-.674-1.125a2.344,2.344,0,0,0-1.4.69v5.43h-2.01V58.805a5.538,5.538,0,0,0-.27-1.8l1.785-.51a1.967,1.967,0,0,1,.285.96,8.915,8.915,0,0,1,.885-.57,3.166,3.166,0,0,1,1.38-.33,1.908,1.908,0,0,1,1.844,1.11,3.1,3.1,0,0,1,.15,1.095v5.61Z"/><path d="M119.411,62.81a3.571,3.571,0,0,1-2.536,1.5c-.389.03-.884.06-1.5.06h-2.534V53.945h2.1c.6,0,1.394.03,1.815.06a3.536,3.536,0,0,1,2.28,1.035A5.5,5.5,0,0,1,120.46,59.2,5.968,5.968,0,0,1,119.411,62.81Zm-1.83-6.345a1.725,1.725,0,0,0-1.65-.87h-.96V62.66H116.1c1.38,0,2.009-1.065,2.009-3.27A5.853,5.853,0,0,0,117.581,56.465Z"/><path d="M123.266,55.82a1.239,1.239,0,0,1-1.23-1.245,1.254,1.254,0,0,1,1.26-1.245,1.226,1.226,0,0,1,1.215,1.245A1.242,1.242,0,0,1,123.266,55.82Zm-1.005,8.55V56.825l2.01-.315v7.86Z"/><path d="M131.98,63.47a3.136,3.136,0,0,1-2.535,1.065c-2.085,0-3.449-1.56-3.449-3.975s1.379-4.02,3.449-4.02a3.216,3.216,0,0,1,2.61,1.155,3.99,3.99,0,0,1,.885,2.805A4.168,4.168,0,0,1,131.98,63.47Zm-1.635-5.04a1.1,1.1,0,0,0-1.905.375,7.275,7.275,0,0,0,.045,3.645,1.113,1.113,0,0,0,1.02.63c.87,0,1.245-.78,1.245-2.595A3.57,3.57,0,0,0,130.345,58.43Z"/><path d="M138.491,64.37l-.81-1.411c-.136-.239-.54-1.034-.6-1.139a9.926,9.926,0,0,1-.766,1.485l-.645,1.065h-2.579l2.835-4.1L133.8,57.05l2.085-.585a18.241,18.241,0,0,1,1.035,1.875l.24.51c.045-.12.27-.66.675-1.5a6.989,6.989,0,0,1,.359-.66h2.371l-2.281,3.54,2.761,4.14Z"/><path d="M142.871,55.82a1.239,1.239,0,0,1-1.23-1.245A1.254,1.254,0,0,1,142.9,53.33a1.226,1.226,0,0,1,1.216,1.245A1.242,1.242,0,0,1,142.871,55.82Zm-1,8.55V56.825l2.009-.315v7.86Z"/><path d="M150.745,64.37a1.373,1.373,0,0,1-.12-.451,2.577,2.577,0,0,1-1.77.645c-1.95,0-3.18-1.514-3.18-3.9,0-2.4,1.335-4.05,3.285-4.05a2.07,2.07,0,0,1,1.365.435,9.341,9.341,0,0,1-.06-1.14V53.27l2,.315v7.98a7.5,7.5,0,0,0,.285,2.805Zm-.45-5.655a1.674,1.674,0,0,0-1.095-.5c-.9,0-1.29.75-1.29,2.46,0,1.65.345,2.19,1.4,2.19a1.437,1.437,0,0,0,.99-.495Z"/><path d="M156.235,61.16v.06c0,1.185.585,1.86,1.62,1.86a3,3,0,0,0,1.95-.765l.78,1.2a4.407,4.407,0,0,1-2.9,1.065c-2.2,0-3.63-1.56-3.63-3.975a4.2,4.2,0,0,1,.96-3.045,3.02,3.02,0,0,1,2.415-1.035,3.142,3.142,0,0,1,2.22.81,4.51,4.51,0,0,1,1.02,3.36v.465Zm2.355-1.56a1.979,1.979,0,0,0-.24-1.155.973.973,0,0,0-.885-.45c-.765,0-1.2.6-1.2,1.665v.03h2.325Z"/><rect class="f" x="17" y="172" width="3" height="200"/><path d="M19.566,373.917H20.61v5.409c0,2.146-1.055,2.806-2.446,2.806a3.381,3.381,0,0,1-1.116-.192l.156-.852a2.484,2.484,0,0,0,.876.157c.935,0,1.486-.42,1.486-2Z"/><path d="M25.53,382l-.084-.731H25.41a2.165,2.165,0,0,1-1.775.863,1.654,1.654,0,0,1-1.775-1.667c0-1.4,1.247-2.171,3.49-2.159v-.12a1.2,1.2,0,0,0-1.32-1.343,2.9,2.9,0,0,0-1.51.431l-.241-.695a3.6,3.6,0,0,1,1.908-.516c1.774,0,2.206,1.211,2.206,2.375v2.171a8.173,8.173,0,0,0,.1,1.391Zm-.156-2.962c-1.151-.024-2.459.18-2.459,1.307a.935.935,0,0,0,1,1.008,1.445,1.445,0,0,0,1.4-.972,1.1,1.1,0,0,0,.06-.336Z"/><path d="M28.1,377.766c0-.6-.012-1.091-.048-1.571h.936l.06.96h.024a2.133,2.133,0,0,1,1.919-1.092c.8,0,2.051.48,2.051,2.471V382H31.985v-3.346c0-.936-.348-1.715-1.343-1.715a1.5,1.5,0,0,0-1.415,1.079,1.518,1.518,0,0,0-.072.492V382H28.1Z"/><path d="M39.617,380.417c0,.6.011,1.127.048,1.583h-.936l-.06-.947h-.024a2.183,2.183,0,0,1-1.919,1.079c-.911,0-2-.5-2-2.543V376.2h1.056v3.214c0,1.1.336,1.847,1.295,1.847a1.524,1.524,0,0,0,1.391-.959,1.544,1.544,0,0,0,.1-.54V376.2h1.056Z"/><path d="M44.585,382l-.084-.731h-.036a2.162,2.162,0,0,1-1.775.863,1.653,1.653,0,0,1-1.774-1.667c0-1.4,1.247-2.171,3.489-2.159v-.12a1.2,1.2,0,0,0-1.319-1.343,2.9,2.9,0,0,0-1.511.431l-.24-.695a3.6,3.6,0,0,1,1.907-.516c1.775,0,2.207,1.211,2.207,2.375v2.171a8.173,8.173,0,0,0,.1,1.391Zm-.155-2.962c-1.152-.024-2.459.18-2.459,1.307a.935.935,0,0,0,1,1.008,1.445,1.445,0,0,0,1.4-.972,1.133,1.133,0,0,0,.06-.336Z"/><path d="M47.155,378.006c0-.683-.011-1.271-.048-1.811h.924l.036,1.139h.048a1.741,1.741,0,0,1,1.607-1.271,1.129,1.129,0,0,1,.3.036v1a1.571,1.571,0,0,0-.359-.036,1.48,1.48,0,0,0-1.415,1.355,2.972,2.972,0,0,0-.048.492V382H47.155Z"/><path d="M51.763,376.2l1.271,3.43c.132.384.276.84.372,1.188h.024c.108-.348.228-.792.372-1.211l1.151-3.407h1.115l-1.583,4.138c-.756,1.991-1.271,3.01-1.991,3.634a2.84,2.84,0,0,1-1.3.683l-.264-.887a2.793,2.793,0,0,0,.924-.516,3.2,3.2,0,0,0,.887-1.175.758.758,0,0,0,.084-.252.921.921,0,0,0-.072-.276L50.611,376.2Z"/><path d="M59.239,382v-.647l.827-.8c1.992-1.895,2.891-2.9,2.9-4.078a1.391,1.391,0,0,0-1.547-1.523,2.656,2.656,0,0,0-1.655.659l-.336-.743a3.42,3.42,0,0,1,2.207-.792,2.193,2.193,0,0,1,2.386,2.267c0,1.439-1.043,2.6-2.686,4.186l-.624.576v.024h3.5V382Z"/><path d="M70.576,378.018c0,2.651-.984,4.114-2.711,4.114-1.523,0-2.554-1.427-2.578-4.006,0-2.614,1.127-4.054,2.71-4.054C69.64,374.072,70.576,375.536,70.576,378.018Zm-4.234.12c0,2.027.624,3.178,1.583,3.178,1.08,0,1.6-1.259,1.6-3.25,0-1.919-.492-3.178-1.583-3.178C67.014,374.888,66.342,376.015,66.342,378.138Z"/><path d="M73.841,375.188h-.024l-1.355.731-.2-.8,1.7-.912h.9V382h-1.02Z"/><path d="M77.707,382v-.647l.827-.8c1.991-1.895,2.891-2.9,2.9-4.078a1.391,1.391,0,0,0-1.547-1.523,2.661,2.661,0,0,0-1.656.659l-.336-.743a3.422,3.422,0,0,1,2.207-.792,2.194,2.194,0,0,1,2.387,2.267c0,1.439-1.043,2.6-2.686,4.186l-.624.576v.024h3.5V382Z"/><rect class="g" x="20" y="172" width="3" height="200"/><rect class="h" x="23" y="172" width="3" height="200"/><rect class="i" x="26" y="172" width="3" height="200"/><rect class="j" x="29" y="172" width="3" height="200"/><rect class="k" x="32" y="172" width="3" height="200"/><rect class="l" x="35" y="172" width="3" height="200"/><rect class="m" x="38" y="172" width="3" height="200"/><rect class="n" x="41" y="172" width="3" height="200"/><rect class="o" x="44" y="172" width="3" height="200"/><rect class="p" x="47" y="172" width="3" height="200"/><rect class="q" x="50" y="172" width="3" height="200"/><rect class="r" x="53" y="172" width="3" height="200"/><rect class="s" x="56" y="172" width="3" height="200"/><rect class="t" x="59" y="172" width="3" height="200"/><rect class="u" x="62" y="172" width="3" height="200"/><rect class="v" x="65" y="172" width="3" height="200"/><rect class="w" x="68" y="172" width="3" height="200"/><rect class="x" x="71" y="172" width="3" height="200"/><rect class="y" x="74" y="172" width="3" height="200"/><rect class="z" x="77" y="172" width="3" height="200"/><rect class="aa" x="80" y="172" width="3" height="200"/><rect class="ab" x="83" y="172" width="3" height="200"/><rect class="ac" x="86" y="172" width="3" height="200"/><rect class="ad" x="89" y="172" width="3" height="200"/><rect class="ae" x="92" y="172" width="3" height="200"/><rect class="af" x="95" y="172" width="3" height="200"/><rect class="ag" x="98" y="172" width="3" height="200"/><rect class="ah" x="101" y="172" width="3" height="200"/><rect class="ai" x="104" y="172" width="3" height="200"/><rect class="aj" x="107" y="172" width="3" height="200"/><rect class="ak" x="110" y="172" width="3" height="200"/><path d="M110.912,373.917h4.353v.875h-3.31v2.687h3.058v.863h-3.058V382h-1.043Z"/><path d="M116.936,379.29a1.858,1.858,0,0,0,1.99,2.014,3.81,3.81,0,0,0,1.607-.3l.18.756a4.7,4.7,0,0,1-1.931.36,2.7,2.7,0,0,1-2.854-2.927c0-1.751,1.031-3.13,2.722-3.13a2.46,2.46,0,0,1,2.4,2.735,3.983,3.983,0,0,1-.036.492Zm3.094-.756a1.5,1.5,0,0,0-1.464-1.715,1.749,1.749,0,0,0-1.619,1.715Z"/><path d="M122.312,382c.023-.4.047-.983.047-1.5v-7.016H123.4v3.646h.024a2.162,2.162,0,0,1,1.979-1.068c1.439,0,2.458,1.2,2.447,2.962,0,2.076-1.308,3.107-2.6,3.107a2.068,2.068,0,0,1-1.943-1.091h-.036l-.048.959Zm1.091-2.327a1.977,1.977,0,0,0,.048.384,1.628,1.628,0,0,0,1.583,1.235c1.1,0,1.763-.9,1.763-2.23,0-1.164-.6-2.159-1.727-2.159a1.683,1.683,0,0,0-1.607,1.295,2.081,2.081,0,0,0-.06.432Z"/><path d="M129.188,378.006c0-.683-.012-1.271-.048-1.811h.923l.036,1.139h.048a1.742,1.742,0,0,1,1.607-1.271,1.142,1.142,0,0,1,.3.036v1a1.586,1.586,0,0,0-.36-.036,1.481,1.481,0,0,0-1.415,1.355,2.972,2.972,0,0,0-.048.492V382h-1.043Z"/><path d="M137.969,380.417c0,.6.011,1.127.048,1.583h-.936l-.06-.947H137a2.183,2.183,0,0,1-1.919,1.079c-.911,0-2-.5-2-2.543V376.2h1.056v3.214c0,1.1.336,1.847,1.295,1.847a1.524,1.524,0,0,0,1.391-.959,1.544,1.544,0,0,0,.1-.54V376.2h1.056Z"/><path d="M142.938,382l-.084-.731h-.037a2.162,2.162,0,0,1-1.775.863,1.653,1.653,0,0,1-1.774-1.667c0-1.4,1.247-2.171,3.489-2.159v-.12a1.2,1.2,0,0,0-1.319-1.343,2.9,2.9,0,0,0-1.511.431l-.24-.695a3.6,3.6,0,0,1,1.907-.516c1.775,0,2.207,1.211,2.207,2.375v2.171a8.173,8.173,0,0,0,.1,1.391Zm-.157-2.962c-1.151-.024-2.458.18-2.458,1.307a.935.935,0,0,0,1,1.008,1.445,1.445,0,0,0,1.4-.972,1.132,1.132,0,0,0,.059-.336Z"/><path d="M145.507,378.006c0-.683-.012-1.271-.048-1.811h.924l.036,1.139h.048a1.741,1.741,0,0,1,1.607-1.271,1.142,1.142,0,0,1,.3.036v1a1.586,1.586,0,0,0-.36-.036,1.481,1.481,0,0,0-1.415,1.355,2.972,2.972,0,0,0-.048.492V382h-1.044Z"/><path d="M150.115,376.2l1.271,3.43c.132.384.276.84.372,1.188h.024c.108-.348.228-.792.372-1.211l1.151-3.407h1.115l-1.583,4.138c-.755,1.991-1.271,3.01-1.991,3.634a2.84,2.84,0,0,1-1.3.683l-.264-.887a2.793,2.793,0,0,0,.924-.516,3.187,3.187,0,0,0,.887-1.175.758.758,0,0,0,.084-.252.921.921,0,0,0-.072-.276l-2.147-5.349Z"/><path d="M157.591,382v-.647l.827-.8c1.991-1.895,2.891-2.9,2.9-4.078a1.391,1.391,0,0,0-1.547-1.523,2.659,2.659,0,0,0-1.655.659l-.336-.743a3.42,3.42,0,0,1,2.207-.792,2.193,2.193,0,0,1,2.386,2.267c0,1.439-1.043,2.6-2.686,4.186l-.624.576v.024h3.5V382Z"/><path d="M168.928,378.018c0,2.651-.984,4.114-2.711,4.114-1.523,0-2.554-1.427-2.578-4.006,0-2.614,1.127-4.054,2.71-4.054C167.992,374.072,168.928,375.536,168.928,378.018Zm-4.234.12c0,2.027.624,3.178,1.583,3.178,1.08,0,1.6-1.259,1.6-3.25,0-1.919-.492-3.178-1.583-3.178C165.366,374.888,164.694,376.015,164.694,378.138Z"/><path d="M172.193,375.188h-.024l-1.355.731-.2-.8,1.7-.912h.9V382h-1.02Z"/><path d="M176.058,382v-.647l.828-.8c1.991-1.895,2.89-2.9,2.9-4.078a1.391,1.391,0,0,0-1.547-1.523,2.659,2.659,0,0,0-1.655.659l-.336-.743a3.422,3.422,0,0,1,2.207-.792,2.194,2.194,0,0,1,2.387,2.267c0,1.439-1.044,2.6-2.687,4.186l-.624.576v.024h3.5V382Z"/><rect class="al" x="113" y="172" width="3" height="200"/><rect class="am" x="116" y="172" width="3" height="200"/><rect class="an" x="119" y="172" width="3" height="200"/><rect class="ao" x="122" y="172" width="3" height="200"/><rect class="ap" x="125" y="172" width="3" height="200"/><rect class="aq" x="128" y="172" width="3" height="200"/><rect class="ar" x="131" y="172" width="3" height="200"/><rect class="as" x="134" y="172" width="3" height="200"/><rect class="at" x="137" y="172" width="3" height="200"/><rect class="au" x="140" y="172" width="3" height="200"/><rect class="av" x="143" y="172" width="3" height="200"/><rect class="aw" x="146" y="172" width="3" height="200"/><rect class="ax" x="149" y="172" width="3" height="200"/><rect class="ay" x="152" y="172" width="3" height="200"/><rect class="az" x="155" y="172" width="3" height="200"/><rect class="ba" x="158" y="172" width="3" height="200"/><rect class="bb" x="161" y="172" width="3" height="200"/><rect class="bc" x="164" y="172" width="3" height="200"/><rect class="bd" x="167" y="172" width="3" height="200"/><rect class="be" x="170" y="172" width="3" height="200"/><rect class="bf" x="173" y="172" width="3" height="200"/><rect class="bg" x="176" y="172" width="3" height="200"/><rect class="bh" x="179" y="172" width="3" height="200"/><rect class="bi" x="182" y="172" width="3" height="200"/><rect class="bj" x="185" y="172" width="3" height="200"/><rect class="bk" x="188" y="172" width="3" height="200"/><rect class="bl" x="191" y="172" width="3" height="200"/><rect class="bm" x="194" y="172" width="3" height="200"/><rect class="bn" x="197" y="172" width="3" height="200"/><path d="M204.724,378.45c-.06-1.127-.132-2.483-.12-3.49h-.036c-.276.947-.612,1.955-1.02,3.07l-1.427,3.922h-.791l-1.308-3.85c-.383-1.139-.707-2.183-.935-3.142h-.024c-.024,1.007-.084,2.363-.156,3.574L198.691,382h-1l.563-8.083h1.332l1.379,3.909c.336,1,.612,1.883.815,2.723h.036c.2-.816.492-1.7.852-2.723l1.439-3.909h1.331l.5,8.083h-1.019Z"/><path d="M210.81,382l-.084-.731h-.037a2.161,2.161,0,0,1-1.774.863,1.654,1.654,0,0,1-1.775-1.667c0-1.4,1.247-2.171,3.489-2.159v-.12a1.2,1.2,0,0,0-1.318-1.343,2.9,2.9,0,0,0-1.512.431l-.24-.695a3.6,3.6,0,0,1,1.907-.516c1.775,0,2.207,1.211,2.207,2.375v2.171a8.173,8.173,0,0,0,.1,1.391Zm-.157-2.962c-1.151-.024-2.458.18-2.458,1.307a.935.935,0,0,0,1,1.008,1.445,1.445,0,0,0,1.4-.972,1.132,1.132,0,0,0,.059-.336Z"/><path d="M213.379,378.006c0-.683-.012-1.271-.047-1.811h.923l.036,1.139h.048a1.742,1.742,0,0,1,1.607-1.271,1.142,1.142,0,0,1,.3.036v1a1.586,1.586,0,0,0-.36-.036,1.481,1.481,0,0,0-1.415,1.355,2.972,2.972,0,0,0-.048.492V382h-1.044Z"/><path d="M221.321,381.784a3.884,3.884,0,0,1-1.667.336,2.758,2.758,0,0,1-2.891-2.962,2.951,2.951,0,0,1,3.119-3.083,3.528,3.528,0,0,1,1.463.3l-.24.815a2.457,2.457,0,0,0-1.223-.275,2.188,2.188,0,0,0-.036,4.365,3,3,0,0,0,1.295-.287Z"/><path d="M222.559,373.485h1.056v3.621h.024a1.961,1.961,0,0,1,.755-.743,2.173,2.173,0,0,1,1.08-.3c.779,0,2.026.48,2.026,2.483V382h-1.055v-3.334c0-.936-.348-1.727-1.343-1.727a1.514,1.514,0,0,0-1.415,1.055,1.261,1.261,0,0,0-.072.5V382h-1.056Z"/><path d="M231.427,382v-.647l.828-.8c1.991-1.895,2.891-2.9,2.9-4.078a1.391,1.391,0,0,0-1.547-1.523,2.659,2.659,0,0,0-1.655.659l-.336-.743a3.422,3.422,0,0,1,2.207-.792,2.194,2.194,0,0,1,2.387,2.267c0,1.439-1.044,2.6-2.687,4.186l-.624.576v.024h3.5V382Z"/><path d="M242.764,378.018c0,2.651-.983,4.114-2.71,4.114-1.523,0-2.555-1.427-2.579-4.006,0-2.614,1.128-4.054,2.711-4.054C241.829,374.072,242.764,375.536,242.764,378.018Zm-4.233.12c0,2.027.623,3.178,1.583,3.178,1.079,0,1.595-1.259,1.595-3.25,0-1.919-.492-3.178-1.583-3.178C239.2,374.888,238.531,376.015,238.531,378.138Z"/><path d="M246.03,375.188h-.024l-1.356.731-.2-.8,1.7-.912h.9V382H246.03Z"/><path d="M249.9,382v-.647l.827-.8c1.991-1.895,2.891-2.9,2.9-4.078a1.391,1.391,0,0,0-1.547-1.523,2.661,2.661,0,0,0-1.656.659l-.336-.743a3.422,3.422,0,0,1,2.207-.792,2.194,2.194,0,0,1,2.387,2.267c0,1.439-1.043,2.6-2.686,4.186l-.624.576v.024h3.5V382Z"/><rect class="bo" x="200" y="172" width="3" height="200"/><rect class="bp" x="203" y="172" width="3" height="200"/><rect class="bq" x="206" y="172" width="3" height="200"/><rect class="br" x="209" y="172" width="3" height="200"/><rect class="bs" x="212" y="172" width="3" height="200"/><rect class="bt" x="215" y="172" width="3" height="200"/><rect class="bu" x="218" y="172" width="3" height="200"/><rect class="bv" x="221" y="172" width="3" height="200"/><rect class="bw" x="224" y="172" width="3" height="200"/><rect class="bx" x="227" y="172" width="3" height="200"/><rect class="by" x="230" y="172" width="3" height="200"/><rect class="bz" x="233" y="172" width="3" height="200"/><rect class="ca" x="236" y="172" width="3" height="200"/><rect class="cb" x="239" y="172" width="3" height="200"/><rect class="cc" x="242" y="172" width="3" height="200"/><rect class="cd" x="245" y="172" width="3" height="200"/><rect class="ce" x="248" y="172" width="3" height="200"/><rect class="cf" x="251" y="172" width="3" height="200"/><rect class="cg" x="254" y="172" width="3" height="200"/><rect class="ch" x="257" y="172" width="3" height="200"/><rect class="ci" x="260" y="172" width="3" height="200"/><rect class="cj" x="263" y="172" width="3" height="200"/><rect class="ck" x="266" y="172" width="3" height="200"/><rect class="cl" x="269" y="172" width="3" height="200"/><rect class="cm" x="272" y="172" width="3" height="200"/><rect class="cn" x="275" y="172" width="3" height="200"/><rect class="co" x="278" y="172" width="3" height="200"/><rect class="cp" x="281" y="172" width="3" height="200"/><rect class="cq" x="284" y="172" width="3" height="200"/><rect class="cr" x="287" y="172" width="3" height="200"/><rect class="cs" x="290" y="172" width="3" height="200"/><path d="M292.219,379.458l-.84,2.542H290.3l2.746-8.083h1.26L297.064,382h-1.115l-.864-2.542Zm2.65-.816-.791-2.327c-.18-.527-.3-1.007-.42-1.475h-.024c-.12.48-.252.972-.408,1.463l-.791,2.339Z"/><path d="M298.184,378.09c0-.743-.024-1.343-.048-1.895h.947l.048,1h.024a2.284,2.284,0,0,1,2.063-1.127c1.4,0,2.459,1.187,2.459,2.951,0,2.087-1.272,3.118-2.639,3.118a2.036,2.036,0,0,1-1.787-.912h-.024v3.155h-1.043Zm1.043,1.547a2.378,2.378,0,0,0,.048.432,1.628,1.628,0,0,0,1.583,1.235c1.116,0,1.763-.911,1.763-2.242,0-1.164-.611-2.159-1.727-2.159a1.683,1.683,0,0,0-1.6,1.307,1.713,1.713,0,0,0-.072.432Z"/><path d="M305.011,378.006c0-.683-.012-1.271-.048-1.811h.924l.036,1.139h.048a1.741,1.741,0,0,1,1.607-1.271,1.142,1.142,0,0,1,.3.036v1a1.586,1.586,0,0,0-.36-.036,1.48,1.48,0,0,0-1.415,1.355,2.972,2.972,0,0,0-.048.492V382h-1.044Z"/><path d="M310.159,374.564a.654.654,0,0,1-1.307,0,.643.643,0,0,1,.659-.66A.627.627,0,0,1,310.159,374.564ZM308.983,382V376.2h1.056V382Z"/><path d="M311.792,373.485h1.055V382h-1.055Z"/><path d="M316.831,382v-.647l.828-.8c1.99-1.895,2.89-2.9,2.9-4.078a1.391,1.391,0,0,0-1.547-1.523,2.661,2.661,0,0,0-1.655.659l-.336-.743a3.422,3.422,0,0,1,2.207-.792,2.194,2.194,0,0,1,2.387,2.267c0,1.439-1.044,2.6-2.687,4.186l-.623.576v.024h3.5V382Z"/><path d="M328.168,378.018c0,2.651-.983,4.114-2.71,4.114-1.523,0-2.555-1.427-2.579-4.006,0-2.614,1.127-4.054,2.71-4.054C327.232,374.072,328.168,375.536,328.168,378.018Zm-4.233.12c0,2.027.623,3.178,1.583,3.178,1.079,0,1.6-1.259,1.6-3.25,0-1.919-.492-3.178-1.583-3.178C324.606,374.888,323.935,376.015,323.935,378.138Z"/><path d="M331.434,375.188h-.024l-1.356.731-.2-.8,1.7-.912h.9V382h-1.019Z"/><path d="M335.3,382v-.647l.828-.8c1.991-1.895,2.891-2.9,2.9-4.078a1.39,1.39,0,0,0-1.547-1.523,2.659,2.659,0,0,0-1.655.659l-.336-.743a3.422,3.422,0,0,1,2.207-.792,2.194,2.194,0,0,1,2.387,2.267c0,1.439-1.043,2.6-2.687,4.186l-.624.576v.024h3.5V382Z"/><rect class="ct" x="293" y="172" width="3" height="200"/><rect class="cu" x="296" y="172" width="3" height="200"/><rect class="cv" x="299" y="172" width="3" height="200"/><rect class="cw" x="302" y="172" width="3" height="200"/><rect class="cx" x="305" y="172" width="3" height="200"/><rect class="cy" x="308" y="172" width="3" height="200"/><rect class="cz" x="311" y="172" width="3" height="200"/><rect class="da" x="314" y="172" width="3" height="200"/><rect class="db" x="317" y="172" width="3" height="200"/><rect class="dc" x="320" y="172" width="3" height="200"/><rect class="dd" x="323" y="172" width="3" height="200"/><rect class="de" x="326" y="172" width="3" height="200"/><rect class="df" x="329" y="172" width="3" height="200"/><rect class="dg" x="332" y="172" width="3" height="200"/><rect class="dh" x="335" y="172" width="3" height="200"/><rect class="di" x="338" y="172" width="3" height="200"/><rect class="dj" x="341" y="172" width="3" height="200"/><rect class="dk" x="344" y="172" width="3" height="200"/><rect class="dl" x="347" y="172" width="3" height="200"/><rect class="dm" x="350" y="172" width="3" height="200"/><rect class="dn" x="353" y="172" width="3" height="200"/><rect class="do" x="356" y="172" width="3" height="200"/><rect class="dp" x="359" y="172" width="3" height="200"/><rect class="dq" x="362" y="172" width="3" height="200"/><rect class="dr" x="365" y="172" width="3" height="200"/><rect class="ds" x="368" y="172" width="3" height="200"/><rect class="dt" x="371" y="172" width="3" height="200"/><rect class="du" x="374" y="172" width="3" height="200"/><rect class="dv" x="377" y="172" width="3" height="200"/><rect class="dw" x="380" y="172" width="3" height="200"/><path d="M387.724,378.45c-.06-1.127-.132-2.483-.12-3.49h-.036c-.276.947-.612,1.955-1.02,3.07l-1.427,3.922h-.791l-1.308-3.85c-.383-1.139-.707-2.183-.935-3.142h-.024c-.024,1.007-.084,2.363-.156,3.574L381.691,382H380.7l.563-8.083h1.332l1.379,3.909c.336,1,.612,1.883.815,2.723h.036c.2-.816.492-1.7.852-2.723l1.439-3.909h1.331l.5,8.083h-1.019Z"/><path d="M393.81,382l-.084-.731h-.037a2.161,2.161,0,0,1-1.774.863,1.654,1.654,0,0,1-1.775-1.667c0-1.4,1.247-2.171,3.489-2.159v-.12a1.2,1.2,0,0,0-1.318-1.343,2.9,2.9,0,0,0-1.512.431l-.24-.695a3.6,3.6,0,0,1,1.907-.516c1.775,0,2.207,1.211,2.207,2.375v2.171a8.173,8.173,0,0,0,.1,1.391Zm-.157-2.962c-1.151-.024-2.458.18-2.458,1.307a.935.935,0,0,0,1,1.008,1.445,1.445,0,0,0,1.4-.972,1.132,1.132,0,0,0,.059-.336Z"/><path d="M396.667,376.2l1.271,3.43c.132.384.276.84.372,1.188h.024c.108-.348.228-.792.372-1.211l1.151-3.407h1.116l-1.583,4.138c-.756,1.991-1.272,3.01-1.992,3.634a2.842,2.842,0,0,1-1.294.683l-.265-.887a2.784,2.784,0,0,0,.924-.516,3.177,3.177,0,0,0,.887-1.175.758.758,0,0,0,.084-.252.942.942,0,0,0-.071-.276l-2.147-5.349Z"/><path d="M404.143,382v-.647l.828-.8c1.991-1.895,2.89-2.9,2.9-4.078a1.391,1.391,0,0,0-1.547-1.523,2.659,2.659,0,0,0-1.655.659l-.336-.743a3.422,3.422,0,0,1,2.207-.792,2.194,2.194,0,0,1,2.387,2.267c0,1.439-1.044,2.6-2.687,4.186l-.624.576v.024h3.5V382Z"/><path d="M415.48,378.018c0,2.651-.983,4.114-2.71,4.114-1.523,0-2.555-1.427-2.579-4.006,0-2.614,1.127-4.054,2.71-4.054C414.544,374.072,415.48,375.536,415.48,378.018Zm-4.233.12c0,2.027.623,3.178,1.583,3.178,1.079,0,1.6-1.259,1.6-3.25,0-1.919-.492-3.178-1.583-3.178C411.918,374.888,411.247,376.015,411.247,378.138Z"/><path d="M418.746,375.188h-.024l-1.356.731-.2-.8,1.7-.912h.9V382h-1.019Z"/><path d="M422.611,382v-.647l.827-.8c1.992-1.895,2.891-2.9,2.9-4.078a1.391,1.391,0,0,0-1.547-1.523,2.659,2.659,0,0,0-1.655.659l-.336-.743a3.42,3.42,0,0,1,2.207-.792,2.193,2.193,0,0,1,2.386,2.267c0,1.439-1.043,2.6-2.686,4.186l-.624.576v.024h3.5V382Z"/><rect class="dx" x="383" y="172" width="3" height="200"/><rect class="dy" x="386" y="172" width="3" height="200"/><rect class="dz" x="389" y="172" width="3" height="200"/><rect class="ea" x="392" y="172" width="3" height="200"/><rect class="eb" x="395" y="172" width="3" height="200"/><rect class="ec" x="398" y="172" width="3" height="200"/><rect class="ed" x="401" y="172" width="3" height="200"/><rect class="ee" x="404" y="172" width="3" height="200"/><rect class="ef" x="407" y="172" width="3" height="200"/><rect class="eg" x="410" y="172" width="3" height="200"/><rect class="eh" x="413" y="172" width="3" height="200"/><rect class="ei" x="416" y="172" width="3" height="200"/><rect class="ej" x="419" y="172" width="3" height="200"/><rect class="ek" x="422" y="172" width="3" height="200"/><rect class="el" x="425" y="172" width="3" height="200"/><rect class="em" x="428" y="172" width="3" height="200"/><rect class="en" x="431" y="172" width="3" height="200"/><rect class="eo" x="434" y="172" width="3" height="200"/><rect class="ep" x="437" y="172" width="3" height="200"/><rect class="eq" x="440" y="172" width="3" height="200"/><rect class="er" x="443" y="172" width="3" height="200"/><rect class="es" x="446" y="172" width="3" height="200"/><rect class="et" x="449" y="172" width="3" height="200"/><rect class="eu" x="452" y="172" width="3" height="200"/><rect class="ev" x="455" y="172" width="3" height="200"/><rect class="ew" x="458" y="172" width="3" height="200"/><rect class="ex" x="461" y="172" width="3" height="200"/><rect class="ey" x="464" y="172" width="3" height="200"/><rect class="ez" x="467" y="172" width="3" height="200"/><rect class="fa" x="470" y="172" width="3" height="200"/><rect class="fb" x="473" y="172" width="3" height="200"/><path d="M475.566,373.917h1.044v5.409c0,2.146-1.055,2.806-2.446,2.806a3.381,3.381,0,0,1-1.116-.192l.156-.852a2.484,2.484,0,0,0,.876.157c.935,0,1.486-.42,1.486-2Z"/><path d="M483.173,380.417c0,.6.012,1.127.048,1.583h-.936l-.06-.947H482.2a2.183,2.183,0,0,1-1.919,1.079c-.911,0-2-.5-2-2.543V376.2h1.056v3.214c0,1.1.336,1.847,1.3,1.847a1.484,1.484,0,0,0,1.487-1.5V376.2h1.056Z"/><path d="M484.927,377.766c0-.6-.012-1.091-.048-1.571h.936l.06.96h.024a2.134,2.134,0,0,1,1.919-1.092c.8,0,2.051.48,2.051,2.471V382h-1.056v-3.346c0-.936-.348-1.715-1.343-1.715a1.5,1.5,0,0,0-1.415,1.079,1.518,1.518,0,0,0-.072.492V382h-1.056Z"/><path d="M492.175,379.29a1.859,1.859,0,0,0,1.991,2.014,3.817,3.817,0,0,0,1.607-.3l.18.756a4.7,4.7,0,0,1-1.931.36,2.7,2.7,0,0,1-2.855-2.927c0-1.751,1.032-3.13,2.723-3.13a2.46,2.46,0,0,1,2.4,2.735,3.983,3.983,0,0,1-.036.492Zm3.095-.756a1.5,1.5,0,0,0-1.464-1.715,1.749,1.749,0,0,0-1.619,1.715Z"/><path d="M499.807,382v-.647l.828-.8c1.991-1.895,2.89-2.9,2.9-4.078a1.391,1.391,0,0,0-1.547-1.523,2.659,2.659,0,0,0-1.655.659l-.336-.743a3.422,3.422,0,0,1,2.207-.792,2.194,2.194,0,0,1,2.387,2.267c0,1.439-1.044,2.6-2.687,4.186l-.624.576v.024h3.5V382Z"/><path d="M511.144,378.018c0,2.651-.983,4.114-2.71,4.114-1.523,0-2.555-1.427-2.579-4.006,0-2.614,1.127-4.054,2.71-4.054C510.208,374.072,511.144,375.536,511.144,378.018Zm-4.233.12c0,2.027.623,3.178,1.583,3.178,1.079,0,1.595-1.259,1.595-3.25,0-1.919-.492-3.178-1.583-3.178C507.582,374.888,506.911,376.015,506.911,378.138Z"/><path d="M514.41,375.188h-.024l-1.356.731-.2-.8,1.7-.912h.9V382H514.41Z"/><path d="M518.274,382v-.647l.828-.8c1.991-1.895,2.891-2.9,2.9-4.078a1.39,1.39,0,0,0-1.546-1.523,2.661,2.661,0,0,0-1.656.659l-.336-.743a3.422,3.422,0,0,1,2.207-.792,2.194,2.194,0,0,1,2.387,2.267c0,1.439-1.043,2.6-2.686,4.186l-.624.576v.024h3.5V382Z"/><rect class="fc" x="476" y="172" width="3" height="200"/><rect class="fd" x="479" y="172" width="3" height="200"/><rect class="fe" x="482" y="172" width="3" height="200"/><rect class="ff" x="485" y="172" width="3" height="200"/><rect class="fg" x="488" y="172" width="3" height="200"/><rect class="fh" x="491" y="172" width="3" height="200"/><rect class="fi" x="494" y="172" width="3" height="200"/><rect class="fj" x="497" y="172" width="3" height="200"/><rect class="fk" x="500" y="172" width="3" height="200"/><rect class="fl" x="503" y="172" width="3" height="200"/><rect class="fm" x="506" y="172" width="3" height="200"/><rect class="fn" x="509" y="172" width="3" height="200"/><rect class="fo" x="512" y="172" width="3" height="200"/><rect class="fp" x="515" y="172" width="3" height="200"/><rect class="fq" x="518" y="172" width="3" height="200"/><rect class="fr" x="521" y="172" width="3" height="200"/><rect class="fs" x="524" y="172" width="3" height="200"/><rect class="ft" x="527" y="172" width="3" height="200"/><rect class="fu" x="530" y="172" width="3" height="200"/><rect class="fv" x="533" y="172" width="3" height="200"/><rect class="fw" x="536" y="172" width="3" height="200"/><rect class="fx" x="539" y="172" width="3" height="200"/><rect class="fy" x="542" y="172" width="3" height="200"/><rect class="fz" x="545" y="172" width="3" height="200"/><rect class="ga" x="548" y="172" width="3" height="200"/><rect class="gb" x="551" y="172" width="3" height="200"/><rect class="gc" x="554" y="172" width="3" height="200"/><rect class="gd" x="557" y="172" width="3" height="200"/><rect class="ge" x="560" y="172" width="3" height="200"/><rect class="gf" x="563" y="172" width="3" height="200"/><path d="M565.566,373.917h1.044v5.409c0,2.146-1.055,2.806-2.446,2.806a3.381,3.381,0,0,1-1.116-.192l.156-.852a2.484,2.484,0,0,0,.876.157c.935,0,1.486-.42,1.486-2Z"/><path d="M573.173,380.417c0,.6.012,1.127.048,1.583h-.936l-.06-.947H572.2a2.183,2.183,0,0,1-1.919,1.079c-.911,0-2-.5-2-2.543V376.2h1.056v3.214c0,1.1.336,1.847,1.295,1.847a1.484,1.484,0,0,0,1.487-1.5V376.2h1.056Z"/><path d="M574.927,373.485h1.056V382h-1.056Z"/><path d="M578.143,376.2l1.272,3.43c.131.384.275.84.371,1.188h.024c.108-.348.228-.792.372-1.211l1.151-3.407h1.116l-1.583,4.138c-.756,1.991-1.272,3.01-1.991,3.634a2.849,2.849,0,0,1-1.295.683l-.265-.887a2.784,2.784,0,0,0,.924-.516,3.177,3.177,0,0,0,.887-1.175.758.758,0,0,0,.084-.252.91.91,0,0,0-.071-.276l-2.147-5.349Z"/><path d="M585.619,382v-.647l.828-.8c1.991-1.895,2.89-2.9,2.9-4.078a1.391,1.391,0,0,0-1.547-1.523,2.661,2.661,0,0,0-1.655.659l-.336-.743a3.422,3.422,0,0,1,2.207-.792,2.194,2.194,0,0,1,2.387,2.267c0,1.439-1.044,2.6-2.687,4.186l-.623.576v.024h3.5V382Z"/><path d="M596.956,378.018c0,2.651-.983,4.114-2.71,4.114-1.523,0-2.555-1.427-2.579-4.006,0-2.614,1.127-4.054,2.71-4.054C596.021,374.072,596.956,375.536,596.956,378.018Zm-4.233.12c0,2.027.623,3.178,1.583,3.178,1.079,0,1.595-1.259,1.595-3.25,0-1.919-.492-3.178-1.583-3.178C593.394,374.888,592.723,376.015,592.723,378.138Z"/><path d="M600.222,375.188H600.2l-1.356.731-.2-.8,1.7-.912h.9V382h-1.019Z"/><path d="M604.086,382v-.647l.828-.8c1.991-1.895,2.891-2.9,2.9-4.078a1.39,1.39,0,0,0-1.546-1.523,2.661,2.661,0,0,0-1.656.659l-.336-.743a3.422,3.422,0,0,1,2.207-.792,2.194,2.194,0,0,1,2.387,2.267c0,1.439-1.043,2.6-2.686,4.186l-.624.576v.024h3.5V382Z"/><rect class="gg" x="566" y="172" width="3" height="200"/><rect class="gh" x="569" y="172" width="3" height="200"/><rect class="gi" x="572" y="172" width="3" height="200"/><rect class="gj" x="575" y="172" width="3" height="200"/><rect class="gk" x="578" y="172" width="3" height="200"/><rect class="gl" x="581" y="172" width="3" height="200"/><rect class="gm" x="584" y="172" width="3" height="200"/><rect class="gn" x="587" y="172" width="3" height="200"/><rect class="go" x="590" y="172" width="3" height="200"/><rect class="gp" x="593" y="172" width="3" height="200"/><rect class="gq" x="596" y="172" width="3" height="200"/><rect class="gr" x="599" y="172" width="3" height="200"/><rect class="gs" x="602" y="172" width="3" height="200"/><rect class="gt" x="605" y="172" width="3" height="200"/><rect class="gu" x="608" y="172" width="3" height="200"/><rect class="gv" x="611" y="172" width="3" height="200"/><rect class="gw" x="614" y="172" width="3" height="200"/><rect class="gx" x="617" y="172" width="3" height="200"/><rect class="gy" x="620" y="172" width="3" height="200"/><rect class="gz" x="623" y="172" width="3" height="200"/><rect class="ha" x="626" y="172" width="3" height="200"/><rect class="hb" x="629" y="172" width="3" height="200"/><rect class="hc" x="632" y="172" width="3" height="200"/><rect class="hd" x="635" y="172" width="3" height="200"/><rect class="he" x="638" y="172" width="3" height="200"/><rect class="hf" x="641" y="172" width="3" height="200"/><rect class="hg" x="644" y="172" width="3" height="200"/><polyline class="hh" points="18.5 331.4 21.5 337.2 24.5 340.55 27.5 341.65 30.5 346.9 33.5 357 36.5 354.85 39.5 348.7 42.5 347.95 45.5 345.45 48.5 358.95 51.5 362 54.5 355.95 57.5 370.15 60.5 373.75 63.5 377.55 66.5 376.1 69.5 369.55 72.5 338.85 75.5 345.3 78.5 340.95 81.5 333.7 84.5 338.9 87.5 350.75 90.5 356.8 93.5 356.25 96.5 351.45 99.5 361.4 102.5 368.4 105.5 370.4 108.5 377.05 111.5 393.5 114.5 408.05 117.5 421.2 120.5 424.8 123.5 424.5 126.5 426.65 129.5 425.2 132.5 411.75 135.5 405.65 138.5 408.25 141.5 414.5 144.5 418.4 147.5 408.7 150.5 379.6 153.5 365.8 156.5 360.4 159.5 360.45 162.5 354.55 165.5 355.25 168.5 366.2 171.5 372.05 174.5 366.6 177.5 353.65 180.5 334.5 183.5 337.9 186.5 343.25 189.5 346.95 192.5 343.35 195.5 329.6 198.5 327.5 201.5 319.9 204.5 319.15 207.5 330.1 210.5 346.05 213.5 350.3 216.5 343.8 219.5 346.4 222.5 350.65 225.5 345.9 228.5 342.5 231.5 328.4 234.5 321.4 237.5 326.7 240.5 318.1 243.5 310 246.5 310.25 249.5 330.65 252.5 344.5 255.5 332.45 258.5 323.35 261.5 313.65 264.5 309.2 267.5 308.65 270.5 307.75 273.5 305.7 276.5 308.4 279.5 302.9 282.5 301.45 285.5 306.3 288.5 308.7 291.5 327.5 294.5 318.2 297.5 305.5 300.5 316.9 303.5 323.85 306.5 322.5 309.5 327.15 312.5 354.8 315.5 340.85 318.5 308.55 321.5 335.95 324.5 336.2 327.5 329.2 330.5 328.95 333.5 332.05 336.5 341.85 339.5 334.85 342.5 334.45 345.5 327.5 348.5 330.05 351.5 321.9 354.5 332.35 357.5 326.6 360.5 329.35 363.5 317.8 366.5 294.25 369.5 284.85 372.5 262.85 375.5 261.9 378.5 287 381.5 296 384.5 299.05 387.5 295.05 390.5 287.55 393.5 306 396.5 312.7 399.5 306.65 402.5 298 405.5 294.8 408.5 273.6 411.5 255.3 414.5 304.55 417.5 315.9 420.5 313.35 423.5 314.55 426.5 333.4 429.5 318.75 432.5 304.3 435.5 284.9 438.5 280.25 441.5 289.6 444.5 289.9 447.5 290.7 450.5 276.35 453.5 275.75 456.5 279.55 459.5 286.3 462.5 276.2 465.5 270.95 468.5 269.75 471.5 272.55 474.5 280.15 477.5 266.75 480.5 282.9 483.5 298.85 486.5 304.6 489.5 292.8 492.5 275.5 495.5 291.5 498.5 293 501.5 300.65 504.5 292.9 507.5 309.1 510.5 304.5 513.5 292 516.5 268.9 519.5 252.65 522.5 265.35 525.5 251.25 528.5 254.5 531.5 266.4 534.5 266.25 537.5 277.65 540.5 271.7 543.5 270.25 546.5 280.25 549.5 279.4 552.5 261.3 555.5 253.4 558.5 241.15 561.5 245.4 564.5 279.95 567.5 283.55 570.5 282.7 573.5 271.65 576.5 265.9 579.5 281.9 582.5 268.5 585.5 269 588.5 263.85 591.5 271.8 594.5 279.9 597.5 285.85 600.5 281.6 603.5 273.15 606.5 294.35 609.5 287.5 612.5 271.85 615.5 260.95 618.5 264.25 621.5 282.35 624.5 299.2 627.5 293.6 630.5 283.45 633.5 266.75 636.5 257.05 639.5 249.45 642.5 241.7 645.5 260.15 648.5 280.15 651.5 274.55 654.5 266.1 657.5 253.75 660.5 256.5 663.5 263.65 666.5 259.65 669.5 266.35 672.5 283.35 675.5 278.2 678.5 270.35 681.5 267.85 684.5 265.25 687.5 271.45 690.5 270.45 693.5 260.95 696.5 256.9 699.5 247.4 702.5 273.9 705.5 266 708.5 253.75 711.5 244.25 714.5 239.75 717.5 246.95 720.5 245.65 723.5 258 726.5 268.85 729.5 270.35 732.5 282.2 735.5 280.85 738.5 271.7 741.5 264.25 744.5 283.45 747.5 306.8 750.5 309.6 753.5 292.85 756.5 284.4 759.5 273.65 762.5 275.9 765.5 283.5 768.5 285.4 771.5 283.95 774.5 273.45 777.5 262.3 780.5 269.9 783.5 306.3 786.5 312.8 789.5 308.15 792.5 296.15 795.5 297.6 798.5 285.3 801.5 283 804.5 307.95 807.5 315.1 810.5 298.9 813.5 297.05 816.5 296.8 819.5 291.5 822.5 295.05 825.5 302.35 828.5 304.9 831.5 302.5 834.5 311 837.5 310.05 840.5 302.3 843.5 298.25 846.5 298.25 849.5 295.25 852.5 291.55 855.5 283.95 858.5 299.1 861.5 315.6 864.5 296.8 867.5 302.65 870.5 304.4 873.5 307.25 876.5 318.4 879.5 313.95 882.5 331.5 885.5 329.15 888.5 311.75 891.5 305.65 894.5 301.35 897.5 304.05 900.5 300.95 903.5 307.1 906.5 322.95 909.5 327.8 912.5 326.25 915.5 326 918.5 350 921.5 369.7 924.5 364.95 927.5 353.9 930.5 360.95 933.5 332.4 936.5 323.2 939.5 307.2 942.5 311 945.5 330.05 948.5 342.3 951.5 341.9 954.5 341.4 957.5 333.7 960.5 323.45 963.5 324.2 966.5 329.8 969.5 333.8 972.5 335.65 975.5 344.45 978.5 347.8 981.5 345.15 984.5 342.6 987.5 350 990.5 351.55 993.5 352.45 996.5 336.95 999.5 330.5 1002.5 327.55 1005.5 316.75 1008.5 324.9 1011.5 337.3 1014.5 343.85 1017.5 362.55 1020.5 363.9 1023.5 374.8 1026.5 372.05 1029.5 369.4 1032.5 351.25 1035.5 361.35 1038.5 368.45 1041.5 377.5 1044.5 375.6 1047.5 378.5 1050.5 365.3 1053.5 374.7 1056.5 390.2 1059.5 395.1 1062.5 368.3 1065.5 348.35 1068.5 337.05 1071.5 341.45 1074.5 352.7 1077.5 352.3 1080.5 365.2 1083.5 341.95 1086.5 346.5 1089.5 324.2 1092.5 332.8 1095.5 321.9 1098.5 332.5 1101.5 334.95 1104.5 340.3 1107.5 344.85 1110.5 333.4 1113.5 346.35 1116.5 347.45 1119.5 353.55 1122.5 357.05 1125.5 342.05 1128.5 337.7 1131.5 344.45 1134.5 350.75 1137.5 353 1140.5 367.6 1143.5 359.4 1146.5 357.6 1149.5 356.95 1152.5 364.6 1155.5 368.75 1158.5 370.4 1161.5 380.1 1164.5 388 1167.5 392.6 1170.5 385.6 1173.5 375.5 1176.5 369.5 1179.5 362 1182.5 375.65 1185.5 375 1188.5 375.95 1191.5 380.5 1194.5 365.7 1197.5 356.2 1200.5 343.2 1203.5 319.6 1206.5 327.4 1209.5 330.85 1212.5 348.2 1215.5 365.2 1218.5 355.55 1221.5 346.1 1224.5 364.8 1227.5 370.25 1230.5 372.25 1233.5 379.45 1236.5 388.05 1239.5 383.95 1242.5 382.65 1245.5 381.6 1248.5 386.7 1251.5 362.95 1254.5 359.35 1257.5 361.95 1260.5 362.3 1263.5 361.3 1266.5 364.65 1269.5 380.5 1272.5 390.05 1275.5 390.35 1278.5 386.75 1281.5 383.85 1284.5 376.2 1287.5 364.15 1290.5 359.9 1293.5 363.9 1296.5 367.1 1299.5 363.95 1302.5 363.8 1305.5 349.7 1308.5 333 1311.5 325.7 1314.5 326.2 1317.5 319.9 1320.5 324.5 1323.5 334.15 1326.5 341.15 1329.5 364.35 1332.5 379.75 1335.5 377.3 1338.5 362.75 1341.5 348.35 1344.5 349.2 1347.5 343.05 1350.5 342.15 1353.5 341.95 1356.5 333.2 1359.5 347 1362.5 360.65 1365.5 368.15 1368.5 376.15 1371.5 369.5 1374.5 360.15 1377.5 360.55 1380.5 357.4 1383.5 361.75 1386.5 357.65 1389.5 358.3 1392.5 352.05 1395.5 344.7 1398.5 352.4 1401.5 344.65 1404.5 348.6 1407.5 349.9 1410.5 336.7 1413.5 320.35 1416.5 314.7 1419.5 320.65 1422.5 315.05 1425.5 294.55 1428.5 285.25 1431.5 281.75 1434.5 276.75 1437.5 279.4 1440.5 328.55 1443.5 351.45 1446.5 332.2 1449.5 322.25 1452.5 312.9 1455.5 297.15 1458.5 284.1 1461.5 286.2 1464.5 318 1467.5 326.05 1470.5 317.95 1473.5 313.15 1476.5 300.15 1479.5 294.5 1482.5 309.55 1485.5 309.5 1488.5 298.45 1491.5 294.8 1494.5 291.8 1497.5 283.85 1500.5 289 1503.5 308.95 1506.5 315.25 1509.5 316.7 1512.5 309.9 1515.5 292.4 1518.5 292.3 1521.5 303.6 1524.5 313.8 1527.5 292.5 1530.5 309 1533.5 308.5 1536.5 317.95 1539.5 321 1542.5 327.2 1545.5 340.4 1548.5 335.25 1551.5 328.1 1554.5 309.75 1557.5 302.65 1560.5 328.15 1563.5 319.35 1566.5 325.8 1569.5 313.25 1572.5 306.55 1575.5 315.9 1578.5 304.15 1581.5 284.25 1584.5 275.2 1587.5 272.8 1590.5 267.05 1593.5 279.55 1596.5 299.6 1599.5 292.45 1602.5 280.55 1605.5 265.15 1608.5 292.05 1611.5 272.6 1614.5 261 1617.5 239.25 1620.5 234.55 1623.5 240.55 1626.5 262.1 1629.5 274.15 1632.5 278.95 1635.5 291.3 1638.5 302.55 1641.5 302.4 1644.5 298.4 1647.5 304.6 1650.5 297.95 1653.5 303.1 1656.5 286.15 1659.5 274.55 1662.5 267.4 1665.5 285.25 1668.5 279.05 1671.5 272.2 1674.5 263 1677.5 261.5 1680.5 257.2 1683.5 258.15 1686.5 256.3 1689.5 264.5 1692.5 270.55 1695.5 264.7 1698.5 260.35 1701.5 256.95 1704.5 256.65 1707.5 257.35 1710.5 254.5 1713.5 258.15 1716.5 250.5 1719.5 246.75 1722.5 241.3 1725.5 246 1728.5 257.75 1731.5 247.9 1734.5 236.5 1737.5 226.3 1740.5 239.9 1743.5 281.55 1746.5 271.7 1749.5 255.85 1752.5 248.4 1755.5 236 1758.5 241.5 1761.5 254.5 1764.5 243.75 1767.5 247.2 1770.5 263.25 1773.5 276.75 1776.5 283.75 1779.5 274.55 1782.5 268.5 1785.5 262.1 1788.5 270.75 1791.5 278.75 1794.5 275.2 1797.5 264.85 1800.5 253.2 1803.5 252.45 1806.5 272.1 1809.5 281 1812.5 281.4 1815.5 274.35 1818.5 266.6 1821.5 279.7 1824.5 286.45 1827.5 284.95 1830.5 290.4 1833.5 292.95 1836.5 284.55 1839.5 278.8 1842.5 273.35 1845.5 278.85 1848.5 285.1 1851.5 275.05 1854.5 265.4 1857.5 260.05 1860.5 256.15 1863.5 259.7 1866.5 285.15 1869.5 292.15 1872.5 298.05 1875.5 306.8 1878.5 308.35 1881.5 296.85 1884.5 286.25 1887.5 290.55 1890.5 308.65 1893.5 317.65 1896.5 298.85 1899.5 306.55 1902.5 298.95 1905.5 297.65 1908.5 301.5 1911.5 297.15 1914.5 295.75 1917.5 284.9 1920.5 280.95 1923.5 280.65 1926.5 289.1 1929.5 301.1 1932.5 308.85 1935.5 304.75 1938.5 312 1941.5 315.6 1944.5 298.85 1947.5 290.55 1950.5 303.45 1953.5 307.85 1956.5 304.65 1959.5 304.5 1962.5 326.45 1965.5 334.45 1968.5 333.05 1971.5 320.35 1974.5 309.85 1977.5 305.4 1980.5 311.1 1983.5 304.25 1986.5 312.4 1989.5 303.3 1992.5 298.55 1995.5 298.65 1998.5 301.1 2001.5 302.45 2004.5 308.25 2007.5 305.35 2010.5 298.95 2013.5 293.35 2016.5 283.95 2019.5 315.45 2022.5 321.2 2025.5 334.55 2028.5 328.8 2031.5 302.55 2034.5 323.55 2037.5 326.45 2040.5 331.7 2043.5 315.15 2046.5 300.35 2049.5 305.5 2052.5 323.6 2055.5 337.95 2058.5 345.65 2061.5 353.7 2064.5 353 2067.5 346 2070.5 349.85 2073.5 346.8 2076.5 346.9 2079.5 347.4 2082.5 350.9 2085.5 355 2088.5 361 2091.5 362.45 2094.5 355.75 2097.5 348.2 2100.5 362.6 2103.5 370.5 2106.5 377.45 2109.5 376.8 2112.5 362.55 2115.5 364.55 2118.5 366.55 2121.5 359.4 2124.5 373.5 2127.5 366.45 2130.5 355.7 2133.5 351.9 2136.5 355.75 2139.5 364.05 2142.5 362.4 2145.5 362.9 2148.5 374.3 2151.5 377.55 2154.5 378.55 2157.5 369.15 2160.5 364.15 2163.5 368.65 2166.5 368.5 2169.5 360.65 2172.5 354.35 2175.5 346.2 2178.5 362.65 2181.5 339.55 2184.5 328.2 2187.5 337.8 2190.5 337.9 2193.5 354.35 2196.5 354.7 2199.5 350.2 2202.5 345.8 2205.5 357.45 2208.5 366.95 2211.5 353.65 2214.5 349.65 2217.5 346 2220.5 341.95 2223.5 346.45 2226.5 346.7 2229.5 327.6 2232.5 372 2235.5 372 2238.5 344.1 2241.5 345.8 2244.5 340.5 2247.5 344.55 2250.5 349.35 2253.5 352.55 2256.5 343.85 2259.5 343.75 2262.5 356.2 2265.5 358.95 2268.5 349.45 2271.5 349.35 2274.5 348.85 2277.5 354 2280.5 359 2283.5 366.6 2286.5 350.55 2289.5 351.15 2292.5 355.25 2295.5 367.8 2298.5 368.95 2301.5 360.8 2304.5 355.4 2307.5 354.3 2310.5 353.15 2313.5 352.6 2316.5 355.25 2319.5 339.1 2322.5 344.65 2325.5 350.3 2328.5 343.8 2331.5 345.85 2334.5 346.4 2337.5 346.8 2340.5 344.2 2343.5 348.85 2346.5 336.25 2349.5 344 2352.5 342.45 2355.5 346.15 2358.5 339.9 2361.5 335.2 2364.5 341.75 2367.5 344.15 2370.5 339.6 2373.5 340.65 2376.5 336 2379.5 336.4 2382.5 345.1 2385.5 337.9 2388.5 349.65 2391.5 350.25 2394.5 349.7 2397.5 352.25 2400.5 341.8 2403.5 339.2 2406.5 335.65 2409.5 327.2 2412.5 325.65 2415.5 326 2418.5 327.2 2421.5 325.8 2424.5 319.85 2427.5 315.2 2430.5 322.55 2433.5 313.05 2436.5 307.75 2439.5 302.9 2442.5 313.3 2445.5 309.55 2448.5 299.35 2451.5 323.6 2454.5 350.7 2457.5 350.45 2460.5 348.35 2463.5 351 2466.5 336.1 2469.5 320.5 2472.5 313.5 2475.5 305.95 2478.5 303.3 2481.5 298.8 2484.5 292.3 2487.5 296.9 2490.5 302.65 2493.5 311.15 2496.5 303.8 2499.5 296.25 2502.5 307.1 2505.5 314.2 2508.5 311.05 2511.5 299.2 2514.5 292.75 2517.5 294.85 2520.5 307.8 2523.5 327.05 2526.5 330.5 2529.5 321.55 2532.5 335.05 2535.5 341.1 2538.5 318.95 2541.5 312.75 2544.5 299.2 2547.5 292.05 2550.5 286.85 2553.5 290.1 2556.5 296.45 2559.5 324 2562.5 328.9 2565.5 320.2 2568.5 320.75 2571.5 311.55 2574.5 315.65 2577.5 330.35 2580.5 324.2 2583.5 307.25 2586.5 293.35 2589.5 304.8 2592.5 294.25 2595.5 290.7 2598.5 282.45 2601.5 308.35 2604.5 319.3 2607.5 326.85 2610.5 327.5 2613.5 326.4 2616.5 372 2619.5 302 2622.5 293.95 2625.5 278.8 2628.5 274.55 2631.5 266.45 2634.5 270.7 2637.5 293.7 2640.5 291.85 2643.5 280 2646.5 287.45 2649.5 301.35 2652.5 294.55 2655.5 289.95 2658.5 304.4 2661.5 303.35 2664.5 289.95 2667.5 288.85 2670.5 286.95 2673.5 294.4 2676.5 291.3 2679.5 271.65 2682.5 252.9 2685.5 243.45 2688.5 235.65 2691.5 233.8 2694.5 248.95 2697.5 254.95 2700.5 266.75 2703.5 276.7 2706.5 279.8 2709.5 277.85 2712.5 278.3 2715.5 276.05 2718.5 271 2721.5 273.4 2724.5 272.4 2727.5 264.4 2730.5 271.9 2733.5 281.9 2736.5 279.6 2739.5 278.25 2742.5 265.65 2745.5 267.7 2748.5 294.6 2751.5 295.7 2754.5 282.6 2757.5 291.65 2760.5 274.65 2763.5 268 2766.5 274.9 2769.5 260.45 2772.5 273.4 2775.5 295.4 2778.5 305.85 2781.5 308.4 2784.5 291.5 2787.5 284.2 2790.5 283.55 2793.5 274.65 2796.5 269.75 2799.5 262.15 2802.5 252.55 2805.5 248.85 2808.5 243.05 2811.5 257.85 2814.5 282.45 2817.5 282.8 2820.5 265.55 2823.5 266.6 2826.5 260.2 2829.5 280.4 2832.5 281.2 2835.5 273.8 2838.5 284.95 2841.5 284.3 2844.5 268.95 2847.5 269.3 2850.5 266.4 2853.5 277.45 2856.5 273.35 2859.5 269.35 2862.5 271.6 2865.5 267.2 2868.5 260.15 2871.5 261.7 2874.5 262 2877.5 283.1 2880.5 277.35 2883.5 289.9 2886.5 288.65 2889.5 299.8 2892.5 298.6 2895.5 290.95 2898.5 280.75 2901.5 284.9 2904.5 286.2 2907.5 288.45 2910.5 285.05 2913.5 294.25 2916.5 299.05 2919.5 298.25 2922.5 288.8 2925.5 283.65 2928.5 274.85 2931.5 277.1 2934.5 274.35 2937.5 292.75 2940.5 298.65 2943.5 294.3 2946.5 290.85 2949.5 280.2 2952.5 275.7 2955.5 271.05 2958.5 268.9 2961.5 264.05 2964.5 272.7 2967.5 280.85 2970.5 294.75 2973.5 307.15 2976.5 297.9 2979.5 288.55 2982.5 284 2985.5 279.45 2988.5 278.1 2991.5 276.85 2994.5 273.1 2997.5 273.55 3000.5 286.55 3003.5 303.95 3006.5 312.55 3009.5 304.95 3012.5 304.7 3015.5 305.4"/></g></svg>