<svg xmlns="http://www.w3.org/2000/svg" viewBox="0 0 318.241 256.103"><defs><style>.a,.e,.f,.g{isolation:isolate;}.b,.i{fill:#df003e;}.b{opacity:0.201;}.c,.k{fill:#6700bd;}.c{opacity:0.198;}.d{fill:#fff;}.e,.g,.j{fill:none;}.e,.g{stroke:#fff;stroke-linejoin:round;}.e,.j{stroke-width:0.5px;}.e{stroke-dasharray:0.5 0.825;}.f{opacity:0.6;}.g{stroke-width:2px;}.h{opacity:0.2;mix-blend-mode:color-burn;}.j{stroke:#000;stroke-miterlimit:10;}</style></defs><title>change-cleaned</title><g class="a"><rect class="b" width="304.364" height="148.001"/><rect class="c" y="147.684" width="304.364" height="109.267"/><path class="d" d="M238.582,227.235a5.635,5.635,0,0,1,3.99-1.453,5.367,5.367,0,0,1,3.715,1.342,4.367,4.367,0,0,1,1.5,3.4,5.368,5.368,0,0,1-.8,2.8,23.321,23.321,0,0,1-3.088,3.709l-3.844,3.973v.187h8.016v1.9H237.123v-1.453l5.718-6.188a21.515,21.515,0,0,0,2.2-2.666,3.711,3.711,0,0,0,.585-2.033,2.989,2.989,0,0,0-3.2-3.129,3.336,3.336,0,0,0-2.449.914,3.241,3.241,0,0,0-.926,2.414h-2.039A4.846,4.846,0,0,1,238.582,227.235Z"/><path class="d" d="M252.357,241.169a14.306,14.306,0,0,1,.012-13.055,5.33,5.33,0,0,1,8.818.006,14.367,14.367,0,0,1,.012,13.061,5.38,5.38,0,0,1-8.842-.012Zm7.295-1.33a11.056,11.056,0,0,0,.99-5.209,10.887,10.887,0,0,0-1-5.18,3.157,3.157,0,0,0-5.719.006,10.794,10.794,0,0,0-1.013,5.174,10.946,10.946,0,0,0,1,5.2,3.18,3.18,0,0,0,5.742.006Z"/><path class="d" d="M270.054,243.091V228.524h-.187q-1.3.938-2.151,1.559t-2.15,1.559v-2.227q1.359-.972,2.25-1.617t2.25-1.617h2.1v16.91Z"/><path class="d" d="M278.171,241.333q-1.8-2.145-1.8-6.41a11.259,11.259,0,0,1,1.752-6.75,5.584,5.584,0,0,1,4.752-2.391,5.783,5.783,0,0,1,3.761,1.178,4.946,4.946,0,0,1,1.782,3.146h-2.168a2.9,2.9,0,0,0-1.137-1.816,3.613,3.613,0,0,0-2.168-.633,3.747,3.747,0,0,0-3.287,1.746,9.637,9.637,0,0,0-1.236,5.192h.187a4.518,4.518,0,0,1,1.805-1.916,5.277,5.277,0,0,1,2.695-.686,5.343,5.343,0,0,1,3.984,1.6,5.556,5.556,0,0,1,1.571,4.06A5.626,5.626,0,0,1,287,241.837a5.821,5.821,0,0,1-4.266,1.64A5.706,5.706,0,0,1,278.171,241.333Zm7.26-.826a3.819,3.819,0,0,0,1.1-2.783,3.86,3.86,0,0,0-1.061-2.819,3.662,3.662,0,0,0-2.736-1.084,3.7,3.7,0,0,0-3.844,3.832,3.927,3.927,0,0,0,1.1,2.836,3.854,3.854,0,0,0,5.449.018Z"/><path class="d" d="M20.214,243.09V228.523h-.187q-1.3.938-2.15,1.559t-2.151,1.559v-2.227q1.359-.972,2.25-1.617t2.25-1.617h2.1v16.91Z"/><path class="d" d="M28.626,242.31a5.133,5.133,0,0,1-1.893-3.158H28.9a3.314,3.314,0,0,0,1.248,1.793A3.8,3.8,0,0,0,35.5,239.82a10.056,10.056,0,0,0,1.225-5.156h-.187a4.524,4.524,0,0,1-1.8,1.916,5.28,5.28,0,0,1-2.695.686,5.349,5.349,0,0,1-3.985-1.6,5.556,5.556,0,0,1-1.57-4.061,5.62,5.62,0,0,1,1.664-4.189,5.83,5.83,0,0,1,4.266-1.635,5.738,5.738,0,0,1,4.546,2.121q1.816,2.121,1.817,6.434a11.53,11.53,0,0,1-1.7,6.75,5.549,5.549,0,0,1-4.8,2.39A5.747,5.747,0,0,1,28.626,242.31Zm6.55-7.951a3.715,3.715,0,0,0,1.084-2.754,3.928,3.928,0,0,0-1.095-2.836,3.857,3.857,0,0,0-5.45-.017,4.178,4.178,0,0,0-.035,5.6,3.659,3.659,0,0,0,2.737,1.084A3.746,3.746,0,0,0,35.176,234.359Z"/><path class="d" d="M43.346,242.111a4.591,4.591,0,0,1-.744-6.381,4.136,4.136,0,0,1,2.555-1.476v-.188A3.716,3.716,0,0,1,43.1,232.7a3.877,3.877,0,0,1-.767-2.4,4.036,4.036,0,0,1,1.517-3.246,5.861,5.861,0,0,1,3.885-1.266,5.856,5.856,0,0,1,3.891,1.266,4.045,4.045,0,0,1,1.511,3.246,3.893,3.893,0,0,1-.756,2.4,3.731,3.731,0,0,1-2.068,1.377v.188a4.136,4.136,0,0,1,2.555,1.476,4.6,4.6,0,0,1-.739,6.381,6.756,6.756,0,0,1-4.394,1.377A6.766,6.766,0,0,1,43.346,242.111Zm7.248-1.336a3.08,3.08,0,0,0,0-4.722,4.951,4.951,0,0,0-5.718,0,3.08,3.08,0,0,0,0,4.722,4.951,4.951,0,0,0,5.718,0Zm-.445-8.2a2.618,2.618,0,0,0,.914-2.08,2.661,2.661,0,0,0-.914-2.109,4.054,4.054,0,0,0-4.828,0,2.661,2.661,0,0,0-.914,2.109,2.608,2.608,0,0,0,.92,2.08,4.07,4.07,0,0,0,4.822,0Z"/><path class="d" d="M58.357,241.168a14.306,14.306,0,0,1,.012-13.055,5.33,5.33,0,0,1,8.818.006A14.367,14.367,0,0,1,67.2,241.18a5.38,5.38,0,0,1-8.842-.012Zm7.3-1.33a11.056,11.056,0,0,0,.99-5.209,10.887,10.887,0,0,0-1-5.18,3.157,3.157,0,0,0-5.719.006,10.794,10.794,0,0,0-1.013,5.174,10.946,10.946,0,0,0,1,5.2,3.18,3.18,0,0,0,5.742.006Z"/><path class="e" d="M0,211.244l304.364.317"/><g class="f"><path d="M308.992,214.157V209.3h-.063c-.289.208-.528.382-.717.519s-.427.312-.716.52V209.6l.75-.54q.3-.215.75-.539h.7v5.637Z"/><path d="M311.844,213.517a4.772,4.772,0,0,1,0-4.352,1.778,1.778,0,0,1,2.94,0,4.79,4.79,0,0,1,0,4.353,1.794,1.794,0,0,1-2.948,0Zm2.432-.444a3.683,3.683,0,0,0,.33-1.736,3.628,3.628,0,0,0-.334-1.727,1.052,1.052,0,0,0-1.906,0,3.587,3.587,0,0,0-.338,1.725,3.64,3.64,0,0,0,.334,1.734,1.059,1.059,0,0,0,1.914,0Z"/></g><path class="e" d="M0,179.566l304.364.317"/><g class="f"><path d="M312.067,182.161a1.619,1.619,0,0,1-.57-1.172h.691a1.045,1.045,0,0,0,.381.726,1.257,1.257,0,0,0,.83.278,1.152,1.152,0,0,0,.891-.366,1.353,1.353,0,0,0,.336-.955,1.291,1.291,0,0,0-.332-.922,1.138,1.138,0,0,0-.868-.351,1.384,1.384,0,0,0-.707.176,1.218,1.218,0,0,0-.472.488h-.66l.324-3.223h3.129v.629h-2.578l-.176,1.836h.062a1.31,1.31,0,0,1,.52-.383,1.918,1.918,0,0,1,.734-.129,1.657,1.657,0,0,1,1.219.51,1.828,1.828,0,0,1,.508,1.35,1.925,1.925,0,0,1-.537,1.414,1.884,1.884,0,0,1-1.4.543A1.966,1.966,0,0,1,312.067,182.161Z"/></g><path class="g" d="M0,147.888l304.364.316"/><g class="f"><path d="M311.844,150.159a4.772,4.772,0,0,1,0-4.352,1.778,1.778,0,0,1,2.94,0,4.792,4.792,0,0,1,0,4.354,1.795,1.795,0,0,1-2.948,0Zm2.432-.444a3.671,3.671,0,0,0,.33-1.736,3.628,3.628,0,0,0-.334-1.727,1.052,1.052,0,0,0-1.906,0,3.6,3.6,0,0,0-.338,1.725,3.64,3.64,0,0,0,.334,1.734,1.059,1.059,0,0,0,1.914,0Z"/></g><path class="e" d="M0,116.209l304.364.317"/><g class="f"><path d="M312.067,118.805a1.617,1.617,0,0,1-.57-1.172h.691a1.047,1.047,0,0,0,.381.727,1.262,1.262,0,0,0,.83.277,1.154,1.154,0,0,0,.891-.365,1.354,1.354,0,0,0,.336-.955,1.289,1.289,0,0,0-.332-.922,1.139,1.139,0,0,0-.868-.352,1.394,1.394,0,0,0-.707.176,1.218,1.218,0,0,0-.472.488h-.66l.324-3.222h3.129v.629h-2.578l-.176,1.836h.062a1.31,1.31,0,0,1,.52-.383,1.918,1.918,0,0,1,.734-.129,1.657,1.657,0,0,1,1.219.51,1.827,1.827,0,0,1,.508,1.349,1.924,1.924,0,0,1-.537,1.414,1.88,1.88,0,0,1-1.4.543A1.961,1.961,0,0,1,312.067,118.805Z"/></g><path class="e" d="M0,84.531l304.364.317"/><g class="f"><path d="M308.992,87.444V82.588h-.063c-.289.208-.527.382-.717.52s-.427.311-.716.519v-.742q.453-.324.75-.539t.75-.539h.7v5.637Z"/><path d="M311.844,86.8a4.77,4.77,0,0,1,0-4.351,1.776,1.776,0,0,1,2.94,0,4.79,4.79,0,0,1,0,4.353,1.793,1.793,0,0,1-2.948,0Zm2.432-.443a3.678,3.678,0,0,0,.33-1.737,3.621,3.621,0,0,0-.334-1.726,1.052,1.052,0,0,0-1.906,0,3.6,3.6,0,0,0-.338,1.724,3.648,3.648,0,0,0,.334,1.735,1.06,1.06,0,0,0,1.914,0Z"/></g><path class="e" d="M0,52.277l304.363.317"/><g class="f"><path d="M309.134,55.19V50.334h-.062c-.289.208-.527.382-.717.52s-.428.311-.717.519v-.742q.454-.324.75-.539l.75-.539h.7V55.19Z"/><path d="M312.068,54.873a1.615,1.615,0,0,1-.57-1.171h.691a1.045,1.045,0,0,0,.381.726,1.257,1.257,0,0,0,.83.277,1.154,1.154,0,0,0,.891-.365,1.353,1.353,0,0,0,.336-.955,1.291,1.291,0,0,0-.332-.922,1.138,1.138,0,0,0-.868-.351,1.384,1.384,0,0,0-.707.176,1.218,1.218,0,0,0-.472.488h-.661l.325-3.223h3.129v.629h-2.579l-.175,1.836h.062a1.31,1.31,0,0,1,.52-.383,1.918,1.918,0,0,1,.734-.129,1.657,1.657,0,0,1,1.219.51,1.828,1.828,0,0,1,.508,1.35,1.925,1.925,0,0,1-.537,1.414,1.884,1.884,0,0,1-1.4.543A1.962,1.962,0,0,1,312.068,54.873Z"/></g><path class="e" d="M0,20.915l304.363.317"/><g class="f"><path d="M307.044,18.543a1.876,1.876,0,0,1,1.33-.484,1.791,1.791,0,0,1,1.238.447,1.458,1.458,0,0,1,.5,1.135,1.791,1.791,0,0,1-.268.931,7.806,7.806,0,0,1-1.029,1.237l-1.281,1.324V23.2h2.672v.633h-3.649v-.484l1.906-2.063a7.16,7.16,0,0,0,.735-.889,1.235,1.235,0,0,0,.195-.677,1.04,1.04,0,0,0-.283-.746,1.029,1.029,0,0,0-.783-.3,1.111,1.111,0,0,0-.817.3,1.081,1.081,0,0,0-.308.8h-.68A1.613,1.613,0,0,1,307.044,18.543Z"/><path d="M311.845,23.187a3.869,3.869,0,0,1-.523-2.179,3.84,3.84,0,0,1,.527-2.172,1.778,1.778,0,0,1,2.94,0,3.875,3.875,0,0,1,.525,2.181,3.85,3.85,0,0,1-.521,2.172,1.793,1.793,0,0,1-2.948,0Zm2.432-.443a3.671,3.671,0,0,0,.33-1.736,3.626,3.626,0,0,0-.334-1.727,1.052,1.052,0,0,0-1.906,0,3.6,3.6,0,0,0-.338,1.725,3.64,3.64,0,0,0,.334,1.734,1.059,1.059,0,0,0,1.914,0Z"/></g><g class="h"><path class="i" d="M0,165.573v-6c55.514,0,105.475-19.311,153.791-37.986,47.582-18.391,96.783-37.408,150.573-37.408v6c-52.671,0-99.175,17.975-148.41,37C107.125,146.057,56.633,165.573,0,165.573Z"/></g><g class="h"><path class="i" d="M0,176.977v-6c55.394,0,105.308-23.832,153.58-46.879,47.626-22.741,96.875-46.255,150.784-46.255v6c-52.551,0-99.011,22.183-148.2,45.669C107.291,152.848,56.753,176.977,0,176.977Z"/></g><g class="h"><path class="i" d="M0,176.977v-6c55.406,0,105.325-23.348,153.6-45.927,47.622-22.274,96.865-45.306,150.763-45.306v6c-52.564,0-99.028,21.732-148.221,44.741C107.274,153.342,56.74,176.977,0,176.977Z"/></g><g class="h"><path class="i" d="M0,187.748v-6c55.328,0,105.17-25.429,153.373-50.021,47.65-24.311,96.922-49.449,150.991-49.449v6c-52.627,0-99.082,23.7-148.265,48.793C107.266,161.986,56.77,187.748,0,187.748Z"/></g><g class="h"><path class="i" d="M0,161.772v-6c55.428,0,105.308-21.558,153.545-42.406C201.16,92.787,250.4,71.507,304.364,71.507v6c-52.728,0-99.218,20.093-148.438,41.366C107.128,139.963,56.67,161.772,0,161.772Z"/></g><g class="h"><path class="i" d="M.015,191.549l-.03-6c55.376-.277,105.2-17.358,153.376-33.876,47.725-16.362,97.075-33.281,151-33.281v6c-52.928,0-99.622,16.008-149.058,32.957C106.669,174.024,56.376,191.267.015,191.549Z"/></g><g class="h"><path class="i" d="M0,163.672v-6c55.628,0,105.566-13.8,153.861-27.14,47.532-13.133,96.683-26.713,150.5-26.713v6c-53.007,0-101.759,13.47-148.9,26.5C106.779,149.765,56.442,163.672,0,163.672Z"/></g><g class="h"><path class="i" d="M.017,171.909l-.034-6c55.176-.315,104.822-24.125,152.833-47.152,47.784-22.918,97.2-46.616,151.548-46.616v6c-52.988,0-99.6,22.356-148.953,46.026C106.8,147.48,56.54,171.587.017,171.909Z"/></g><g class="h"><path class="i" d="M0,194.084v-6c55.308,0,105.193-27.221,153.435-53.546,47.655-26,96.934-52.894,150.929-52.894v6c-52.465,0-98.9,25.337-148.055,52.162C107.406,166.491,56.838,194.084,0,194.084Z"/></g><g class="h"><path class="i" d="M0,152.9v-6c55.32,0,105.209-26.737,153.455-52.593C201.107,68.77,250.38,42.363,304.364,42.363v6c-52.477,0-98.912,24.886-148.074,51.234C107.39,125.8,56.826,152.9,0,152.9Z"/></g><g class="h"><path class="i" d="M0,179.512v-6c55.571,0,105.556-17.21,153.9-33.853,47.559-16.374,96.736-33.306,150.469-33.306v6c-52.729,0-99.256,16.019-148.516,32.979C107.043,162.136,56.575,179.512,0,179.512Z"/></g><g class="h"><path class="i" d="M0,184.58v-6c55.536,0,105.505-18.5,153.831-36.4,47.572-17.616,96.765-35.831,150.533-35.831v6c-52.693,0-99.206,17.223-148.45,35.457C107.093,165.888,56.611,184.58,0,184.58Z"/></g><g class="h"><path class="i" d="M0,170.008v-6c55.562,0,105.544-17.533,153.878-34.489,47.563-16.684,96.745-33.936,150.486-33.936v6c-52.719,0-99.243,16.32-148.5,33.6C107.055,152.3,56.584,170.008,0,170.008Z"/></g><g class="h"><path class="i" d="M0,171.275v-6c55.637,0,105.606-13.964,153.928-27.469,47.53-13.283,96.677-27.018,150.436-27.018v6c-52.937,0-101.681,13.623-148.82,26.8C106.831,157.2,56.46,171.275,0,171.275Z"/></g><g class="h"><path class="i" d="M0,191.55v-6c55.14,0,104.976-34.316,153.17-67.5C200.874,85.2,250.2,51.233,304.364,51.233v6c-52.3,0-98.682,31.94-147.79,65.756C107.623,156.7,57.006,191.55,0,191.55Z"/></g><g class="h"><path class="i" d="M0,118.056v-6c55.667,0,105.694-13.812,154.074-27.169C201.591,71.768,250.727,58.2,304.364,58.2v6c-52.823,0-99.392,12.856-148.694,26.468C106.905,104.134,56.48,118.056,0,118.056Z"/></g><g class="h"><path class="i" d="M0,174.443v-6c55.558,0,105.537-17.7,153.871-34.806,47.564-16.84,96.748-34.253,150.493-34.253v6c-52.715,0-99.237,16.471-148.49,33.908C107.062,156.574,56.588,174.443,0,174.443Z"/></g><g class="h"><path class="i" d="M0,196.618v-6c55.411,0,105.35-23.515,153.644-46.256,47.621-22.424,96.862-45.611,150.72-45.611v6c-52.516,0-98.976,21.877-148.163,45.039C107.309,172.812,56.753,196.618,0,196.618Z"/></g><g class="h"><path class="i" d="M0,166.207v-6c55.565,0,105.5-16.552,153.793-32.559,47.559-15.764,96.739-32.065,150.571-32.065v6c-52.863,0-99.407,15.427-148.684,31.761C106.936,149.5,56.533,166.207,0,166.207Z"/></g><g class="h"><path class="i" d="M0,175.71v-6c55.369,0,105.274-24.8,153.537-48.785,47.635-23.672,96.892-48.151,150.827-48.151v6c-52.526,0-98.978,23.085-148.156,47.524C107.324,150.591,56.777,175.71,0,175.71Z"/></g><g class="h"><path class="i" d="M.232,210.557H0l.01-6H.231c55.015,0,104.789-37.373,152.93-73.519,47.69-35.809,97.005-72.835,151.2-72.835v6c-52.2,0-98.538,34.794-147.6,71.633C107.837,172.571,57.245,210.557.232,210.557Z"/></g><g class="h"><path class="i" d="M0,152.9v-6c55.532,0,105.508-17.854,153.838-35.121,47.577-17,96.772-34.572,150.526-34.572v6c-52.715,0-99.245,16.623-148.507,34.223C107.045,134.87,56.571,152.9,0,152.9Z"/></g><g class="h"><path class="i" d="M0,171.909v-6c55.292,0,105.171-27.866,153.409-54.815,47.66-26.626,96.943-54.159,150.955-54.159v6c-52.449,0-98.876,25.937-148.028,53.4C107.427,143.655,56.855,171.909,0,171.909Z"/></g><g class="h"><path class="i" d="M0,161.772v-6c55.308,0,105.193-27.221,153.435-53.546,47.655-26,96.934-52.894,150.929-52.894v6c-52.465,0-98.9,25.337-148.055,52.162C107.406,134.179,56.838,161.772,0,161.772Z"/></g><g class="h"><path class="i" d="M0,129.46v-6c55.667,0,105.694-13.812,154.074-27.169,47.517-13.119,96.653-26.684,150.29-26.684v6c-52.823,0-99.392,12.856-148.694,26.468C106.905,115.538,56.48,129.46,0,129.46Z"/></g><path class="i" d="M.02,180.145l-.039-6C55.074,173.784,104.8,131.2,152.89,90.016,200.615,49.145,249.964,6.884,304.364,6.884v6c-52.182,0-98.516,39.679-147.571,81.689C107.883,136.458,57.309,179.769.02,180.145Z"/><path d="M17.54,17.555h-.791v-5.63H14.705v-.712h4.878v.712H17.54Z"/><path d="M20.821,17.555V10.936h.756v2.628h.071a1.354,1.354,0,0,1,.547-.61,1.74,1.74,0,0,1,.912-.22,1.577,1.577,0,0,1,1.192.459,1.789,1.789,0,0,1,.442,1.294v3.068h-.756V14.672a1.39,1.39,0,0,0-.278-.943,1.037,1.037,0,0,0-.816-.314,1.261,1.261,0,0,0-.975.367,1.373,1.373,0,0,0-.339.969v2.8Z"/><path d="M29.38,16.329h.756a1.655,1.655,0,0,1-.694.96,2.3,2.3,0,0,1-1.3.349,1.96,1.96,0,0,1-1.56-.662,2.623,2.623,0,0,1-.576-1.786,2.633,2.633,0,0,1,.581-1.786,1.951,1.951,0,0,1,1.555-.67,1.885,1.885,0,0,1,1.508.639,2.588,2.588,0,0,1,.549,1.743v.29H26.792v.035a1.739,1.739,0,0,0,.4,1.116,1.233,1.233,0,0,0,.969.413,1.614,1.614,0,0,0,.764-.164A1.04,1.04,0,0,0,29.38,16.329ZM27.2,13.784a1.571,1.571,0,0,0-.409,1.011H29.4a1.489,1.489,0,0,0-.36-1.011,1.17,1.17,0,0,0-.91-.382A1.229,1.229,0,0,0,27.2,13.784Z"/><path d="M37.844,14.267H37.08a1.142,1.142,0,0,0-.4-.6,1.266,1.266,0,0,0-.82-.25,1.224,1.224,0,0,0-1.013.475,2,2,0,0,0-.376,1.278,2.067,2.067,0,0,0,.378,1.306,1.218,1.218,0,0,0,1.011.483,1.4,1.4,0,0,0,.8-.215,1.034,1.034,0,0,0,.425-.616h.764a1.708,1.708,0,0,1-.615,1.081,2.054,2.054,0,0,1-1.367.431,2.006,2.006,0,0,1-1.584-.67,2.624,2.624,0,0,1-.591-1.8,2.57,2.57,0,0,1,.589-1.771,2.268,2.268,0,0,1,2.959-.213A1.765,1.765,0,0,1,37.844,14.267Z"/><path d="M39.317,17.258a1.276,1.276,0,0,1-.454-1.031q0-1.3,1.727-1.4l1.367-.084v-.431q0-.9-1.073-.9a1.454,1.454,0,0,0-.707.154.705.705,0,0,0-.361.435h-.764a1.266,1.266,0,0,1,.589-.916,2.227,2.227,0,0,1,1.27-.345,1.932,1.932,0,0,1,1.333.419,1.475,1.475,0,0,1,.468,1.158v3.244h-.72v-.7h-.071a1.555,1.555,0,0,1-.606.58,1.776,1.776,0,0,1-.853.2A1.725,1.725,0,0,1,39.317,17.258Zm2.255-.624a1.086,1.086,0,0,0,.385-.846v-.435l-1.275.083q-1.037.071-1.037.774a.659.659,0,0,0,.273.562,1.116,1.116,0,0,0,.685.2A1.407,1.407,0,0,0,41.572,16.634Z"/><path d="M44.228,17.555V12.817h.72v.747h.071a1.388,1.388,0,0,1,.529-.61,1.65,1.65,0,0,1,.894-.22,1.607,1.607,0,0,1,1.228.454,1.819,1.819,0,0,1,.429,1.3v3.068h-.756V14.672a1.393,1.393,0,0,0-.274-.949,1.071,1.071,0,0,0-.842-.308,1.19,1.19,0,0,0-.9.356,1.363,1.363,0,0,0-.339.98v2.8Z"/><path d="M49.856,11.591h.756v1.226h1.055v.633H50.612v2.681a.9.9,0,0,0,.167.606.681.681,0,0,0,.536.189c.067,0,.126,0,.173,0l.179-.013v.637c-.074.014-.147.025-.22.033s-.148.011-.224.011a1.516,1.516,0,0,1-1.048-.295,1.269,1.269,0,0,1-.319-.971V13.45h-.765v-.633h.765Z"/><path d="M53.112,16.981a2.6,2.6,0,0,1-.586-1.8,2.6,2.6,0,0,1,.586-1.8,2.277,2.277,0,0,1,3.2,0,2.6,2.6,0,0,1,.586,1.8,2.6,2.6,0,0,1-.586,1.8,2.272,2.272,0,0,1-3.2,0Zm2.635-.49a2.07,2.07,0,0,0,.365-1.3,2.068,2.068,0,0,0-.365-1.307,1.391,1.391,0,0,0-2.074,0,2.068,2.068,0,0,0-.365,1.307,2.07,2.07,0,0,0,.365,1.3,1.387,1.387,0,0,0,2.074,0Z"/><path d="M58.207,17.555V12.817h.72v.747H59a1.388,1.388,0,0,1,.529-.61,1.65,1.65,0,0,1,.894-.22,1.607,1.607,0,0,1,1.228.454,1.819,1.819,0,0,1,.429,1.3v3.068h-.756V14.672a1.393,1.393,0,0,0-.274-.949,1.071,1.071,0,0,0-.842-.308,1.19,1.19,0,0,0-.905.356,1.363,1.363,0,0,0-.339.98v2.8Z"/><path d="M66.347,16.981a2.6,2.6,0,0,1-.586-1.8,2.6,2.6,0,0,1,.586-1.8,2.277,2.277,0,0,1,3.2,0,2.6,2.6,0,0,1,.586,1.8,2.6,2.6,0,0,1-.586,1.8,2.272,2.272,0,0,1-3.2,0Zm2.635-.49a2.07,2.07,0,0,0,.365-1.3,2.068,2.068,0,0,0-.365-1.307,1.391,1.391,0,0,0-2.074,0,2.068,2.068,0,0,0-.365,1.307,2.07,2.07,0,0,0,.365,1.3,1.387,1.387,0,0,0,2.074,0Z"/><path d="M71.669,17.555V13.45h-.787v-.633h.787V12.29a1.423,1.423,0,0,1,.349-1.053,1.406,1.406,0,0,1,1.026-.345c.094,0,.183,0,.266.011s.165.019.244.033v.616a1.174,1.174,0,0,0-.163-.018c-.061,0-.126,0-.193,0a.776.776,0,0,0-.591.2.833.833,0,0,0-.183.587v.505H73.51v.633H72.424v4.105Z"/><path d="M76.815,16.074H77.6a.875.875,0,0,0,.292.65,1.049,1.049,0,0,0,.728.251,1,1,0,0,0,.784-.3,1.28,1.28,0,0,0,.275-.887V11.213h.791v4.575a1.937,1.937,0,0,1-.492,1.411,1.8,1.8,0,0,1-1.354.5,1.893,1.893,0,0,1-1.3-.45A1.5,1.5,0,0,1,76.815,16.074Z"/><path d="M85.974,12.817v4.738h-.721v-.743h-.07a1.3,1.3,0,0,1-.55.611,1.818,1.818,0,0,1-.918.215,1.54,1.54,0,0,1-1.207-.457,1.873,1.873,0,0,1-.41-1.3V12.817h.756V15.7a1.461,1.461,0,0,0,.252.942,1,1,0,0,0,.82.306,1.258,1.258,0,0,0,.96-.351,1.368,1.368,0,0,0,.332-.976v-2.8Z"/><path d="M87.508,17.555V12.817h.721v.7h.07a1,1,0,0,1,.475-.566,1.6,1.6,0,0,1,.839-.22c.062,0,.128,0,.2.006s.13.01.177.016v.756a1.471,1.471,0,0,0-.206-.029c-.109-.01-.2-.015-.277-.015a1.261,1.261,0,0,0-.892.325,1.074,1.074,0,0,0-.352.826v2.936Z"/><path d="M91.245,17.258a1.273,1.273,0,0,1-.454-1.031q0-1.3,1.727-1.4l1.366-.084v-.431q0-.9-1.072-.9a1.454,1.454,0,0,0-.707.154.705.705,0,0,0-.361.435H90.98a1.265,1.265,0,0,1,.588-.916,2.231,2.231,0,0,1,1.27-.345,1.934,1.934,0,0,1,1.334.419,1.478,1.478,0,0,1,.468,1.158v3.244h-.72v-.7h-.071a1.555,1.555,0,0,1-.606.58,1.776,1.776,0,0,1-.853.2A1.723,1.723,0,0,1,91.245,17.258Zm2.255-.624a1.085,1.085,0,0,0,.384-.846v-.435l-1.274.083q-1.037.071-1.037.774a.66.66,0,0,0,.272.562,1.119,1.119,0,0,0,.686.2A1.41,1.41,0,0,0,93.5,16.634Z"/><path d="M98.622,17.555V10.936h.756v2.628h.07a1.354,1.354,0,0,1,.547-.61,1.743,1.743,0,0,1,.912-.22,1.577,1.577,0,0,1,1.193.459,1.789,1.789,0,0,1,.442,1.294v3.068h-.756V14.672a1.39,1.39,0,0,0-.279-.943,1.037,1.037,0,0,0-.816-.314,1.262,1.262,0,0,0-.975.367,1.372,1.372,0,0,0-.338.969v2.8Z"/><path d="M104.222,17.258a1.273,1.273,0,0,1-.455-1.031q0-1.3,1.727-1.4l1.367-.084v-.431q0-.9-1.072-.9a1.458,1.458,0,0,0-.708.154.707.707,0,0,0-.36.435h-.765a1.266,1.266,0,0,1,.589-.916,2.229,2.229,0,0,1,1.27-.345,1.936,1.936,0,0,1,1.334.419,1.478,1.478,0,0,1,.468,1.158v3.244H106.9v-.7h-.07a1.564,1.564,0,0,1-.607.58,1.775,1.775,0,0,1-.852.2A1.721,1.721,0,0,1,104.222,17.258Zm2.255-.624a1.088,1.088,0,0,0,.384-.846v-.435l-1.274.083q-1.038.071-1.038.774a.659.659,0,0,0,.273.562,1.116,1.116,0,0,0,.685.2A1.411,1.411,0,0,0,106.477,16.634Z"/><path d="M109.491,13.129a1.987,1.987,0,0,1,1.261-.395,2.068,2.068,0,0,1,1.229.343,1.3,1.3,0,0,1,.555.927h-.747a.756.756,0,0,0-.343-.457,1.277,1.277,0,0,0-.7-.172,1.245,1.245,0,0,0-.712.2.593.593,0,0,0-.29.512.493.493,0,0,0,.2.4,1.618,1.618,0,0,0,.619.261l.73.176a2.215,2.215,0,0,1,1,.469,1.061,1.061,0,0,1,.328.814,1.226,1.226,0,0,1-.545,1.035,2.534,2.534,0,0,1-2.65.047,1.263,1.263,0,0,1-.567-.941h.778a.868.868,0,0,0,.378.477,1.359,1.359,0,0,0,.734.178,1.38,1.38,0,0,0,.786-.207.619.619,0,0,0,.308-.531.531.531,0,0,0-.187-.412,1.335,1.335,0,0,0-.565-.256l-.813-.2a2.126,2.126,0,0,1-.977-.466,1.082,1.082,0,0,1-.315-.817A1.206,1.206,0,0,1,109.491,13.129Z"/><path d="M116.742,13.129A1.987,1.987,0,0,1,118,12.734a2.068,2.068,0,0,1,1.229.343,1.3,1.3,0,0,1,.555.927h-.747a.756.756,0,0,0-.343-.457,1.277,1.277,0,0,0-.7-.172,1.245,1.245,0,0,0-.712.2.593.593,0,0,0-.29.512.493.493,0,0,0,.2.4,1.618,1.618,0,0,0,.619.261l.73.176a2.215,2.215,0,0,1,1,.469,1.061,1.061,0,0,1,.328.814,1.226,1.226,0,0,1-.545,1.035,2.534,2.534,0,0,1-2.65.047,1.263,1.263,0,0,1-.567-.941h.778a.868.868,0,0,0,.378.477A1.359,1.359,0,0,0,118,17a1.38,1.38,0,0,0,.786-.207.619.619,0,0,0,.308-.531.531.531,0,0,0-.187-.412,1.335,1.335,0,0,0-.565-.256l-.813-.2a2.126,2.126,0,0,1-.977-.466,1.082,1.082,0,0,1-.315-.817A1.206,1.206,0,0,1,116.742,13.129Z"/><path d="M124.294,16.329h.756a1.659,1.659,0,0,1-.694.96,2.3,2.3,0,0,1-1.3.349,1.958,1.958,0,0,1-1.56-.662,2.623,2.623,0,0,1-.576-1.786,2.632,2.632,0,0,1,.58-1.786,1.953,1.953,0,0,1,1.556-.67,1.883,1.883,0,0,1,1.507.639,2.588,2.588,0,0,1,.549,1.743v.29h-3.405v.035a1.733,1.733,0,0,0,.4,1.116,1.236,1.236,0,0,0,.969.413,1.616,1.616,0,0,0,.765-.164A1.045,1.045,0,0,0,124.294,16.329Zm-2.18-2.545a1.57,1.57,0,0,0-.408,1.011h2.61a1.5,1.5,0,0,0-.36-1.011,1.172,1.172,0,0,0-.91-.382A1.231,1.231,0,0,0,122.114,13.784Z"/><path d="M129.565,16.329h.756a1.659,1.659,0,0,1-.694.96,2.3,2.3,0,0,1-1.3.349,1.958,1.958,0,0,1-1.56-.662,2.623,2.623,0,0,1-.576-1.786,2.632,2.632,0,0,1,.58-1.786,1.953,1.953,0,0,1,1.556-.67,1.883,1.883,0,0,1,1.507.639,2.588,2.588,0,0,1,.549,1.743v.29h-3.405v.035a1.733,1.733,0,0,0,.4,1.116,1.236,1.236,0,0,0,.969.413,1.616,1.616,0,0,0,.765-.164A1.045,1.045,0,0,0,129.565,16.329Zm-2.18-2.545a1.57,1.57,0,0,0-.408,1.011h2.61a1.5,1.5,0,0,0-.36-1.011,1.172,1.172,0,0,0-.91-.382A1.231,1.231,0,0,0,127.385,13.784Z"/><path d="M131.7,17.555V12.817h.721v.747h.07a1.383,1.383,0,0,1,.53-.61,1.645,1.645,0,0,1,.894-.22,1.609,1.609,0,0,1,1.228.454,1.824,1.824,0,0,1,.428,1.3v3.068h-.755V14.672a1.393,1.393,0,0,0-.275-.949,1.069,1.069,0,0,0-.842-.308,1.191,1.191,0,0,0-.905.356,1.362,1.362,0,0,0-.338.98v2.8Z"/><path d="M139.807,11.591h.756v1.226h1.054v.633h-1.054v2.681a.9.9,0,0,0,.167.606.681.681,0,0,0,.536.189c.067,0,.125,0,.173,0l.178-.013v.637q-.109.021-.219.033c-.074.007-.148.011-.225.011a1.513,1.513,0,0,1-1.047-.295,1.269,1.269,0,0,1-.319-.971V13.45h-.765v-.633h.765Z"/><path d="M142.818,17.555V10.936h.756v2.628h.07a1.354,1.354,0,0,1,.547-.61,1.745,1.745,0,0,1,.912-.22,1.577,1.577,0,0,1,1.193.459,1.789,1.789,0,0,1,.442,1.294v3.068h-.756V14.672a1.385,1.385,0,0,0-.279-.943,1.035,1.035,0,0,0-.815-.314,1.265,1.265,0,0,0-.976.367,1.377,1.377,0,0,0-.338.969v2.8Z"/><path d="M151.377,16.329h.755a1.655,1.655,0,0,1-.694.96,2.3,2.3,0,0,1-1.3.349,1.958,1.958,0,0,1-1.559-.662A2.623,2.623,0,0,1,148,15.19a2.632,2.632,0,0,1,.58-1.786,1.951,1.951,0,0,1,1.555-.67,1.884,1.884,0,0,1,1.508.639,2.588,2.588,0,0,1,.549,1.743v.29h-3.405v.035a1.733,1.733,0,0,0,.4,1.116,1.233,1.233,0,0,0,.969.413,1.619,1.619,0,0,0,.765-.164A1.045,1.045,0,0,0,151.377,16.329Zm-2.18-2.545a1.57,1.57,0,0,0-.408,1.011h2.61a1.5,1.5,0,0,0-.36-1.011,1.174,1.174,0,0,0-.911-.382A1.23,1.23,0,0,0,149.2,13.784Z"/><path d="M15.4,23.929a1.984,1.984,0,0,1,1.262-.395,2.07,2.07,0,0,1,1.228.342,1.3,1.3,0,0,1,.556.928H17.7a.756.756,0,0,0-.343-.457,1.274,1.274,0,0,0-.7-.172,1.25,1.25,0,0,0-.712.2.594.594,0,0,0-.29.512.494.494,0,0,0,.2.4,1.611,1.611,0,0,0,.619.261l.73.176a2.22,2.22,0,0,1,1,.468,1.062,1.062,0,0,1,.327.815,1.224,1.224,0,0,1-.545,1.035,2.227,2.227,0,0,1-1.353.4,2.214,2.214,0,0,1-1.3-.352,1.262,1.262,0,0,1-.567-.94h.778a.871.871,0,0,0,.377.477,1.364,1.364,0,0,0,.734.178,1.381,1.381,0,0,0,.787-.207.62.62,0,0,0,.308-.532.529.529,0,0,0-.187-.411A1.347,1.347,0,0,0,17,26.394l-.813-.2a2.126,2.126,0,0,1-.977-.466,1.082,1.082,0,0,1-.315-.818A1.207,1.207,0,0,1,15.4,23.929Z"/><path d="M20.169,22.391h.756v1.226H21.98v.633H20.925v2.681a.9.9,0,0,0,.167.606.681.681,0,0,0,.536.189c.067,0,.125,0,.173,0l.179-.014v.638c-.074.014-.147.025-.22.033s-.148.011-.224.011a1.521,1.521,0,0,1-1.048-.3,1.269,1.269,0,0,1-.319-.971V24.25H19.4v-.633h.765Z"/><path d="M26.218,27.128h.756a1.661,1.661,0,0,1-.694.961,2.3,2.3,0,0,1-1.3.349,1.96,1.96,0,0,1-1.56-.662,2.623,2.623,0,0,1-.576-1.786,2.637,2.637,0,0,1,.58-1.786,1.954,1.954,0,0,1,1.556-.67,1.882,1.882,0,0,1,1.507.639,2.582,2.582,0,0,1,.55,1.742v.29H23.63v.036a1.743,1.743,0,0,0,.4,1.116,1.236,1.236,0,0,0,.97.413,1.6,1.6,0,0,0,.764-.165A1.035,1.035,0,0,0,26.218,27.128Zm-2.179-2.544A1.566,1.566,0,0,0,23.63,25.6h2.61a1.494,1.494,0,0,0-.36-1.011,1.17,1.17,0,0,0-.91-.382A1.229,1.229,0,0,0,24.039,24.584Z"/><path d="M31.49,27.128h.756a1.663,1.663,0,0,1-.7.961,2.3,2.3,0,0,1-1.3.349,1.957,1.957,0,0,1-1.56-.662,2.623,2.623,0,0,1-.576-1.786A2.632,2.632,0,0,1,28.7,24.2a1.953,1.953,0,0,1,1.556-.67,1.883,1.883,0,0,1,1.507.639,2.587,2.587,0,0,1,.549,1.742v.29H28.9v.036a1.743,1.743,0,0,0,.4,1.116,1.236,1.236,0,0,0,.969.413,1.6,1.6,0,0,0,.765-.165A1.04,1.04,0,0,0,31.49,27.128Zm-2.18-2.544A1.576,1.576,0,0,0,28.9,25.6h2.611a1.494,1.494,0,0,0-.361-1.011,1.168,1.168,0,0,0-.909-.382A1.231,1.231,0,0,0,29.31,24.584Z"/><path d="M37.378,24.2a2.743,2.743,0,0,1,.543,1.784,2.742,2.742,0,0,1-.543,1.781,1.765,1.765,0,0,1-1.448.671,1.853,1.853,0,0,1-.9-.211,1.37,1.37,0,0,1-.585-.585h-.07v2.294h-.756V23.617h.721v.791h.07a1.668,1.668,0,0,1,.631-.641,1.727,1.727,0,0,1,.885-.233A1.769,1.769,0,0,1,37.378,24.2Zm-.606,3.085a2.489,2.489,0,0,0,0-2.6,1.218,1.218,0,0,0-1.018-.47,1.235,1.235,0,0,0-1.019.476,2.4,2.4,0,0,0,0,2.587,1.33,1.33,0,0,0,2.037.009Z"/><path d="M42.375,27.128h.755a1.657,1.657,0,0,1-.694.961,2.3,2.3,0,0,1-1.3.349,1.96,1.96,0,0,1-1.56-.662A2.622,2.622,0,0,1,39,25.99a2.632,2.632,0,0,1,.58-1.786,1.951,1.951,0,0,1,1.555-.67,1.885,1.885,0,0,1,1.508.639,2.587,2.587,0,0,1,.549,1.742v.29H39.786v.036a1.743,1.743,0,0,0,.4,1.116,1.234,1.234,0,0,0,.969.413,1.606,1.606,0,0,0,.765-.165A1.04,1.04,0,0,0,42.375,27.128ZM40.2,24.584a1.576,1.576,0,0,0-.409,1.011H42.4a1.494,1.494,0,0,0-.361-1.011,1.168,1.168,0,0,0-.909-.382A1.231,1.231,0,0,0,40.2,24.584Z"/><path d="M44.874,23.929a1.981,1.981,0,0,1,1.261-.395,2.073,2.073,0,0,1,1.229.342,1.3,1.3,0,0,1,.556.928h-.748a.755.755,0,0,0-.342-.457,1.274,1.274,0,0,0-.7-.172,1.247,1.247,0,0,0-.712.2.594.594,0,0,0-.29.512.493.493,0,0,0,.2.4,1.617,1.617,0,0,0,.62.261l.729.176a2.209,2.209,0,0,1,.995.468,1.059,1.059,0,0,1,.328.815,1.226,1.226,0,0,1-.545,1.035,2.531,2.531,0,0,1-2.65.046,1.262,1.262,0,0,1-.567-.94h.778a.877.877,0,0,0,.378.477,1.361,1.361,0,0,0,.734.178,1.385,1.385,0,0,0,.787-.207.619.619,0,0,0,.307-.532.528.528,0,0,0-.186-.411,1.347,1.347,0,0,0-.565-.257l-.813-.2a2.125,2.125,0,0,1-.978-.466,1.082,1.082,0,0,1-.314-.818A1.2,1.2,0,0,1,44.874,23.929Z"/><path d="M49.644,22.391H50.4v1.226h1.055v.633H50.4v2.681a.9.9,0,0,0,.167.606.685.685,0,0,0,.537.189c.067,0,.125,0,.173,0l.178-.014v.638c-.073.014-.146.025-.22.033s-.147.011-.224.011a1.523,1.523,0,0,1-1.048-.3,1.273,1.273,0,0,1-.318-.971V24.25h-.765v-.633h.765Z"/><path d="M55.137,28.354V23.617h.72v.7h.071a1,1,0,0,1,.474-.567,1.617,1.617,0,0,1,.84-.219c.061,0,.128,0,.2.006s.131.01.178.016v.755a1.557,1.557,0,0,0-.207-.028c-.108-.01-.2-.016-.277-.016a1.264,1.264,0,0,0-.892.326,1.076,1.076,0,0,0-.351.826v2.935Z"/><path d="M58.711,22.5a.523.523,0,1,1,.372.156A.508.508,0,0,1,58.711,22.5Zm-.006,5.855V23.617h.756v4.737Z"/><path d="M61.357,23.929a1.979,1.979,0,0,1,1.261-.395,2.07,2.07,0,0,1,1.228.342,1.3,1.3,0,0,1,.556.928h-.747a.756.756,0,0,0-.343-.457,1.274,1.274,0,0,0-.7-.172,1.25,1.25,0,0,0-.712.2.594.594,0,0,0-.29.512.494.494,0,0,0,.2.4,1.611,1.611,0,0,0,.619.261l.73.176a2.214,2.214,0,0,1,1,.468,1.062,1.062,0,0,1,.327.815,1.225,1.225,0,0,1-.544,1.035,2.531,2.531,0,0,1-2.65.046,1.262,1.262,0,0,1-.567-.94H61.5a.871.871,0,0,0,.377.477,1.364,1.364,0,0,0,.734.178,1.381,1.381,0,0,0,.787-.207.62.62,0,0,0,.308-.532.529.529,0,0,0-.187-.411,1.347,1.347,0,0,0-.565-.257l-.813-.2a2.126,2.126,0,0,1-.977-.466,1.082,1.082,0,0,1-.315-.818A1.206,1.206,0,0,1,61.357,23.929Z"/><path d="M68.909,27.128h.756a1.663,1.663,0,0,1-.7.961,2.3,2.3,0,0,1-1.3.349,1.96,1.96,0,0,1-1.561-.662,2.628,2.628,0,0,1-.575-1.786,2.632,2.632,0,0,1,.58-1.786,1.953,1.953,0,0,1,1.556-.67,1.883,1.883,0,0,1,1.507.639,2.587,2.587,0,0,1,.549,1.742v.29H66.32v.036a1.743,1.743,0,0,0,.4,1.116,1.234,1.234,0,0,0,.969.413,1.6,1.6,0,0,0,.765-.165A1.04,1.04,0,0,0,68.909,27.128Zm-2.18-2.544A1.576,1.576,0,0,0,66.32,25.6h2.611a1.494,1.494,0,0,0-.361-1.011,1.168,1.168,0,0,0-.909-.382A1.231,1.231,0,0,0,66.729,24.584Z"/><path d="M71.345,29.967h-.567l.417-2.5h.84Z"/><path d="M82.037,23.617q-.269.958-.466,1.663l-.4,1.411q-.2.705-.465,1.663h-.769l-1.06-3.665h-.07l-1.055,3.665h-.764l-1.327-4.737h.764l.932,3.788h.07l1.059-3.788h.725l1.059,3.788h.071l.931-3.788Z"/><path d="M83.162,22.5a.527.527,0,1,1,.9-.372.514.514,0,0,1-.154.372.523.523,0,0,1-.745,0Zm-.007,5.855V23.617h.756v4.737Z"/><path d="M85.778,22.391h.756v1.226h1.054v.633H86.534v2.681a.9.9,0,0,0,.167.606.681.681,0,0,0,.536.189c.067,0,.125,0,.173,0l.178-.014v.638q-.109.021-.219.033c-.074.007-.148.011-.224.011a1.521,1.521,0,0,1-1.048-.3,1.269,1.269,0,0,1-.319-.971V24.25h-.765v-.633h.765Z"/><path d="M88.789,28.354V21.736h.756v2.628h.07a1.359,1.359,0,0,1,.548-.611,1.748,1.748,0,0,1,.911-.219,1.577,1.577,0,0,1,1.193.459,1.788,1.788,0,0,1,.442,1.294v3.067h-.756V25.472a1.385,1.385,0,0,0-.279-.943,1.035,1.035,0,0,0-.815-.314,1.261,1.261,0,0,0-.976.367,1.375,1.375,0,0,0-.338.969v2.8Z"/><path d="M96.8,28.058a1.276,1.276,0,0,1-.454-1.031q0-1.3,1.727-1.4l1.366-.083v-.431q0-.9-1.072-.905a1.454,1.454,0,0,0-.707.154.7.7,0,0,0-.361.435h-.764a1.266,1.266,0,0,1,.589-.916,2.227,2.227,0,0,1,1.27-.345,1.932,1.932,0,0,1,1.333.419,1.473,1.473,0,0,1,.468,1.158v3.243h-.72v-.7h-.071a1.555,1.555,0,0,1-.606.58,1.776,1.776,0,0,1-.853.2A1.729,1.729,0,0,1,96.8,28.058Zm2.255-.624a1.085,1.085,0,0,0,.384-.846v-.435l-1.274.083q-1.037.07-1.037.774a.662.662,0,0,0,.272.562,1.121,1.121,0,0,0,.686.2A1.408,1.408,0,0,0,99.057,27.434Z"/><path d="M104.438,27.77a2.753,2.753,0,0,1-.54-1.784,2.737,2.737,0,0,1,.544-1.784,1.773,1.773,0,0,1,1.446-.668,1.8,1.8,0,0,1,.89.219,1.456,1.456,0,0,1,.6.611h.066V21.736h.755v6.618h-.72V27.6H107.4a1.589,1.589,0,0,1-.624.617,1.8,1.8,0,0,1-.892.222A1.77,1.77,0,0,1,104.438,27.77Zm.611-3.083a2.483,2.483,0,0,0,0,2.6,1.335,1.335,0,0,0,2.038,0,2.426,2.426,0,0,0,0-2.588,1.324,1.324,0,0,0-2.033-.007Z"/><path d="M109.768,22.5a.523.523,0,1,1,.372.156A.508.508,0,0,1,109.768,22.5Zm-.006,5.855V23.617h.756v4.737Z"/><path d="M112.393,28.354v-4.1h-.787v-.633h.787V23.09a1.421,1.421,0,0,1,.349-1.053,1.406,1.406,0,0,1,1.026-.345c.094,0,.183,0,.266.011s.165.019.244.033v.615a1.366,1.366,0,0,0-.163-.017c-.061,0-.126,0-.193,0a.776.776,0,0,0-.591.2.832.832,0,0,0-.182.587v.505h1.085v.633h-1.085v4.1Z"/><path d="M115.93,28.354v-4.1h-.787v-.633h.787V23.09a1.421,1.421,0,0,1,.349-1.053,1.406,1.406,0,0,1,1.026-.345c.094,0,.183,0,.266.011s.165.019.244.033v.615a1.366,1.366,0,0,0-.163-.017c-.061,0-.126,0-.193,0a.778.778,0,0,0-.591.2.832.832,0,0,0-.182.587v.505h1.085v.633h-1.085v4.1Z"/><path d="M121.971,27.128h.756a1.661,1.661,0,0,1-.694.961,2.3,2.3,0,0,1-1.3.349,1.96,1.96,0,0,1-1.56-.662,2.623,2.623,0,0,1-.576-1.786,2.637,2.637,0,0,1,.58-1.786,1.954,1.954,0,0,1,1.556-.67,1.882,1.882,0,0,1,1.507.639,2.582,2.582,0,0,1,.55,1.742v.29h-3.406v.036a1.743,1.743,0,0,0,.4,1.116,1.236,1.236,0,0,0,.97.413,1.6,1.6,0,0,0,.764-.165A1.035,1.035,0,0,0,121.971,27.128Zm-2.179-2.544a1.566,1.566,0,0,0-.409,1.011h2.61a1.5,1.5,0,0,0-.36-1.011,1.172,1.172,0,0,0-.91-.382A1.229,1.229,0,0,0,119.792,24.584Z"/><path d="M124.1,28.354V23.617h.721v.7h.07a1,1,0,0,1,.475-.567,1.613,1.613,0,0,1,.839-.219c.062,0,.128,0,.2.006s.131.01.178.016v.755a1.53,1.53,0,0,0-.207-.028c-.108-.01-.2-.016-.276-.016a1.26,1.26,0,0,0-.892.326,1.073,1.073,0,0,0-.352.826v2.935Z"/><path d="M130.736,27.128h.756a1.658,1.658,0,0,1-.695.961,2.3,2.3,0,0,1-1.3.349,1.957,1.957,0,0,1-1.56-.662,2.623,2.623,0,0,1-.576-1.786,2.632,2.632,0,0,1,.58-1.786,1.953,1.953,0,0,1,1.556-.67,1.883,1.883,0,0,1,1.507.639,2.587,2.587,0,0,1,.549,1.742v.29h-3.405v.036a1.737,1.737,0,0,0,.4,1.116,1.236,1.236,0,0,0,.969.413,1.6,1.6,0,0,0,.765-.165A1.04,1.04,0,0,0,130.736,27.128Zm-2.18-2.544a1.57,1.57,0,0,0-.408,1.011h2.61a1.5,1.5,0,0,0-.36-1.011,1.172,1.172,0,0,0-.91-.382A1.231,1.231,0,0,0,128.556,24.584Z"/><path d="M132.869,28.354V23.617h.72v.747h.071a1.386,1.386,0,0,1,.53-.611,1.654,1.654,0,0,1,.894-.219,1.607,1.607,0,0,1,1.228.454,1.824,1.824,0,0,1,.428,1.3v3.067h-.756V25.472a1.4,1.4,0,0,0-.274-.95,1.074,1.074,0,0,0-.842-.307,1.188,1.188,0,0,0-.905.356,1.362,1.362,0,0,0-.338.98v2.8Z"/><path d="M142.158,25.067h-.765a1.136,1.136,0,0,0-.4-.6,1.266,1.266,0,0,0-.82-.25,1.227,1.227,0,0,0-1.013.474,2.009,2.009,0,0,0-.375,1.279,2.062,2.062,0,0,0,.378,1.3,1.216,1.216,0,0,0,1.01.484,1.391,1.391,0,0,0,.8-.216,1.028,1.028,0,0,0,.424-.615h.765a1.717,1.717,0,0,1-.615,1.081,2.062,2.062,0,0,1-1.367.431,2,2,0,0,1-1.584-.671,2.615,2.615,0,0,1-.591-1.8,2.574,2.574,0,0,1,.588-1.771,2.27,2.27,0,0,1,2.96-.213A1.772,1.772,0,0,1,142.158,25.067Z"/><path d="M146.535,27.128h.756a1.661,1.661,0,0,1-.694.961,2.3,2.3,0,0,1-1.3.349,1.96,1.96,0,0,1-1.56-.662,2.623,2.623,0,0,1-.576-1.786,2.637,2.637,0,0,1,.58-1.786,1.954,1.954,0,0,1,1.556-.67,1.882,1.882,0,0,1,1.507.639,2.582,2.582,0,0,1,.55,1.742v.29h-3.406v.036a1.743,1.743,0,0,0,.4,1.116,1.236,1.236,0,0,0,.97.413,1.6,1.6,0,0,0,.764-.165A1.035,1.035,0,0,0,146.535,27.128Zm-2.179-2.544a1.566,1.566,0,0,0-.409,1.011h2.61a1.5,1.5,0,0,0-.36-1.011,1.172,1.172,0,0,0-.91-.382A1.229,1.229,0,0,0,144.356,24.584Z"/><path d="M151.428,27.781a2.6,2.6,0,0,1-.587-1.795,2.6,2.6,0,0,1,.587-1.8,2.279,2.279,0,0,1,3.2,0,2.6,2.6,0,0,1,.586,1.8,2.6,2.6,0,0,1-.586,1.795,2.272,2.272,0,0,1-3.2,0Zm2.635-.49a2.525,2.525,0,0,0,0-2.612,1.391,1.391,0,0,0-2.074,0,2.519,2.519,0,0,0,0,2.612,1.387,1.387,0,0,0,2.074,0Z"/><path d="M156.75,28.354v-4.1h-.788v-.633h.788V23.09a1.425,1.425,0,0,1,.348-1.053,1.409,1.409,0,0,1,1.027-.345c.093,0,.182,0,.265.011s.165.019.244.033v.615a1.348,1.348,0,0,0-.162-.017c-.061,0-.126,0-.193,0a.78.78,0,0,0-.592.2.837.837,0,0,0-.182.587v.505h1.085v.633h-1.085v4.1Z"/><path d="M15.546,33.208a2.117,2.117,0,0,1,1.5-.545,2.01,2.01,0,0,1,1.393.5A1.637,1.637,0,0,1,19,34.443a2.016,2.016,0,0,1-.3,1.048,8.789,8.789,0,0,1-1.158,1.391L16.1,38.372v.07H19.1v.712H15v-.545l2.144-2.32a8.079,8.079,0,0,0,.826-1,1.386,1.386,0,0,0,.22-.762,1.12,1.12,0,0,0-1.2-1.174,1.251,1.251,0,0,0-.918.343,1.213,1.213,0,0,0-.347.905H14.96A1.822,1.822,0,0,1,15.546,33.208Z"/><path d="M22.018,39.154V33.692h-.07q-.487.351-.806.584c-.213.156-.482.35-.807.585v-.835q.51-.364.844-.607t.844-.606h.786v6.341Z"/><path d="M24.9,39.029a.57.57,0,1,1,.973-.4.555.555,0,0,1-.167.4.565.565,0,0,1-.806,0Z"/><path d="M27.935,38.787a1.72,1.72,0,0,1-.279-2.393,1.551,1.551,0,0,1,.958-.553V35.77a1.387,1.387,0,0,1-.771-.514,1.449,1.449,0,0,1-.288-.9,1.511,1.511,0,0,1,.569-1.217,2.475,2.475,0,0,1,2.916,0,1.515,1.515,0,0,1,.567,1.217,1.461,1.461,0,0,1-.284.9,1.392,1.392,0,0,1-.776.516v.071a1.551,1.551,0,0,1,.958.553,1.723,1.723,0,0,1-.276,2.393,2.882,2.882,0,0,1-3.294,0Zm2.718-.5a1.155,1.155,0,0,0,0-1.77,1.857,1.857,0,0,0-2.145,0,1.155,1.155,0,0,0,0,1.77,1.857,1.857,0,0,0,2.145,0Zm-.167-3.076a.983.983,0,0,0,.343-.78,1,1,0,0,0-.343-.791,1.521,1.521,0,0,0-1.811,0,1,1,0,0,0-.342.791.975.975,0,0,0,.345.78,1.524,1.524,0,0,0,1.808,0Z"/><path d="M39.462,35a3.2,3.2,0,0,1,0,3.566,1.767,1.767,0,0,1-1.448.671,1.868,1.868,0,0,1-.9-.211,1.379,1.379,0,0,1-.584-.585h-.071v2.294h-.755V34.417h.72v.791H36.5a1.668,1.668,0,0,1,.63-.642,1.74,1.74,0,0,1,.886-.233A1.773,1.773,0,0,1,39.462,35Zm-.606,3.085a2.494,2.494,0,0,0,0-2.6,1.219,1.219,0,0,0-1.018-.47,1.235,1.235,0,0,0-1.02.476,2.408,2.408,0,0,0,0,2.587,1.331,1.331,0,0,0,2.038.008Z"/><path d="M44.457,37.928h.756a1.664,1.664,0,0,1-.694.961,2.3,2.3,0,0,1-1.3.349,1.963,1.963,0,0,1-1.56-.662,3.048,3.048,0,0,1,0-3.572,1.954,1.954,0,0,1,1.556-.671,1.882,1.882,0,0,1,1.507.64,2.585,2.585,0,0,1,.549,1.742v.29H41.869v.035a1.743,1.743,0,0,0,.4,1.117,1.236,1.236,0,0,0,.969.413A1.6,1.6,0,0,0,44,38.405,1.04,1.04,0,0,0,44.457,37.928Zm-2.18-2.544a1.567,1.567,0,0,0-.408,1.01h2.61a1.5,1.5,0,0,0-.36-1.01,1.172,1.172,0,0,0-.91-.383A1.233,1.233,0,0,0,42.277,35.384Z"/><path d="M46.59,39.154V34.417h.721v.7h.07a1,1,0,0,1,.475-.567,1.611,1.611,0,0,1,.839-.22c.061,0,.128,0,.2.007s.131.01.178.015v.756a1.375,1.375,0,0,0-.207-.028c-.108-.01-.2-.016-.277-.016a1.267,1.267,0,0,0-.892.325,1.079,1.079,0,0,0-.351.827v2.935Z"/><path d="M54,35.867h-.765a1.13,1.13,0,0,0-.4-.6,1.265,1.265,0,0,0-.819-.25A1.227,1.227,0,0,0,51,35.489a2.009,2.009,0,0,0-.375,1.279,2.062,2.062,0,0,0,.378,1.3,1.219,1.219,0,0,0,1.011.484,1.388,1.388,0,0,0,.8-.216,1.028,1.028,0,0,0,.424-.615H54a1.708,1.708,0,0,1-.615,1.081,2.062,2.062,0,0,1-1.367.431,2,2,0,0,1-1.584-.671,2.62,2.62,0,0,1-.591-1.8A2.568,2.568,0,0,1,50.436,35a2.265,2.265,0,0,1,2.959-.213A1.764,1.764,0,0,1,54,35.867Z"/><path d="M58.381,37.928h.756a1.66,1.66,0,0,1-.694.961,2.3,2.3,0,0,1-1.3.349,1.963,1.963,0,0,1-1.56-.662A3.046,3.046,0,0,1,55.587,35a1.952,1.952,0,0,1,1.555-.671,1.882,1.882,0,0,1,1.507.64,2.581,2.581,0,0,1,.55,1.742v.29H55.793v.035a1.744,1.744,0,0,0,.4,1.117,1.233,1.233,0,0,0,.969.413,1.6,1.6,0,0,0,.764-.165A1.035,1.035,0,0,0,58.381,37.928ZM56.2,35.384a1.568,1.568,0,0,0-.409,1.01H58.4a1.491,1.491,0,0,0-.36-1.01,1.171,1.171,0,0,0-.91-.383A1.23,1.23,0,0,0,56.2,35.384Z"/><path d="M60.514,39.154V34.417h.721v.747h.07a1.392,1.392,0,0,1,.53-.611,1.656,1.656,0,0,1,.894-.22,1.606,1.606,0,0,1,1.228.455,1.822,1.822,0,0,1,.429,1.3v3.067H63.63V36.271a1.4,1.4,0,0,0-.274-.949,1.074,1.074,0,0,0-.842-.307,1.19,1.19,0,0,0-.906.356,1.364,1.364,0,0,0-.338.979v2.8Z"/><path d="M66.142,33.191H66.9v1.226h1.055v.633H66.9v2.68a.906.906,0,0,0,.167.607.681.681,0,0,0,.536.189c.068,0,.126,0,.173-.005l.179-.013v.637c-.074.015-.147.026-.22.034s-.148.01-.224.01a1.523,1.523,0,0,1-1.048-.294,1.269,1.269,0,0,1-.319-.971V35.05h-.764v-.633h.764Z"/><path d="M69.4,38.857a1.271,1.271,0,0,1-.455-1.03q0-1.3,1.727-1.4l1.367-.083v-.431q0-.9-1.072-.905a1.455,1.455,0,0,0-.708.154.7.7,0,0,0-.36.435h-.765a1.266,1.266,0,0,1,.589-.916,2.229,2.229,0,0,1,1.27-.346,1.932,1.932,0,0,1,1.333.42,1.474,1.474,0,0,1,.469,1.158v3.243h-.721v-.7H72a1.567,1.567,0,0,1-.607.581,1.787,1.787,0,0,1-.852.2A1.722,1.722,0,0,1,69.4,38.857Zm2.254-.624a1.083,1.083,0,0,0,.385-.845v-.435l-1.275.083q-1.037.07-1.037.773a.661.661,0,0,0,.273.563,1.115,1.115,0,0,0,.685.2A1.4,1.4,0,0,0,71.649,38.233Z"/><path d="M74.873,40.62a1.342,1.342,0,0,1-.609-.943h.8a.694.694,0,0,0,.369.464,1.67,1.67,0,0,0,.818.173,1.511,1.511,0,0,0,.995-.3A1.006,1.006,0,0,0,77.6,39.2v-.931h-.07a1.569,1.569,0,0,1-.611.6,1.929,1.929,0,0,1-2.327-.439,3.031,3.031,0,0,1,0-3.439,1.771,1.771,0,0,1,1.45-.66,1.861,1.861,0,0,1,.908.226,1.487,1.487,0,0,1,.613.609h.07v-.751h.721v4.821a1.556,1.556,0,0,1-.569,1.265,2.343,2.343,0,0,1-1.54.471A2.416,2.416,0,0,1,74.873,40.62Zm2.375-2.668a2.228,2.228,0,0,0,0-2.474,1.255,1.255,0,0,0-1.031-.463,1.205,1.205,0,0,0-1.015.463,2.327,2.327,0,0,0,0,2.474,1.2,1.2,0,0,0,1.015.464A1.251,1.251,0,0,0,77.248,37.952Z"/><path d="M83.046,37.928H83.8a1.661,1.661,0,0,1-.7.961,2.3,2.3,0,0,1-1.3.349,1.96,1.96,0,0,1-1.56-.662,3.048,3.048,0,0,1,0-3.572,1.954,1.954,0,0,1,1.556-.671,1.884,1.884,0,0,1,1.507.64,2.585,2.585,0,0,1,.549,1.742v.29H80.458v.035a1.738,1.738,0,0,0,.4,1.117,1.236,1.236,0,0,0,.969.413,1.6,1.6,0,0,0,.765-.165A1.04,1.04,0,0,0,83.046,37.928Zm-2.18-2.544a1.567,1.567,0,0,0-.408,1.01h2.61a1.5,1.5,0,0,0-.36-1.01A1.172,1.172,0,0,0,81.8,35,1.232,1.232,0,0,0,80.866,35.384Z"/><path d="M91.345,35a3.2,3.2,0,0,1,0,3.566,1.765,1.765,0,0,1-1.448.671,1.862,1.862,0,0,1-.9-.211,1.376,1.376,0,0,1-.585-.585h-.07v2.294H87.59V34.417h.721v.791h.07a1.675,1.675,0,0,1,.63-.642,1.743,1.743,0,0,1,.886-.233A1.771,1.771,0,0,1,91.345,35Zm-.606,3.085a2.488,2.488,0,0,0,0-2.6,1.218,1.218,0,0,0-1.018-.47,1.235,1.235,0,0,0-1.019.476,2.4,2.4,0,0,0,0,2.587,1.329,1.329,0,0,0,2.037.008Z"/><path d="M93.552,38.581a3.043,3.043,0,0,1,0-3.593,2.276,2.276,0,0,1,3.195,0,3.043,3.043,0,0,1,0,3.593,2.271,2.271,0,0,1-3.195,0Zm2.635-.49a2.527,2.527,0,0,0,0-2.613,1.394,1.394,0,0,0-2.075,0,2.527,2.527,0,0,0,0,2.613,1.388,1.388,0,0,0,2.075,0Z"/><path d="M98.642,33.3a.527.527,0,1,1,.745,0,.525.525,0,0,1-.745,0Zm-.006,5.855V34.417h.756v4.737Z"/><path d="M100.931,39.154V34.417h.721v.747h.07a1.392,1.392,0,0,1,.53-.611,1.656,1.656,0,0,1,.894-.22,1.606,1.606,0,0,1,1.228.455,1.822,1.822,0,0,1,.429,1.3v3.067h-.756V36.271a1.4,1.4,0,0,0-.274-.949,1.074,1.074,0,0,0-.842-.307,1.19,1.19,0,0,0-.906.356,1.364,1.364,0,0,0-.338.979v2.8Z"/><path d="M106.56,33.191h.756v1.226h1.054v.633h-1.054v2.68a.906.906,0,0,0,.166.607.685.685,0,0,0,.537.189c.067,0,.125,0,.173-.005l.178-.013v.637c-.073.015-.146.026-.22.034s-.147.01-.224.01a1.523,1.523,0,0,1-1.048-.294,1.273,1.273,0,0,1-.318-.971V35.05H105.8v-.633h.765Z"/><path d="M110.008,34.729a1.982,1.982,0,0,1,1.261-.4,2.075,2.075,0,0,1,1.229.343,1.3,1.3,0,0,1,.555.927h-.747a.762.762,0,0,0-.343-.457,1.277,1.277,0,0,0-.7-.171,1.238,1.238,0,0,0-.712.2.592.592,0,0,0-.29.512.493.493,0,0,0,.2.4,1.617,1.617,0,0,0,.62.261l.729.176a2.214,2.214,0,0,1,1,.468,1.063,1.063,0,0,1,.328.815,1.226,1.226,0,0,1-.545,1.035,2.531,2.531,0,0,1-2.65.046,1.262,1.262,0,0,1-.567-.94h.778a.868.868,0,0,0,.378.477,1.359,1.359,0,0,0,.734.177,1.379,1.379,0,0,0,.786-.206.62.62,0,0,0,.308-.532.528.528,0,0,0-.187-.411,1.347,1.347,0,0,0-.565-.257L110.8,37a2.115,2.115,0,0,1-.978-.465,1.082,1.082,0,0,1-.314-.818A1.2,1.2,0,0,1,110.008,34.729Z"/><path d="M118.325,39.016a1.586,1.586,0,0,1-.627-.618h-.07v.756h-.721V32.536h.756v2.628h.07a1.421,1.421,0,0,1,.6-.606,1.792,1.792,0,0,1,.89-.225,1.768,1.768,0,0,1,1.446.668,3.209,3.209,0,0,1,0,3.566,1.764,1.764,0,0,1-1.444.671A1.826,1.826,0,0,1,118.325,39.016Zm-.3-3.527a2.429,2.429,0,0,0,0,2.593,1.236,1.236,0,0,0,1.022.475,1.21,1.21,0,0,0,1.015-.471,2.5,2.5,0,0,0,0-2.6,1.21,1.21,0,0,0-1.015-.47A1.235,1.235,0,0,0,118.021,35.489Z"/><path d="M125.659,37.928h.756a1.664,1.664,0,0,1-.694.961,2.3,2.3,0,0,1-1.3.349,1.963,1.963,0,0,1-1.56-.662,3.048,3.048,0,0,1,0-3.572,1.955,1.955,0,0,1,1.556-.671,1.882,1.882,0,0,1,1.507.64,2.581,2.581,0,0,1,.55,1.742v.29h-3.406v.035a1.743,1.743,0,0,0,.4,1.117,1.236,1.236,0,0,0,.97.413,1.6,1.6,0,0,0,.764-.165A1.035,1.035,0,0,0,125.659,37.928Zm-2.179-2.544a1.563,1.563,0,0,0-.409,1.01h2.61a1.5,1.5,0,0,0-.36-1.01,1.172,1.172,0,0,0-.91-.383A1.23,1.23,0,0,0,123.48,35.384Z"/><path d="M128.028,33.191h.756v1.226h1.054v.633h-1.054v2.68a.9.9,0,0,0,.167.607.681.681,0,0,0,.536.189c.067,0,.125,0,.173-.005l.178-.013v.637c-.073.015-.146.026-.219.034s-.148.01-.224.01a1.521,1.521,0,0,1-1.048-.294,1.269,1.269,0,0,1-.319-.971V35.05h-.765v-.633h.765Z"/><path d="M137.172,34.417q-.267.958-.465,1.663l-.4,1.411q-.2.7-.466,1.663h-.769l-1.059-3.665h-.07l-1.055,3.665h-.764L130.8,34.417h.765l.932,3.788h.07l1.059-3.788h.725l1.059,3.788h.071l.931-3.788Z"/><path d="M141.308,37.928h.756a1.664,1.664,0,0,1-.694.961,2.3,2.3,0,0,1-1.3.349,1.963,1.963,0,0,1-1.56-.662,3.048,3.048,0,0,1,0-3.572,1.955,1.955,0,0,1,1.556-.671,1.882,1.882,0,0,1,1.507.64,2.586,2.586,0,0,1,.55,1.742v.29H138.72v.035a1.743,1.743,0,0,0,.4,1.117,1.236,1.236,0,0,0,.97.413,1.6,1.6,0,0,0,.764-.165A1.035,1.035,0,0,0,141.308,37.928Zm-2.18-2.544a1.567,1.567,0,0,0-.408,1.01h2.61a1.5,1.5,0,0,0-.36-1.01,1.172,1.172,0,0,0-.91-.383A1.233,1.233,0,0,0,139.128,35.384Z"/><path d="M146.579,37.928h.756a1.664,1.664,0,0,1-.694.961,2.3,2.3,0,0,1-1.3.349,1.963,1.963,0,0,1-1.56-.662,3.048,3.048,0,0,1,0-3.572,1.955,1.955,0,0,1,1.556-.671,1.882,1.882,0,0,1,1.507.64,2.586,2.586,0,0,1,.55,1.742v.29h-3.406v.035a1.743,1.743,0,0,0,.4,1.117,1.236,1.236,0,0,0,.969.413,1.6,1.6,0,0,0,.765-.165A1.035,1.035,0,0,0,146.579,37.928Zm-2.18-2.544a1.567,1.567,0,0,0-.408,1.01h2.61a1.5,1.5,0,0,0-.36-1.01,1.172,1.172,0,0,0-.91-.383A1.233,1.233,0,0,0,144.4,35.384Z"/><path d="M148.712,39.154V34.417h.721v.747h.07a1.394,1.394,0,0,1,.531-.611,1.652,1.652,0,0,1,.893-.22,1.607,1.607,0,0,1,1.229.455,1.822,1.822,0,0,1,.429,1.3v3.067h-.756V36.271a1.4,1.4,0,0,0-.275-.949,1.072,1.072,0,0,0-.842-.307,1.189,1.189,0,0,0-.905.356,1.364,1.364,0,0,0-.339.979v2.8Z"/><path d="M20.963,45.217q-.269.959-.466,1.663T20.1,48.291q-.2.705-.466,1.663h-.769l-1.059-3.665h-.071l-1.054,3.665h-.765l-1.327-4.737h.765l.931,3.788h.07l1.06-3.788h.725L19.2,49.005h.07l.932-3.788Z"/><path d="M22.31,49.381a3.047,3.047,0,0,1,0-3.593,2.278,2.278,0,0,1,3.2,0,3.043,3.043,0,0,1,0,3.593,2.271,2.271,0,0,1-3.195,0Zm2.635-.49a2.519,2.519,0,0,0,0-2.612,1.391,1.391,0,0,0-2.074,0,2.519,2.519,0,0,0,0,2.612,1.387,1.387,0,0,0,2.074,0Z"/><path d="M27.4,49.954V45.217h.721v.747h.07a1.287,1.287,0,0,1,.506-.613,1.492,1.492,0,0,1,.817-.217,1.389,1.389,0,0,1,.816.231,1.415,1.415,0,0,1,.494.6h.07a1.473,1.473,0,0,1,.576-.6,1.681,1.681,0,0,1,.874-.226,1.487,1.487,0,0,1,1.116.4,1.572,1.572,0,0,1,.392,1.147v3.273H33.1v-3.1a1.091,1.091,0,0,0-.249-.782.99.99,0,0,0-.749-.259,1.043,1.043,0,0,0-.795.321,1.086,1.086,0,0,0-.3.773v3.045h-.755V46.738a.87.87,0,0,0-.271-.673,1.095,1.095,0,0,0-1.5.1,1.232,1.232,0,0,0-.317.853v2.935Z"/><path d="M38.506,48.728h.756a1.657,1.657,0,0,1-.694.961,2.3,2.3,0,0,1-1.3.349,1.96,1.96,0,0,1-1.56-.662,3.046,3.046,0,0,1,.005-3.572,1.951,1.951,0,0,1,1.555-.67,1.882,1.882,0,0,1,1.507.639,2.583,2.583,0,0,1,.55,1.743v.29H35.918v.035a1.741,1.741,0,0,0,.4,1.116,1.233,1.233,0,0,0,.969.413,1.6,1.6,0,0,0,.764-.165A1.035,1.035,0,0,0,38.506,48.728Zm-2.179-2.544a1.571,1.571,0,0,0-.409,1.011h2.61a1.494,1.494,0,0,0-.36-1.011,1.17,1.17,0,0,0-.91-.382A1.229,1.229,0,0,0,36.327,46.184Z"/><path d="M40.644,49.954V45.217h.72v.747h.071a1.4,1.4,0,0,1,.529-.611,1.658,1.658,0,0,1,.894-.219,1.611,1.611,0,0,1,1.229.454,1.824,1.824,0,0,1,.428,1.3v3.067h-.756V47.072a1.4,1.4,0,0,0-.274-.95,1.074,1.074,0,0,0-.842-.307,1.19,1.19,0,0,0-.905.356,1.363,1.363,0,0,0-.339.98v2.8Z"/><path d="M48.608,49.658a1.276,1.276,0,0,1-.454-1.031q0-1.3,1.727-1.4l1.367-.083v-.431q0-.9-1.073-.905a1.454,1.454,0,0,0-.707.154.7.7,0,0,0-.361.435h-.764a1.266,1.266,0,0,1,.589-.916,2.227,2.227,0,0,1,1.27-.345,1.932,1.932,0,0,1,1.333.419A1.473,1.473,0,0,1,52,46.711v3.243h-.72v-.7h-.071a1.555,1.555,0,0,1-.606.58,1.776,1.776,0,0,1-.853.2A1.725,1.725,0,0,1,48.608,49.658Zm2.255-.624a1.086,1.086,0,0,0,.385-.846v-.435l-1.275.083q-1.037.071-1.037.774a.659.659,0,0,0,.273.562,1.115,1.115,0,0,0,.685.2A1.406,1.406,0,0,0,50.863,49.034Z"/><path d="M53.519,49.954V45.217h.72v.747h.071a1.4,1.4,0,0,1,.529-.611,1.658,1.658,0,0,1,.894-.219,1.611,1.611,0,0,1,1.229.454,1.824,1.824,0,0,1,.428,1.3v3.067h-.756V47.072a1.4,1.4,0,0,0-.274-.95,1.074,1.074,0,0,0-.842-.307,1.19,1.19,0,0,0-.905.356,1.363,1.363,0,0,0-.339.98v2.8Z"/><path d="M59.205,49.37a3.2,3.2,0,0,1,0-3.568,1.77,1.77,0,0,1,1.446-.668,1.8,1.8,0,0,1,.89.219,1.459,1.459,0,0,1,.595.611h.066V43.336h.756v6.618h-.721V49.2h-.07a1.589,1.589,0,0,1-.624.617,1.808,1.808,0,0,1-.892.222A1.769,1.769,0,0,1,59.205,49.37Zm.611-3.082a2.476,2.476,0,0,0,0,2.6,1.334,1.334,0,0,0,2.037-.005,2.42,2.42,0,0,0,0-2.588,1.322,1.322,0,0,0-2.032-.006Z"/><path d="M66.97,49.954V45.217h.721v.747h.07a1.285,1.285,0,0,1,.505-.613,1.5,1.5,0,0,1,.818-.217,1.386,1.386,0,0,1,.815.231,1.4,1.4,0,0,1,.494.6h.07a1.473,1.473,0,0,1,.576-.6,1.685,1.685,0,0,1,.875-.226,1.49,1.49,0,0,1,1.116.4,1.571,1.571,0,0,1,.391,1.147v3.273h-.756v-3.1a1.1,1.1,0,0,0-.248-.782.991.991,0,0,0-.749-.259,1.043,1.043,0,0,0-.8.321,1.085,1.085,0,0,0-.3.773v3.045h-.756V46.738a.873.873,0,0,0-.27-.673,1.1,1.1,0,0,0-1.5.1,1.231,1.231,0,0,0-.316.853v2.935Z"/><path d="M78.072,48.728h.756a1.663,1.663,0,0,1-.7.961,2.3,2.3,0,0,1-1.3.349,1.957,1.957,0,0,1-1.56-.662,3.048,3.048,0,0,1,0-3.572,1.953,1.953,0,0,1,1.556-.67,1.883,1.883,0,0,1,1.507.639,2.588,2.588,0,0,1,.549,1.743v.29H75.483v.035a1.741,1.741,0,0,0,.4,1.116,1.236,1.236,0,0,0,.969.413,1.6,1.6,0,0,0,.765-.165A1.04,1.04,0,0,0,78.072,48.728Zm-2.18-2.544a1.576,1.576,0,0,0-.409,1.011h2.611a1.494,1.494,0,0,0-.361-1.011,1.168,1.168,0,0,0-.909-.382A1.231,1.231,0,0,0,75.892,46.184Z"/><path d="M80.209,49.954V45.217h.721v.747H81a1.391,1.391,0,0,1,.53-.611,1.656,1.656,0,0,1,.894-.219,1.609,1.609,0,0,1,1.228.454,1.824,1.824,0,0,1,.429,1.3v3.067h-.756V47.072a1.4,1.4,0,0,0-.275-.95,1.07,1.07,0,0,0-.841-.307,1.194,1.194,0,0,0-.906.356,1.366,1.366,0,0,0-.338.98v2.8Z"/><path d="M85.77,49.829a.565.565,0,0,1,0-.806.57.57,0,0,1,.806,0,.57.57,0,1,1-.806.806Z"/><path class="j" d="M163.795,23.828A116.587,116.587,0,0,1,212.53,34.5"/><polygon points="209.171 34.793 209.204 34.294 212.472 34.512 210.109 32.244 210.455 31.883 213.809 35.102 209.171 34.793"/><path class="k" d="M22.918,160.672h-.9v-5.919h-.064l-2.445,5.866H18.69l-2.444-5.866h-.065v5.919h-.9v-7.75H16.4l2.653,6.413h.086l2.654-6.413h1.123Z"/><path class="k" d="M25.3,159.971a3.72,3.72,0,0,1,0-4.391,2.783,2.783,0,0,1,3.905,0,3.716,3.716,0,0,1,0,4.391,2.775,2.775,0,0,1-3.905,0Zm3.22-.6a3.086,3.086,0,0,0,0-3.193,1.7,1.7,0,0,0-2.535,0,3.086,3.086,0,0,0,0,3.193,1.694,1.694,0,0,0,2.535,0Z"/><path class="k" d="M31.42,160.672v-5.79h.88v.86h.086a1.22,1.22,0,0,1,.58-.693,1.969,1.969,0,0,1,1.026-.269c.075,0,.156,0,.244.008s.16.012.218.019v.924a1.629,1.629,0,0,0-.253-.035c-.132-.012-.245-.019-.338-.019a1.536,1.536,0,0,0-1.09.4,1.313,1.313,0,0,0-.43,1.009v3.588Z"/><path class="k" d="M39.417,159.174h.923a2.015,2.015,0,0,1-.847,1.173,2.8,2.8,0,0,1-1.59.427A2.4,2.4,0,0,1,36,159.966a3.727,3.727,0,0,1,0-4.367,2.388,2.388,0,0,1,1.9-.819,2.3,2.3,0,0,1,1.842.782,3.159,3.159,0,0,1,.672,2.129v.355H36.253v.043a2.13,2.13,0,0,0,.487,1.364,1.508,1.508,0,0,0,1.184.5,1.95,1.95,0,0,0,.934-.2A1.265,1.265,0,0,0,39.417,159.174Zm-2.664-3.11a1.925,1.925,0,0,0-.5,1.235h3.191A1.821,1.821,0,0,0,39,156.064a1.429,1.429,0,0,0-1.112-.467A1.5,1.5,0,0,0,36.753,156.064Z"/><path class="k" d="M44.971,160.672v-5.79h.881v.913h.086a1.565,1.565,0,0,1,.617-.749,1.831,1.831,0,0,1,1-.266,1.7,1.7,0,0,1,1,.282,1.728,1.728,0,0,1,.605.733h.086a1.794,1.794,0,0,1,.7-.738,2.055,2.055,0,0,1,1.069-.277,1.823,1.823,0,0,1,1.365.489,1.926,1.926,0,0,1,.478,1.4v4h-.924v-3.786a1.33,1.33,0,0,0-.3-.956,1.208,1.208,0,0,0-.916-.317,1.273,1.273,0,0,0-.971.392,1.322,1.322,0,0,0-.371.945v3.722h-.924v-3.931a1.067,1.067,0,0,0-.33-.822,1.338,1.338,0,0,0-1.834.123,1.5,1.5,0,0,0-.387,1.042v3.588Z"/><path class="k" d="M58.434,159.174h.924a2.021,2.021,0,0,1-.848,1.173,2.8,2.8,0,0,1-1.59.427,2.4,2.4,0,0,1-1.907-.808,3.727,3.727,0,0,1,.005-4.367,2.391,2.391,0,0,1,1.9-.819,2.3,2.3,0,0,1,1.842.782,3.154,3.154,0,0,1,.672,2.129v.355H55.271v.043a2.13,2.13,0,0,0,.486,1.364,1.51,1.51,0,0,0,1.185.5,1.95,1.95,0,0,0,.934-.2A1.258,1.258,0,0,0,58.434,159.174Zm-2.664-3.11a1.919,1.919,0,0,0-.5,1.235h3.191a1.826,1.826,0,0,0-.441-1.235,1.429,1.429,0,0,0-1.112-.467A1.506,1.506,0,0,0,55.77,156.064Z"/><path class="k" d="M60.937,160.672v-5.79h.881v.913H61.9a1.693,1.693,0,0,1,.646-.746,2.029,2.029,0,0,1,1.094-.269,1.964,1.964,0,0,1,1.5.556,2.227,2.227,0,0,1,.524,1.587v3.749h-.924v-3.523a1.706,1.706,0,0,0-.336-1.16,1.31,1.31,0,0,0-1.029-.376,1.454,1.454,0,0,0-1.106.435,1.67,1.67,0,0,0-.413,1.2v3.426Z"/><path class="i" d="M22.84,141.986h-.9v-5.919h-.065l-2.444,5.865h-.817l-2.444-5.865H16.1v5.919h-.9v-7.751h1.123l2.654,6.413h.086l2.653-6.413H22.84Z"/><path class="i" d="M25.22,141.285a3.716,3.716,0,0,1,0-4.391,2.781,2.781,0,0,1,3.9,0,3.716,3.716,0,0,1,0,4.391,2.774,2.774,0,0,1-3.9,0Zm3.22-.6a3.086,3.086,0,0,0,0-3.193,1.7,1.7,0,0,0-2.536,0,3.086,3.086,0,0,0,0,3.193,1.7,1.7,0,0,0,2.536,0Z"/><path class="i" d="M31.342,141.986V136.2h.881v.859h.086a1.216,1.216,0,0,1,.58-.693,1.965,1.965,0,0,1,1.025-.268c.075,0,.156,0,.244.008s.16.011.218.019v.923a1.94,1.94,0,0,0-.253-.035c-.132-.012-.245-.018-.338-.018a1.543,1.543,0,0,0-1.09.4,1.314,1.314,0,0,0-.429,1.01v3.588Z"/><path class="i" d="M39.339,140.487h.924a2.023,2.023,0,0,1-.848,1.174,2.8,2.8,0,0,1-1.59.427,2.4,2.4,0,0,1-1.907-.808,3.727,3.727,0,0,1,.005-4.367,2.389,2.389,0,0,1,1.9-.819,2.3,2.3,0,0,1,1.842.781,3.164,3.164,0,0,1,.672,2.13v.354H36.176v.043a2.129,2.129,0,0,0,.486,1.365,1.509,1.509,0,0,0,1.185.5,1.958,1.958,0,0,0,.933-.2A1.258,1.258,0,0,0,39.339,140.487Zm-2.664-3.11a1.922,1.922,0,0,0-.5,1.236h3.19a1.823,1.823,0,0,0-.44-1.236,1.432,1.432,0,0,0-1.112-.467A1.51,1.51,0,0,0,36.675,137.377Z"/><path class="i" d="M52.177,136.2q-.328,1.17-.57,2.033t-.483,1.724q-.243.862-.57,2.033h-.94l-1.295-4.48h-.086l-1.289,4.48h-.933l-1.623-5.79h.935l1.139,4.63h.086l1.294-4.63h.886l1.3,4.63h.085l1.139-4.63Z"/><path class="i" d="M53.712,141.285a3.716,3.716,0,0,1,0-4.391,2.781,2.781,0,0,1,3.9,0,3.716,3.716,0,0,1,0,4.391,2.774,2.774,0,0,1-3.9,0Zm3.22-.6a3.086,3.086,0,0,0,0-3.193,1.7,1.7,0,0,0-2.535,0,3.08,3.08,0,0,0,0,3.193,1.7,1.7,0,0,0,2.535,0Z"/><path class="i" d="M59.834,141.986V136.2h.881v.913H60.8a1.565,1.565,0,0,1,.617-.749,1.817,1.817,0,0,1,1-.266,1.707,1.707,0,0,1,1,.281,1.73,1.73,0,0,1,.605.734H64.1a1.794,1.794,0,0,1,.7-.738,2.055,2.055,0,0,1,1.069-.277,1.823,1.823,0,0,1,1.364.488,1.922,1.922,0,0,1,.479,1.4v4H66.8V138.2a1.336,1.336,0,0,0-.3-.956,1.214,1.214,0,0,0-.916-.317,1.273,1.273,0,0,0-.971.392,1.325,1.325,0,0,0-.372.946v3.722h-.923v-3.932a1.07,1.07,0,0,0-.33-.822,1.245,1.245,0,0,0-.879-.306,1.231,1.231,0,0,0-.955.43,1.5,1.5,0,0,0-.387,1.042v3.588Z"/><path class="i" d="M73.3,140.487h.924a2.023,2.023,0,0,1-.848,1.174,2.8,2.8,0,0,1-1.59.427,2.4,2.4,0,0,1-1.907-.808,3.727,3.727,0,0,1,0-4.367,2.389,2.389,0,0,1,1.9-.819,2.3,2.3,0,0,1,1.842.781,3.164,3.164,0,0,1,.672,2.13v.354H70.134v.043a2.129,2.129,0,0,0,.486,1.365,1.509,1.509,0,0,0,1.185.5,1.958,1.958,0,0,0,.933-.2A1.258,1.258,0,0,0,73.3,140.487Zm-2.664-3.11a1.922,1.922,0,0,0-.5,1.236h3.19a1.823,1.823,0,0,0-.44-1.236,1.432,1.432,0,0,0-1.112-.467A1.51,1.51,0,0,0,70.633,137.377Z"/><path class="i" d="M75.8,141.986V136.2h.881v.913h.086a1.7,1.7,0,0,1,.646-.747,2.027,2.027,0,0,1,1.094-.268,1.964,1.964,0,0,1,1.5.556,2.225,2.225,0,0,1,.523,1.587v3.749h-.924v-3.524a1.708,1.708,0,0,0-.335-1.16,1.313,1.313,0,0,0-1.029-.376,1.453,1.453,0,0,0-1.106.435,1.668,1.668,0,0,0-.413,1.2v3.427Z"/><polygon class="i" points="7.307 136.397 4.035 142.064 10.579 142.064 7.307 136.397"/><polygon class="k" points="7.307 160.258 10.579 154.591 4.035 154.591 7.307 160.258"/></g></svg>